<?xml version="1.0" encoding="UTF-8" standalone="no"?>
<!-- Created with Inkscape (http://www.inkscape.org/) -->

<svg
   width="67.159897mm"
   height="50.539612mm"
   viewBox="0 0 67.159897 50.539612"
   version="1.1"
   id="svg8971"
   inkscape:version="1.1 (c4e8f9ed74, 2021-05-24)"
   sodipodi:docname="check.svg"
   xmlns:inkscape="http://www.inkscape.org/namespaces/inkscape"
   xmlns:sodipodi="http://sodipodi.sourceforge.net/DTD/sodipodi-0.dtd"
   xmlns="http://www.w3.org/2000/svg"
   xmlns:svg="http://www.w3.org/2000/svg">
  <sodipodi:namedview
     id="namedview8973"
     pagecolor="#ffffff"
     bordercolor="#666666"
     borderopacity="1.0"
     inkscape:pageshadow="2"
     inkscape:pageopacity="0.0"
     inkscape:pagecheckerboard="0"
     inkscape:document-units="mm"
     showgrid="false"
     inkscape:zoom="0.45968013"
     inkscape:cx="-325.22615"
     inkscape:cy="79.40304"
     inkscape:window-width="1920"
     inkscape:window-height="1051"
     inkscape:window-x="1366"
     inkscape:window-y="0"
     inkscape:window-maximized="1"
     inkscape:current-layer="layer1" />
  <defs
     id="defs8968" />
  <g
     inkscape:label="Layer 1"
     inkscape:groupmode="layer"
     id="layer1"
     transform="translate(-6.1351661,-127.83485)">
    <path
       d="m 35.361748,178.37446 c -0.243416,0 -0.486833,-0.0921 -0.673805,-0.27905 l -11.046531,-11.049 c -0.371475,-0.37042 -0.371475,-0.97367 0,-1.34409 0.371827,-0.37041 0.974725,-0.37041 1.345141,0 l 10.375195,10.3752 34.914419,-34.91442 c 1.49225,-1.49225 1.49225,-3.91936 0,-5.41161 l -4.896556,-4.89656 c -1.49225,-1.49225 -3.919361,-1.49225 -5.411611,0 l -23.932446,23.93245 c -0.373944,0.37042 -0.973667,0.37042 -1.347611,0 L 19.468756,139.5689 c -1.492603,-1.49613 -3.921125,-1.49613 -5.413728,0 l -4.8947923,4.89267 c -0.7231945,0.7232 -1.1218334,1.68275 -1.1218334,2.70581 0,1.02305 0.3986389,1.98614 1.1218334,2.7058 l 11.9351783,11.938 c 0.371475,0.37042 0.371475,0.97367 0,1.34409 -0.371475,0.37394 -0.973666,0.37394 -1.345494,0 L 7.8143884,151.2208 c -1.0823223,-1.08303 -1.6792223,-2.52237 -1.6792223,-4.05342 0,-1.53106 0.5965473,-2.97039 1.6788695,-4.05342 l 4.8954974,-4.89303 c 2.234495,-2.23308 5.870223,-2.23308 8.10507,0 l 14.547145,14.54856 23.258641,-23.25864 c 2.236611,-2.23626 5.87375,-2.23308 8.106834,0 l 4.893028,4.89303 c 2.233083,2.23661 2.233083,5.87057 0,8.10683 l -35.584697,35.5847 c -0.186972,0.18697 -0.430389,0.27905 -0.673806,0.27905"
       style="fill:#854adb;fill-opacity:1;fill-rule:nonzero;stroke:none;stroke-width:0.0352778"
       id="path752" />
  </g>
</svg>
