<?xml version="1.0" encoding="UTF-8" standalone="no"?>
<!-- Created with Inkscape (http://www.inkscape.org/) -->

<svg
   width="67.159889mm"
   height="50.539612mm"
   viewBox="0 0 67.159889 50.539612"
   version="1.1"
   id="svg9865"
   inkscape:version="1.1 (c4e8f9ed74, 2021-05-24)"
   sodipodi:docname="check-white.svg"
   xmlns:inkscape="http://www.inkscape.org/namespaces/inkscape"
   xmlns:sodipodi="http://sodipodi.sourceforge.net/DTD/sodipodi-0.dtd"
   xmlns="http://www.w3.org/2000/svg"
   xmlns:svg="http://www.w3.org/2000/svg">
  <sodipodi:namedview
     id="namedview9867"
     pagecolor="#ffffff"
     bordercolor="#666666"
     borderopacity="1.0"
     inkscape:pageshadow="2"
     inkscape:pageopacity="0.0"
     inkscape:pagecheckerboard="0"
     inkscape:document-units="mm"
     showgrid="false"
     inkscape:zoom="0.45968013"
     inkscape:cx="-231.68284"
     inkscape:cy="249.08625"
     inkscape:window-width="1920"
     inkscape:window-height="1051"
     inkscape:window-x="1366"
     inkscape:window-y="0"
     inkscape:window-maximized="1"
     inkscape:current-layer="layer1" />
  <defs
     id="defs9862" />
  <g
     inkscape:label="Layer 1"
     inkscape:groupmode="layer"
     id="layer1"
     transform="translate(-85.749633,-82.966038)">
    <path
       d="m 114.97621,133.50565 c -0.24342,0 -0.48683,-0.0921 -0.67381,-0.27905 l -11.04653,-11.049 c -0.37147,-0.37042 -0.37147,-0.97367 0,-1.34408 0.37183,-0.37042 0.97473,-0.37042 1.34514,0 l 10.3752,10.37519 34.91442,-34.914418 c 1.49225,-1.49225 1.49225,-3.919362 0,-5.411612 l -4.89656,-4.896556 c -1.49225,-1.49225 -3.91936,-1.49225 -5.41161,0 l -23.93245,23.932446 c -0.37394,0.37042 -0.97366,0.37042 -1.34761,0 L 99.083223,94.700089 c -1.49261,-1.496131 -3.92113,-1.496131 -5.41373,0 l -4.89479,4.892675 c -0.7232,0.723196 -1.12184,1.682746 -1.12184,2.705806 0,1.02306 0.39864,1.98614 1.12184,2.70581 l 11.935167,11.938 c 0.37148,0.37041 0.37148,0.97366 0,1.34408 -0.37147,0.37394 -0.973657,0.37394 -1.345487,0 l -11.93553,-11.93447 c -1.08232,-1.08303 -1.67922,-2.52236 -1.67922,-4.05342 0,-1.53106 0.59654,-2.970389 1.67887,-4.053417 l 4.89549,-4.893028 c 2.2345,-2.233084 5.87023,-2.233084 8.105067,0 l 14.54715,14.548555 23.25864,-23.258639 c 2.23661,-2.236258 5.87375,-2.233083 8.10683,0 l 4.89303,4.893028 c 2.23308,2.236611 2.23308,5.870575 0,8.106834 l -35.5847,35.584697 c -0.18697,0.18697 -0.43038,0.27905 -0.6738,0.27905"
       style="fill:#ffffff;fill-opacity:1;fill-rule:nonzero;stroke:none;stroke-width:0.0352778"
       id="path752" />
  </g>
</svg>
