<?xml version="1.0" encoding="UTF-8" standalone="no"?>
<!-- Created with Inkscape (http://www.inkscape.org/) -->

<svg
   width="59.447407mm"
   height="58.184998mm"
   viewBox="0 0 59.447407 58.184998"
   version="1.1"
   id="svg8974"
   inkscape:version="1.1 (c4e8f9ed74, 2021-05-24)"
   sodipodi:docname="clock.svg"
   xmlns:inkscape="http://www.inkscape.org/namespaces/inkscape"
   xmlns:sodipodi="http://sodipodi.sourceforge.net/DTD/sodipodi-0.dtd"
   xmlns="http://www.w3.org/2000/svg"
   xmlns:svg="http://www.w3.org/2000/svg">
  <sodipodi:namedview
     id="namedview8976"
     pagecolor="#ffffff"
     bordercolor="#666666"
     borderopacity="1.0"
     inkscape:pageshadow="2"
     inkscape:pageopacity="0.0"
     inkscape:pagecheckerboard="0"
     inkscape:document-units="mm"
     showgrid="false"
     inkscape:zoom="0.45968013"
     inkscape:cx="-279.54221"
     inkscape:cy="-35.894525"
     inkscape:window-width="1920"
     inkscape:window-height="1051"
     inkscape:window-x="1366"
     inkscape:window-y="0"
     inkscape:window-maximized="1"
     inkscape:current-layer="layer1" />
  <defs
     id="defs8971" />
  <g
     inkscape:label="Layer 1"
     inkscape:groupmode="layer"
     id="layer1"
     transform="translate(-75.032111,-158.54704)">
    <path
       d="m 78.590763,180.05726 c -0.14217,0 -0.284692,-0.0318 -0.416278,-0.0953 -0.254353,-0.12347 -0.440972,-0.35278 -0.508,-0.62795 l -2.607028,-10.65389 c -0.124531,-0.51152 0.188031,-1.02658 0.698147,-1.15005 0.513292,-0.127 1.025878,0.18697 1.150761,0.6985 l 2.334331,9.53911 9.394826,-4.25803 c 0.479072,-0.21484 1.043164,-0.003 1.259769,0.47272 0.216606,0.47978 0.0046,1.04423 -0.474133,1.25942 l -10.439401,4.73075 c -0.124883,0.0565 -0.258939,0.0847 -0.392994,0.0847"
       style="fill:#854adb;fill-opacity:1;fill-rule:nonzero;stroke:none;stroke-width:0.0352778"
       id="path212" />
    <path
       d="m 105.43962,216.73204 c -2.68076,0 -5.37704,-0.37395 -8.025692,-1.12889 -10.51807,-3.00214 -18.389601,-11.53231 -20.543663,-22.26028 -0.103363,-0.51506 0.230364,-1.01953 0.74542,-1.12183 0.515056,-0.10231 1.017058,0.2293 1.120422,0.74436 2.01295,10.02947 9.370131,18.00225 19.200285,20.80683 6.981118,1.9932 14.321018,1.14653 20.665728,-2.38125 6.34435,-3.52778 10.9354,-9.31333 12.92754,-16.2948 4.11268,-14.41098 -4.26544,-29.48165 -18.67676,-33.59503 -13.890278,-3.96523 -28.451534,3.6195 -33.147712,17.26494 -0.171097,0.49742 -0.710847,0.762 -1.209322,0.59267 -0.497064,-0.17286 -0.761648,-0.71261 -0.590198,-1.21003 5.02532,-14.605 20.605046,-22.71889 35.469692,-18.4785 15.42027,4.40267 24.38506,20.52814 19.98451,35.94806 -2.13148,7.47183 -7.04427,13.66308 -13.83312,17.4378 -4.38221,2.43417 -9.2075,3.67595 -14.08713,3.67595"
       style="fill:#854adb;fill-opacity:1;fill-rule:nonzero;stroke:none;stroke-width:0.0352778"
       id="path214" />
    <path
       d="m 104.8392,188.58778 c -0.18274,0 -0.36478,-0.0533 -0.52176,-0.15558 -0.26847,-0.17639 -0.42969,-0.47625 -0.42969,-0.79375 v -14.89428 c 0,-0.52211 0.42581,-0.94862 0.95145,-0.94862 0.52563,0 0.95179,0.42651 0.95179,0.94862 v 13.44437 l 12.00503,-5.21053 c 0.48189,-0.20814 1.04246,0.0106 1.2513,0.49389 0.20955,0.4833 -0.0116,1.04069 -0.49424,1.25236 l -13.335,5.78555 c -0.12136,0.0529 -0.25012,0.078 -0.37888,0.078"
       style="fill:#ffcf46;fill-opacity:1;fill-rule:nonzero;stroke:none;stroke-width:0.0352778"
       id="path216" />
    <path
       d="m 104.8392,209.73998 c -11.149547,0 -20.580356,-8.33261 -21.935729,-19.38514 -0.06421,-0.52211 0.306917,-0.99483 0.82797,-1.05833 0.523875,-0.0635 0.99695,0.30692 1.06045,0.82903 1.238956,10.0965 9.858023,17.70944 20.047309,17.70944 11.1379,0 20.19829,-9.06286 20.19829,-20.19653 0,-11.14072 -9.06039,-20.20005 -20.19829,-20.20005 -4.29366,0 -8.393294,1.32644 -11.855103,3.84175 -0.425097,0.31044 -1.020939,0.21519 -1.328914,-0.20814 -0.309033,-0.42686 -0.214136,-1.02306 0.210608,-1.32997 3.789187,-2.75167 8.275459,-4.20829 12.973409,-4.20829 12.1867,0 22.10152,9.91623 22.10152,22.1047 0,12.18495 -9.91482,22.10153 -22.10152,22.10153"
       style="fill:#854adb;fill-opacity:1;fill-rule:nonzero;stroke:none;stroke-width:0.0352778"
       id="path218" />
  </g>
</svg>
