<?xml version="1.0" encoding="UTF-8" standalone="no"?>
<!-- Created with Inkscape (http://www.inkscape.org/) -->

<svg
   width="65.782471mm"
   height="48.118889mm"
   viewBox="0 0 65.782471 48.118889"
   version="1.1"
   id="svg8963"
   inkscape:version="1.1 (c4e8f9ed74, 2021-05-24)"
   sodipodi:docname="customer-base.svg"
   xmlns:inkscape="http://www.inkscape.org/namespaces/inkscape"
   xmlns:sodipodi="http://sodipodi.sourceforge.net/DTD/sodipodi-0.dtd"
   xmlns="http://www.w3.org/2000/svg"
   xmlns:svg="http://www.w3.org/2000/svg">
  <sodipodi:namedview
     id="namedview8965"
     pagecolor="#ffffff"
     bordercolor="#666666"
     borderopacity="1.0"
     inkscape:pageshadow="2"
     inkscape:pageopacity="0.0"
     inkscape:pagecheckerboard="0"
     inkscape:document-units="mm"
     showgrid="false"
     inkscape:zoom="0.97531385"
     inkscape:cx="-269.14413"
     inkscape:cy="90.740022"
     inkscape:window-width="1920"
     inkscape:window-height="1051"
     inkscape:window-x="1366"
     inkscape:window-y="0"
     inkscape:window-maximized="1"
     inkscape:current-layer="layer1" />
  <defs
     id="defs8960" />
  <g
     inkscape:label="Layer 1"
     inkscape:groupmode="layer"
     id="layer1"
     transform="translate(-72.152396,-124.72835)">
    <path
       d="M 127.58437,172.84724 H 76.040007 c -2.144889,0 -3.887611,-1.74625 -3.887611,-3.89114 v -40.34014 c 0,-2.14489 1.742722,-3.88761 3.887611,-3.88761 h 51.544363 c 2.14489,0 3.89114,1.74272 3.89114,3.88761 v 11.47233 c 0,0.41981 -0.34219,0.762 -0.762,0.762 -0.41981,0 -0.762,-0.34219 -0.762,-0.762 v -11.47233 c 0,-1.30528 -1.06186,-2.36714 -2.36714,-2.36714 H 76.040007 c -1.305278,0 -2.367139,1.06186 -2.367139,2.36714 v 40.34014 c 0,1.30528 1.061861,2.36714 2.367139,2.36714 h 51.544363 c 1.30528,0 2.36714,-1.06186 2.36714,-2.36714 v -2.49026 c 0,-0.42016 0.34219,-0.76235 0.762,-0.76235 0.41981,0 0.762,0.34219 0.762,0.76235 v 2.49026 c 0,2.14489 -1.74625,3.89114 -3.89114,3.89114"
       style="fill:#854adb;fill-opacity:1;fill-rule:nonzero;stroke:none;stroke-width:0.0352778"
       id="path6620" />
    <path
       d="M 130.71351,134.47207 H 72.914396 c -0.423334,0 -0.762,-0.34219 -0.762,-0.762 0,-0.41981 0.338666,-0.762 0.762,-0.762 h 57.799114 c 0.41981,0 0.762,0.34219 0.762,0.762 0,0.41981 -0.34219,0.762 -0.762,0.762"
       style="fill:#854adb;fill-opacity:1;fill-rule:nonzero;stroke:none;stroke-width:0.0352778"
       id="path6622" />
    <path
       d="m 81.758535,128.63713 c -0.508,0 -0.92075,0.41627 -0.92075,0.92075 0,0.508 0.41275,0.92427 0.92075,0.92427 0.508,0 0.92075,-0.41627 0.92075,-0.92427 0,-0.50448 -0.41275,-0.92075 -0.92075,-0.92075 z m 0,3.3655 c -1.347611,0 -2.44475,-1.09714 -2.44475,-2.44475 0,-1.34762 1.097139,-2.44123 2.44475,-2.44123 1.347611,0 2.44475,1.09361 2.44475,2.44123 0,1.34761 -1.097139,2.44475 -2.44475,2.44475"
       style="fill:#854adb;fill-opacity:1;fill-rule:nonzero;stroke:none;stroke-width:0.0352778"
       id="path6624" />
    <path
       d="m 87.59348,128.63713 c -0.508,0 -0.924278,0.41627 -0.924278,0.92075 0,0.508 0.416278,0.92427 0.924278,0.92427 0.508,0 0.92075,-0.41627 0.92075,-0.92427 0,-0.50448 -0.41275,-0.92075 -0.92075,-0.92075 z m 0,3.3655 c -1.347611,0 -2.44475,-1.09714 -2.44475,-2.44475 0,-1.34762 1.097139,-2.44123 2.44475,-2.44123 1.347611,0 2.441222,1.09361 2.441222,2.44123 0,1.34761 -1.093611,2.44475 -2.441222,2.44475"
       style="fill:#854adb;fill-opacity:1;fill-rule:nonzero;stroke:none;stroke-width:0.0352778"
       id="path6626" />
    <path
       d="m 93.650675,128.63713 c -0.511528,0 -0.92075,0.41627 -0.92075,0.92075 0,0.508 0.409222,0.92427 0.92075,0.92427 0.508,0 0.92075,-0.41627 0.92075,-0.92427 0,-0.50448 -0.41275,-0.92075 -0.92075,-0.92075 z m 0,3.3655 c -1.347611,0 -2.44475,-1.09714 -2.44475,-2.44475 0,-1.34762 1.097139,-2.44123 2.44475,-2.44123 1.347611,0 2.441222,1.09361 2.441222,2.44123 0,1.34761 -1.093611,2.44475 -2.441222,2.44475"
       style="fill:#854adb;fill-opacity:1;fill-rule:nonzero;stroke:none;stroke-width:0.0352778"
       id="path6628" />
    <path
       d="m 79.387868,156.99341 c -0.05292,0 -0.105833,-0.007 -0.15875,-0.0176 -0.41275,-0.0882 -0.673805,-0.49036 -0.585611,-0.90311 0.179917,-0.85725 0.610306,-2.54706 1.421695,-4.19806 0.465666,-0.9525 1.001889,-1.77095 1.591028,-2.43417 0.278694,-0.31397 0.762,-0.34219 1.075972,-0.0635 0.313972,0.2787 0.342194,0.762 0.05997,1.07597 -0.497416,0.56092 -0.956028,1.26295 -1.361722,2.09198 -0.737306,1.50636 -1.132417,3.05505 -1.298222,3.84528 -0.07761,0.3563 -0.391584,0.60325 -0.744362,0.60325"
       style="fill:#854adb;fill-opacity:1;fill-rule:nonzero;stroke:none;stroke-width:0.0352778"
       id="path6630" />
    <path
       d="m 92.871036,156.65827 c -0.342195,0 -0.652639,-0.22931 -0.737306,-0.57503 -0.328083,-1.30528 -1.305278,-4.52261 -3.284361,-6.19125 -0.321028,-0.27164 -0.363361,-0.75495 -0.09172,-1.07597 0.271639,-0.32103 0.751417,-0.35984 1.072444,-0.0882 2.236612,1.88736 3.326695,5.18584 3.778251,6.985 0.102305,0.40922 -0.144639,0.82197 -0.550334,0.92428 -0.0635,0.0141 -0.127,0.0212 -0.186972,0.0212"
       style="fill:#854adb;fill-opacity:1;fill-rule:nonzero;stroke:none;stroke-width:0.0352778"
       id="path6632" />
    <path
       d="m 86.051841,149.8179 c -2.264833,0 -4.007556,-2.44827 -4.674306,-4.72369 -0.116416,-0.40569 0.116417,-0.82903 0.518584,-0.94544 0.402166,-0.11642 0.8255,0.11288 0.945444,0.51858 0.518583,1.78505 1.862667,3.63008 3.210278,3.63008 1.647472,0 3.337278,-2.7693 3.439584,-4.91772 0.02117,-0.41981 0.377472,-0.74083 0.797277,-0.72319 0.419806,0.0212 0.744362,0.37747 0.723195,0.79727 -0.123472,2.53295 -2.162528,6.36411 -4.960056,6.36411"
       style="fill:#854adb;fill-opacity:1;fill-rule:nonzero;stroke:none;stroke-width:0.0352778"
       id="path6634" />
    <path
       d="m 86.182369,138.49727 c -2.465917,0 -4.473223,2.0073 -4.473223,4.47322 0,0.43039 0.05292,0.84314 0.116417,1.1818 1.675695,-0.254 4.138084,-1.18533 5.369278,-2.25777 0.34925,-0.30339 0.472722,-0.52212 0.515056,-0.62442 0.141111,-0.33161 0.497416,-0.51858 0.850194,-0.44803 0.352778,0.0706 0.606778,0.37747 0.613834,0.73731 0.0035,0.35983 -0.0035,0.71261 -0.02469,1.05127 -0.0071,0.12348 -0.01764,0.24342 -0.02822,0.35278 0.670278,-0.15522 1.245306,-0.37747 1.49225,-0.58561 -0.292806,-2.1978 -2.187222,-3.88055 -4.430889,-3.88055 z m -4.928306,7.24252 c -0.324556,0 -0.617361,-0.20814 -0.719667,-0.51858 -0.169333,-0.49389 -0.345722,-1.34761 -0.345722,-2.25072 0,-3.30553 2.688167,-5.99722 5.993695,-5.99722 3.129139,0 5.753806,2.44475 5.976056,5.56683 0.01058,0.13758 -0.01764,0.27517 -0.07761,0.39511 -0.649111,1.28764 -3.065639,1.63336 -3.788834,1.70744 -0.250472,0.0282 -0.497417,-0.0705 -0.659694,-0.26105 -0.162278,-0.1905 -0.22225,-0.44803 -0.155223,-0.69145 0,0 0.01058,-0.0423 0.02469,-0.12347 -1.788584,1.21003 -4.536723,2.08845 -6.208889,2.17311 -0.01411,0 -0.02822,0 -0.03881,0"
       style="fill:#854adb;fill-opacity:1;fill-rule:nonzero;stroke:none;stroke-width:0.0352778"
       id="path6636" />
    <path
       d="M 96.342369,156.98988 H 77.101868 c -0.423333,0 -0.762,-0.33867 -0.762,-0.75847 0,-0.41981 0.338667,-0.762 0.762,-0.762 h 18.478501 v -16.72167 c 0,-0.41981 0.342195,-0.75847 0.762,-0.75847 0.419806,0 0.762001,0.33866 0.762001,0.75847 v 17.48367 c 0,0.4198 -0.342195,0.75847 -0.762001,0.75847"
       style="fill:#854adb;fill-opacity:1;fill-rule:nonzero;stroke:none;stroke-width:0.0352778"
       id="path6638" />
    <path
       d="M 87.537036,161.06799 H 77.101868 c -0.423333,0 -0.762,-0.3422 -0.762,-0.762 0,-0.41981 0.338667,-0.762 0.762,-0.762 h 10.435168 c 0.419805,0 0.758472,0.34219 0.758472,0.762 0,0.4198 -0.338667,0.762 -0.758472,0.762"
       style="fill:#854adb;fill-opacity:1;fill-rule:nonzero;stroke:none;stroke-width:0.0352778"
       id="path6640" />
    <path
       d="M 87.537036,164.81449 H 77.101868 c -0.423333,0 -0.762,-0.33867 -0.762,-0.762 0,-0.41981 0.338667,-0.75847 0.762,-0.75847 h 10.435168 c 0.419805,0 0.758472,0.33866 0.758472,0.75847 0,0.42333 -0.338667,0.762 -0.758472,0.762"
       style="fill:#854adb;fill-opacity:1;fill-rule:nonzero;stroke:none;stroke-width:0.0352778"
       id="path6642" />
    <path
       d="m 87.441786,168.56452 h -10.43164 c -0.423333,0 -0.762,-0.3422 -0.762,-0.762 0,-0.41946 0.338667,-0.762 0.762,-0.762 h 10.43164 c 0.423333,0 0.762,0.34254 0.762,0.762 0,0.4198 -0.338667,0.762 -0.762,0.762"
       style="fill:#854adb;fill-opacity:1;fill-rule:nonzero;stroke:none;stroke-width:0.0352778"
       id="path6644" />
    <path
       d="m 122.75837,155.24363 c 0.74436,0 1.31586,0.39511 1.67217,0.64911 0.11289,0.0776 0.26811,0.18344 0.32808,0.20461 l 0.13406,0.0176 c 3.58069,0.47978 4.05341,-0.11642 4.07458,-0.14111 0.36689,-0.51153 0.54328,-0.92781 0.86078,-1.68628 0.10936,-0.26458 0.23283,-0.56092 0.38453,-0.90311 0.80786,-1.8415 1.08655,-2.94217 0.8255,-3.27731 -0.63148,-0.8008 -3.47134,-0.46919 -5.18937,0.007 -0.28222,0.0776 -0.57855,-0.007 -0.77258,-0.22578 -0.19403,-0.21519 -0.24694,-0.52211 -0.13758,-0.79022 0.36336,-0.91017 0.73025,-2.46239 0.40569,-3.0727 -0.1658,-0.31044 -0.41628,-0.45155 -0.64558,-0.51505 -0.10231,0.77611 -0.30339,2.03553 -0.60678,2.9598 -0.26811,0.82903 -0.70908,1.45345 -1.03011,1.83092 -0.27517,0.32103 -0.75494,0.35983 -1.07597,0.0882 -0.0459,-0.0388 -0.0847,-0.0811 -0.11642,-0.127 0,0.0176 0,0.0388 0,0.0564 0,0.4198 -0.33867,0.762 -0.762,0.762 h -2.08844 c -0.24695,0.44097 -0.64206,1.27353 -0.64206,2.12019 0,0.86784 0.4057,1.778 0.6597,2.26131 h 2.75519 c 0.34925,-0.15875 0.67028,-0.21872 0.96661,-0.21872 z m 4.49086,2.5788 c -0.71966,0 -1.56633,-0.067 -2.55764,-0.20108 l -0.15169,-0.0176 c -0.38806,-0.0494 -0.68792,-0.26105 -0.98072,-0.46567 -0.508,-0.3563 -0.75142,-0.50094 -1.2312,-0.24341 -0.11289,0.06 -0.23283,0.0882 -0.35983,0.0882 h -3.37608 c -0.25753,0 -0.50095,-0.13053 -0.63853,-0.34925 -0.0459,-0.0705 -1.09714,-1.72861 -1.09714,-3.43253 0,-1.72155 1.06892,-3.25614 1.11478,-3.31964 0.14111,-0.20461 0.37394,-0.32455 0.62089,-0.32455 h 2.5153 c 0.254,0 0.47625,0.12347 0.61383,0.31044 -0.0141,-0.19402 0.0423,-0.39158 0.17992,-0.55033 0.23283,-0.27517 0.55386,-0.72672 0.74436,-1.31939 0.40922,-1.24883 0.62089,-3.31964 0.62442,-3.33728 0.0317,-0.33514 0.28222,-0.60677 0.6103,-0.67027 0.6597,-0.13053 2.0955,-0.0212 2.81164,1.32291 0.45861,0.86431 0.31045,2.08492 0.0811,3.03036 1.69686,-0.32102 4.37798,-0.55386 5.461,0.82198 0.88548,1.12888 0.17639,3.00566 -0.62794,4.82952 -0.14464,0.33514 -0.26811,0.62442 -0.37395,0.88195 -0.32455,0.77611 -0.56091,1.33703 -1.03011,1.98967 -0.46566,0.64205 -1.40758,0.95602 -2.95275,0.95602"
       style="fill:#ffcf46;fill-opacity:1;fill-rule:nonzero;stroke:none;stroke-width:0.0352778"
       id="path6646" />
    <path
       d="m 121.60126,156.98282 c -0.41981,0 -0.75847,-0.33514 -0.762,-0.75494 l -0.0141,-2.794 c -0.004,-0.41981 0.33514,-0.76553 0.75494,-0.76906 h 0.004 c 0.41981,0 0.762,0.33867 0.762,0.75847 l 0.0176,2.794 c 0,0.41981 -0.33867,0.76553 -0.75847,0.76553 h -0.004"
       style="fill:#ffcf46;fill-opacity:1;fill-rule:nonzero;stroke:none;stroke-width:0.0352778"
       id="path6648" />
    <path
       d="m 124.75157,140.33877 c -6.43114,0 -11.66284,5.23169 -11.66284,11.66283 0,6.42761 5.2317,11.65931 11.66284,11.65931 6.42761,0 11.6593,-5.2317 11.6593,-11.65931 0,-6.43114 -5.23169,-11.66283 -11.6593,-11.66283 z m 0,24.84614 c -7.27075,0 -13.18684,-5.91609 -13.18684,-13.18331 0,-7.27075 5.91609,-13.18683 13.18684,-13.18683 7.26722,0 13.1833,5.91608 13.1833,13.18683 0,7.26722 -5.91608,13.18331 -13.1833,13.18331"
       style="fill:#854adb;fill-opacity:1;fill-rule:nonzero;stroke:none;stroke-width:0.0352778"
       id="path6650" />
    <path
       d="m 102.71001,146.99215 c -0.41981,0 -0.75847,-0.34219 -0.75847,-0.762 v -7.48241 c 0,-0.41981 0.33866,-0.75847 0.75847,-0.75847 0.42333,0 0.762,0.33866 0.762,0.75847 v 7.48241 c 0,0.41981 -0.33867,0.762 -0.762,0.762"
       style="fill:#ffcf46;fill-opacity:1;fill-rule:nonzero;stroke:none;stroke-width:0.0352778"
       id="path6652" />
    <path
       d="m 106.34009,143.25271 h -7.256637 c -0.419806,0 -0.762,-0.34219 -0.762,-0.762 0,-0.41981 0.342194,-0.762 0.762,-0.762 h 7.256637 c 0.41981,0 0.75847,0.34219 0.75847,0.762 0,0.41981 -0.33866,0.762 -0.75847,0.762"
       style="fill:#ffcf46;fill-opacity:1;fill-rule:nonzero;stroke:none;stroke-width:0.0352778"
       id="path6654" />
  </g>
</svg>
