<?xml version="1.0" encoding="UTF-8" standalone="no"?>
<!-- Created with Inkscape (http://www.inkscape.org/) -->

<svg
   width="68.517845mm"
   height="68.132469mm"
   viewBox="0 0 68.517845 68.132469"
   version="1.1"
   id="svg8952"
   inkscape:version="1.1 (c4e8f9ed74, 2021-05-24)"
   sodipodi:docname="customer-support1.svg"
   xmlns:inkscape="http://www.inkscape.org/namespaces/inkscape"
   xmlns:sodipodi="http://sodipodi.sourceforge.net/DTD/sodipodi-0.dtd"
   xmlns="http://www.w3.org/2000/svg"
   xmlns:svg="http://www.w3.org/2000/svg">
  <sodipodi:namedview
     id="namedview8954"
     pagecolor="#ffffff"
     bordercolor="#666666"
     borderopacity="1.0"
     inkscape:pageshadow="2"
     inkscape:pageopacity="0.0"
     inkscape:pagecheckerboard="0"
     inkscape:document-units="mm"
     showgrid="false"
     inkscape:zoom="0.45968013"
     inkscape:cx="-516.66361"
     inkscape:cy="166.42007"
     inkscape:window-width="1920"
     inkscape:window-height="1051"
     inkscape:window-x="1366"
     inkscape:window-y="0"
     inkscape:window-maximized="1"
     inkscape:current-layer="layer1" />
  <defs
     id="defs8949" />
  <g
     inkscape:label="Layer 1"
     inkscape:groupmode="layer"
     id="layer1"
     transform="translate(-57.184296,-104.75121)">
    <path
       d="m 101.71971,157.51972 c -0.23989,0 -0.47625,-0.0882 -0.66322,-0.26812 -0.48684,-0.47272 -0.98778,-0.90663 -1.492253,-1.29469 -0.52212,-0.40217 -1.05128,-0.75494 -1.56987,-1.05128 -1.92616,-1.09008 -4.68136,-1.92616 -6.87564,0.29634 -0.36688,0.37394 -0.97013,0.381 -1.34408,0.0106 -0.37394,-0.36689 -0.381,-0.97014 -0.0106,-1.34409 2.37066,-2.40594 5.6268,-2.62466 9.16869,-0.61736 0.5962,0.33867 1.199453,0.74083 1.792113,1.19592 0.56092,0.43391 1.11831,0.91722 1.65453,1.4358 0.37747,0.36689 0.38806,0.97014 0.0247,1.34761 -0.18698,0.19403 -0.43745,0.28928 -0.68439,0.28928"
       style="fill:#854adb;fill-opacity:1;fill-rule:nonzero;stroke:none;stroke-width:0.0352778"
       id="path2954" />
    <path
       d="m 105.89307,172.88319 c -7.665863,0 -14.216953,-5.87022 -16.298343,-9.97656 -0.23988,-0.46919 -0.0529,-1.04069 0.41628,-1.27705 0.4692,-0.23989 1.0407,-0.0529 1.28059,0.41627 1.99319,3.93348 8.36436,9.22867 15.169443,8.92176 6.17714,-0.27164 11.47586,-3.26673 13.83242,-7.81403 1.18533,-2.29306 1.53458,-4.75545 1.0548,-7.21431 -0.45155,2.26131 -1.64041,4.16278 -3.51013,5.51039 -3.4537,2.48708 -8.39612,2.51531 -12.30137,0.06 -0.4445,-0.27869 -0.58208,-0.8643 -0.29986,-1.3088 0.2787,-0.44803 0.86431,-0.58209 1.31234,-0.29987 3.20322,2.01084 7.39069,2.01084 10.17411,0.004 2.6035,-1.87677 3.51719,-5.04472 2.57175,-8.92175 -0.10936,-0.45155 0.12347,-0.91369 0.55033,-1.10066 0.42686,-0.17992 0.92428,-0.0282 1.17475,0.36336 2.85045,4.43441 3.20322,9.45797 0.96308,13.78303 -2.667,5.15055 -8.58308,8.54075 -15.43755,8.84061 -0.21872,0.0106 -0.43745,0.0141 -0.65264,0.0141"
       style="fill:#854adb;fill-opacity:1;fill-rule:nonzero;stroke:none;stroke-width:0.0352778"
       id="path2956" />
    <path
       d="m 74.989727,172.88319 c -0.21519,0 -0.43391,-0.004 -0.65264,-0.0141 -6.85447,-0.29986 -12.77055,-3.69006 -15.43755,-8.84061 -2.24014,-4.32506 -1.88736,-9.34861 0.96308,-13.78303 0.25047,-0.39158 0.74789,-0.54328 1.17475,-0.36336 0.42686,0.18697 0.6597,0.64911 0.55033,1.10066 -1.06538,4.37798 0.23989,7.85284 3.58776,9.53559 3.25966,1.64041 8.28322,1.22414 11.57816,-2.74461 2.98803,-3.59834 6.4382,-5.73617 9.46503,-5.8667 1.86267,-0.0811 3.556,0.59972 4.90008,1.96145 0.37042,0.37394 0.36689,0.97719 -0.0106,1.34408 -0.37394,0.37042 -0.97367,0.36336 -1.34408,-0.007 -0.97014,-0.98425 -2.13784,-1.45697 -3.46428,-1.397 -2.49061,0.10583 -5.43631,1.99672 -8.08214,5.18231 -3.92994,4.73075 -9.96597,5.207 -13.89944,3.22791 -2.59645,-1.30528 -4.23687,-3.51014 -4.7872,-6.2618 -0.47272,2.4518 -0.12347,4.91066 1.05833,7.19666 2.35656,4.54731 7.65528,7.54239 13.83242,7.81403 6.79803,0.31045 13.17625,-4.98828 15.17297,-8.92175 0.23637,-0.46919 0.80787,-0.65617 1.27706,-0.41628 0.46919,0.23636 0.65617,0.80786 0.41981,1.27706 -2.08492,4.10633 -8.63953,9.97655 -16.30187,9.97655"
       style="fill:#854adb;fill-opacity:1;fill-rule:nonzero;stroke:none;stroke-width:0.0352778"
       id="path2958" />
    <path
       d="m 108.47187,143.98716 c -0.0176,0 -0.0318,0 -0.0459,-0.004 -0.52564,-0.0247 -0.93133,-0.46919 -0.90664,-0.99483 l 0.60325,-12.68589 c 0.0247,-0.52564 0.47978,-0.92428 0.99484,-0.90664 0.52564,0.0247 0.9278,0.47272 0.90311,0.99483 l -0.59972,12.68942 c -0.0247,0.508 -0.4445,0.90664 -0.94898,0.90664"
       style="fill:#854adb;fill-opacity:1;fill-rule:nonzero;stroke:none;stroke-width:0.0352778"
       id="path2960" />
    <path
       d="m 74.347677,141.83874 c -0.50447,0 -0.92781,-0.39864 -0.94897,-0.91016 l -1.40759,-30.64934 c -0.0141,-0.29633 0.11289,-0.58561 0.3422,-0.77611 0.23283,-0.19403 5.88786,-4.75192 19.10997,-4.75192 13.222113,0 18.873613,4.55789 19.109973,4.75192 0.22931,0.1905 0.35631,0.47625 0.3422,0.77611 l -0.58561,12.99986 c -0.0212,0.52564 -0.47273,0.92781 -0.99131,0.90664 -0.52564,-0.0212 -0.93133,-0.46919 -0.91017,-0.9913 l 0.56445,-12.48481 c -1.40406,-0.93486 -6.8827,-4.05695 -17.529533,-4.05695 -10.63978,0 -16.12195,3.11856 -17.52953,4.05695 l 1.38642,30.13075 c 0.0212,0.52564 -0.38453,0.97014 -0.91017,0.99483 -0.0141,0 -0.0282,0.004 -0.0423,0.004"
       style="fill:#854adb;fill-opacity:1;fill-rule:nonzero;stroke:none;stroke-width:0.0352778"
       id="path2962" />
    <path
       d="m 91.443287,145.11958 c -16.53117,0 -33.32339,-3.26673 -33.49272,-3.29848 -0.51506,-0.1023 -0.8502,-0.60325 -0.74789,-1.1183 0.0988,-0.51506 0.59972,-0.85372 1.11477,-0.75142 0.16581,0.0317 16.78517,3.26672 33.12584,3.26672 16.337143,0 32.956503,-3.23497 33.122313,-3.26672 0.51153,-0.0988 1.016,0.23636 1.1183,0.75142 0.10231,0.51505 -0.23636,1.016 -0.75141,1.1183 -0.16581,0.0317 -16.95803,3.29848 -33.489203,3.29848"
       style="fill:#854adb;fill-opacity:1;fill-rule:nonzero;stroke:none;stroke-width:0.0352778"
       id="path2964" />
    <path
       d="m 80.549507,139.1788 c -0.50447,0 -0.92428,-0.39511 -0.94897,-0.90664 l -1.25236,-25.17422 c -0.0247,-0.52564 0.37747,-0.97014 0.90311,-0.99837 0.52564,-0.0212 0.97367,0.37748 0.99836,0.90312 l 1.24883,25.17775 c 0.0282,0.52211 -0.37747,0.97014 -0.90311,0.99483 -0.0141,0.003 -0.0318,0.003 -0.0459,0.003"
       style="fill:#ffcf46;fill-opacity:1;fill-rule:nonzero;stroke:none;stroke-width:0.0352778"
       id="path2966" />
  </g>
</svg>
