<?xml version="1.0" encoding="UTF-8" standalone="no"?>
<!-- Created with Inkscape (http://www.inkscape.org/) -->

<svg
   width="66.419556mm"
   height="55.259121mm"
   viewBox="0 0 66.419556 55.259121"
   version="1.1"
   id="svg8964"
   inkscape:version="1.1 (c4e8f9ed74, 2021-05-24)"
   sodipodi:docname="employee-studing.svg"
   xmlns:inkscape="http://www.inkscape.org/namespaces/inkscape"
   xmlns:sodipodi="http://sodipodi.sourceforge.net/DTD/sodipodi-0.dtd"
   xmlns="http://www.w3.org/2000/svg"
   xmlns:svg="http://www.w3.org/2000/svg">
  <sodipodi:namedview
     id="namedview8966"
     pagecolor="#ffffff"
     bordercolor="#666666"
     borderopacity="1.0"
     inkscape:pageshadow="2"
     inkscape:pageopacity="0.0"
     inkscape:pagecheckerboard="0"
     inkscape:document-units="mm"
     showgrid="false"
     inkscape:zoom="0.79311236"
     inkscape:cx="-199.84558"
     inkscape:cy="63.673197"
     inkscape:window-width="1920"
     inkscape:window-height="1051"
     inkscape:window-x="1366"
     inkscape:window-y="0"
     inkscape:window-maximized="1"
     inkscape:current-layer="layer1" />
  <defs
     id="defs8961" />
  <g
     inkscape:label="Layer 1"
     inkscape:groupmode="layer"
     id="layer1"
     transform="translate(-53.703053,-131.80649)">
    <path
       d="M 116.23499,179.92538 H 88.728909 c -0.423333,0 -0.762,-0.33866 -0.762,-0.75812 0,-0.42015 0.338667,-0.76235 0.762,-0.76235 h 27.506081 c 1.30528,0 2.36714,-1.06186 2.36714,-2.36714 v -2.49061 c 0,-0.41981 0.33867,-0.762 0.762,-0.762 0.41981,0 0.75848,0.34219 0.75848,0.762 v 2.49061 c 0,2.14489 -1.74273,3.88761 -3.88762,3.88761"
       style="fill:#854adb;fill-opacity:1;fill-rule:nonzero;stroke:none;stroke-width:0.0352778"
       id="path6694" />
    <path
       d="m 119.36413,174.30563 c -0.42333,0 -0.762,-0.33866 -0.762,-0.75847 v -37.84953 c 0,-1.30528 -1.06186,-2.36714 -2.36714,-2.36714 H 64.69063 c -1.305278,0 -2.367139,1.06186 -2.367139,2.36714 v 11.29947 c 0,0.41981 -0.342194,0.75848 -0.762,0.75848 -0.419806,0 -0.762,-0.33867 -0.762,-0.75848 v -11.29947 c 0,-2.14489 1.74625,-3.89114 3.891139,-3.89114 h 51.54436 c 2.14489,0 3.88762,1.74625 3.88762,3.89114 v 37.84953 c 0,0.41981 -0.33867,0.75847 -0.75848,0.75847"
       style="fill:#854adb;fill-opacity:1;fill-rule:nonzero;stroke:none;stroke-width:0.0352778"
       id="path6696" />
    <path
       d="M 119.36413,141.55374 H 61.561491 c -0.419806,0 -0.762,-0.34219 -0.762,-0.762 0,-0.4198 0.342194,-0.762 0.762,-0.762 h 57.802639 c 0.41981,0 0.75848,0.3422 0.75848,0.762 0,0.41981 -0.33867,0.762 -0.75848,0.762"
       style="fill:#854adb;fill-opacity:1;fill-rule:nonzero;stroke:none;stroke-width:0.0352778"
       id="path6698" />
    <path
       d="m 70.409158,135.7188 c -0.508,0 -0.92075,0.41275 -0.92075,0.92075 0,0.508 0.41275,0.92075 0.92075,0.92075 0.508,0 0.92075,-0.41275 0.92075,-0.92075 0,-0.508 -0.41275,-0.92075 -0.92075,-0.92075 z m 0,3.3655 c -1.347611,0 -2.44475,-1.09714 -2.44475,-2.44475 0,-1.34761 1.097139,-2.44123 2.44475,-2.44123 1.347611,0 2.44475,1.09362 2.44475,2.44123 0,1.34761 -1.097139,2.44475 -2.44475,2.44475"
       style="fill:#854adb;fill-opacity:1;fill-rule:nonzero;stroke:none;stroke-width:0.0352778"
       id="path6700" />
    <path
       d="m 76.240575,135.7188 c -0.508,0 -0.92075,0.41275 -0.92075,0.92075 0,0.508 0.41275,0.92075 0.92075,0.92075 0.508,0 0.92075,-0.41275 0.92075,-0.92075 0,-0.508 -0.41275,-0.92075 -0.92075,-0.92075 z m 0,3.3655 c -1.347611,0 -2.44475,-1.09714 -2.44475,-2.44475 0,-1.34761 1.097139,-2.44123 2.44475,-2.44123 1.347611,0 2.44475,1.09362 2.44475,2.44123 0,1.34761 -1.097139,2.44475 -2.44475,2.44475"
       style="fill:#854adb;fill-opacity:1;fill-rule:nonzero;stroke:none;stroke-width:0.0352778"
       id="path6702" />
    <path
       d="m 82.29777,135.7188 c -0.508,0 -0.92075,0.41275 -0.92075,0.92075 0,0.508 0.41275,0.92075 0.92075,0.92075 0.508,0 0.92075,-0.41275 0.92075,-0.92075 0,-0.508 -0.41275,-0.92075 -0.92075,-0.92075 z m 0,3.3655 c -1.347611,0 -2.441222,-1.09714 -2.441222,-2.44475 0,-1.34761 1.093611,-2.44123 2.441222,-2.44123 1.347611,0 2.44475,1.09362 2.44475,2.44123 0,1.34761 -1.097139,2.44475 -2.44475,2.44475"
       style="fill:#854adb;fill-opacity:1;fill-rule:nonzero;stroke:none;stroke-width:0.0352778"
       id="path6704" />
    <path
       d="m 97.74591,162.55108 h 15.95614 l 0.0741,-15.95967 H 97.74591 Z m 16.71461,1.52047 H 96.98391 c -0.419806,0 -0.758472,-0.33867 -0.758472,-0.75847 v -17.48367 c 0,-0.41981 0.338666,-0.762 0.758472,-0.762 h 17.55775 c 0.20461,0 0.39864,0.0811 0.53975,0.22578 0.14464,0.14111 0.22225,0.33866 0.22225,0.53975 l -0.0847,17.48366 c 0,0.41628 -0.34219,0.75495 -0.75847,0.75495"
       style="fill:#854adb;fill-opacity:1;fill-rule:nonzero;stroke:none;stroke-width:0.0352778"
       id="path6706" />
    <path
       d="m 114.46052,168.14613 h -9.47914 c -0.4198,0 -0.762,-0.33866 -0.762,-0.75847 0,-0.41981 0.3422,-0.762 0.762,-0.762 h 9.47914 c 0.41628,0 0.75847,0.34219 0.75847,0.762 0,0.41981 -0.34219,0.75847 -0.75847,0.75847"
       style="fill:#ffcf46;fill-opacity:1;fill-rule:nonzero;stroke:none;stroke-width:0.0352778"
       id="path6708" />
    <path
       d="m 114.46052,171.89616 h -9.47914 c -0.4198,0 -0.762,-0.34219 -0.762,-0.762 0,-0.41981 0.3422,-0.762 0.762,-0.762 h 9.47914 c 0.41628,0 0.75847,0.34219 0.75847,0.762 0,0.41981 -0.34219,0.762 -0.75847,0.762"
       style="fill:#ffcf46;fill-opacity:1;fill-rule:nonzero;stroke:none;stroke-width:0.0352778"
       id="path6710" />
    <path
       d="m 114.54166,175.64266 h -9.47561 c -0.41981,0 -0.762,-0.33867 -0.762,-0.75847 0,-0.41981 0.34219,-0.762 0.762,-0.762 h 9.47561 c 0.41981,0 0.762,0.34219 0.762,0.762 0,0.4198 -0.34219,0.75847 -0.762,0.75847"
       style="fill:#ffcf46;fill-opacity:1;fill-rule:nonzero;stroke:none;stroke-width:0.0352778"
       id="path6712" />
    <path
       d="m 73.390131,148.88799 c -2.039056,0 -3.697112,1.65806 -3.697112,3.69711 0,2.22603 1.792112,5.10117 3.697112,5.10117 1.905,0 3.697111,-2.87514 3.697111,-5.10117 0,-2.03905 -1.658056,-3.69711 -3.697111,-3.69711 z m 0,10.31875 c -3.030362,0 -5.221112,-3.95464 -5.221112,-6.62164 0,-2.87866 2.342445,-5.22111 5.221112,-5.22111 2.878666,0 5.221111,2.34245 5.221111,5.22111 0,2.667 -2.19075,6.62164 -5.221111,6.62164"
       style="fill:#854adb;fill-opacity:1;fill-rule:nonzero;stroke:none;stroke-width:0.0352778"
       id="path6714" />
    <path
       d="m 79.570798,174.01988 h -2.335389 c -0.419806,0 -0.762,-0.34219 -0.762,-0.76164 0,-0.42016 0.342194,-0.76236 0.762,-0.76236 h 1.629833 l 0.758472,-10.04358 c -0.758472,-0.41981 -2.804583,-1.34056 -6.233583,-1.34056 -3.421945,0 -5.475112,0.91723 -6.233584,1.34056 l 0.758472,10.04358 h 1.629834 c 0.419805,0 0.762,0.3422 0.762,0.76236 0,0.41945 -0.342195,0.76164 -0.762,0.76164 h -2.335389 c -0.398639,0 -0.726723,-0.30691 -0.758473,-0.70555 l -0.846666,-11.20775 c -0.02117,-0.26106 0.09172,-0.508 0.299861,-0.66675 0.09878,-0.0741 2.50825,-1.84856 7.485945,-1.84856 4.981222,0 7.387167,1.77447 7.485945,1.84856 0.208138,0.15875 0.321027,0.40569 0.299861,0.66675 l -0.846667,11.20775 c -0.03175,0.39864 -0.359833,0.70555 -0.758472,0.70555"
       style="fill:#854adb;fill-opacity:1;fill-rule:nonzero;stroke:none;stroke-width:0.0352778"
       id="path6716" />
    <path
       d="m 75.82077,187.06561 h -4.861278 c -0.391584,0 -0.716139,-0.29281 -0.758473,-0.68087 L 68.78638,173.33902 c -0.04586,-0.41628 0.257528,-0.79375 0.673806,-0.83926 0.419806,-0.0462 0.79375,0.25718 0.839611,0.67698 l 1.340556,12.36487 h 3.499556 l 1.340555,-12.36487 c 0.04586,-0.4198 0.419806,-0.71966 0.839611,-0.67698 0.416278,0.0455 0.719667,0.42298 0.673806,0.83926 l -1.414639,13.04572 c -0.04233,0.38806 -0.366889,0.68087 -0.758472,0.68087"
       style="fill:#854adb;fill-opacity:1;fill-rule:nonzero;stroke:none;stroke-width:0.0352778"
       id="path6718" />
    <path
       d="m 85.896104,152.61685 c -1.799167,0 -3.263195,1.4605 -3.263195,3.25967 0,1.93675 1.612195,4.52967 3.263195,4.52967 1.647472,0 3.263194,-2.59292 3.263194,-4.52967 0,-1.79917 -1.464028,-3.25967 -3.263194,-3.25967 z m 0,9.31334 c -2.652889,0 -4.787195,-3.31259 -4.787195,-6.05367 0,-2.63525 2.148417,-4.78367 4.787195,-4.78367 2.638778,0 4.783667,2.14842 4.783667,4.78367 0,2.74108 -2.134306,6.05367 -4.783667,6.05367"
       style="fill:#854adb;fill-opacity:1;fill-rule:nonzero;stroke:none;stroke-width:0.0352778"
       id="path6720" />
    <path
       d="m 91.469993,175.29341 h -2.106084 c -0.419805,0 -0.758472,-0.34219 -0.758472,-0.762 0,-0.41981 0.338667,-0.762 0.758472,-0.762 h 1.400528 l 0.670278,-8.83708 c -1.121833,-0.40217 -3.792361,-1.28411 -5.538611,-1.28411 -2.257778,0 -5.334001,1.143 -5.365751,1.15358 -0.391583,0.14464 -0.832555,-0.0529 -0.977194,-0.44803 -0.148167,-0.39158 0.04939,-0.83255 0.4445,-0.97719 0.137583,-0.0529 3.369028,-1.25236 5.898445,-1.25236 2.532944,0 6.452306,1.52047 6.618111,1.58397 0.310445,0.12347 0.508,0.43391 0.483306,0.76553 l -0.765528,10.11766 c -0.03175,0.39511 -0.363361,0.70203 -0.762,0.70203"
       style="fill:#854adb;fill-opacity:1;fill-rule:nonzero;stroke:none;stroke-width:0.0352778"
       id="path6722" />
    <path
       d="m 88.090382,185.62274 c -0.03175,0 -0.0635,-0.004 -0.09525,-0.007 -0.416278,-0.0494 -0.712612,-0.43039 -0.659695,-0.84667 l 1.273528,-10.32898 c 0.05292,-0.42016 0.433917,-0.71649 0.850194,-0.66357 0.416278,0.0529 0.712612,0.43038 0.663223,0.85019 l -1.277056,10.32581 c -0.04939,0.3884 -0.377472,0.67027 -0.754944,0.67027"
       style="fill:#854adb;fill-opacity:1;fill-rule:nonzero;stroke:none;stroke-width:0.0352778"
       id="path6724" />
    <path
       d="m 60.806547,152.61685 c -1.799167,0 -3.263195,1.4605 -3.263195,3.25967 0,1.93675 1.612194,4.52967 3.263195,4.52967 1.651,0 3.263194,-2.59292 3.263194,-4.52967 0,-1.79917 -1.464028,-3.25967 -3.263194,-3.25967 z m 0,9.31334 c -2.649362,0 -4.783667,-3.31259 -4.783667,-6.05367 0,-2.63525 2.144889,-4.78367 4.783667,-4.78367 2.638777,0 4.787194,2.14842 4.787194,4.78367 0,2.74108 -2.134305,6.05367 -4.787194,6.05367"
       style="fill:#854adb;fill-opacity:1;fill-rule:nonzero;stroke:none;stroke-width:0.0352778"
       id="path6726" />
    <path
       d="m 57.338741,175.29341 h -2.106084 c -0.398639,0 -0.73025,-0.30692 -0.758472,-0.70203 l -0.769056,-10.11766 c -0.02469,-0.33162 0.172862,-0.64206 0.483306,-0.76553 0.165806,-0.0635 4.085167,-1.58397 6.618112,-1.58397 2.54,0 5.859639,1.31938 6.00075,1.37583 0.391583,0.15522 0.582083,0.59619 0.423333,0.98778 -0.155222,0.39158 -0.596194,0.57855 -0.987778,0.42333 -0.03175,-0.0141 -3.192639,-1.26294 -5.436305,-1.26294 -1.749778,0 -4.416779,0.88194 -5.538612,1.28411 l 0.670278,8.83708 h 1.400528 c 0.419805,0 0.758472,0.34219 0.758472,0.762 0,0.41981 -0.338667,0.762 -0.758472,0.762"
       style="fill:#854adb;fill-opacity:1;fill-rule:nonzero;stroke:none;stroke-width:0.0352778"
       id="path6728" />
    <path
       d="m 58.612269,185.62274 c -0.377473,0 -0.709084,-0.28187 -0.754945,-0.67027 l -1.277056,-10.32581 c -0.04939,-0.41981 0.246945,-0.79728 0.663223,-0.85019 0.419805,-0.0529 0.797278,0.24341 0.850194,0.66357 l 1.273528,10.32898 c 0.05292,0.41628 -0.243417,0.79728 -0.659694,0.84667 -0.03175,0.004 -0.0635,0.007 -0.09525,0.007"
       style="fill:#854adb;fill-opacity:1;fill-rule:nonzero;stroke:none;stroke-width:0.0352778"
       id="path6730" />
  </g>
</svg>
