<?xml version="1.0" encoding="UTF-8" standalone="no"?>
<!-- Created with Inkscape (http://www.inkscape.org/) -->

<svg
   width="67.467445mm"
   height="52.937832mm"
   viewBox="0 0 67.467445 52.937832"
   version="1.1"
   id="svg10462"
   inkscape:version="1.1 (c4e8f9ed74, 2021-05-24)"
   sodipodi:docname="emloyees-kpi.svg"
   xmlns:inkscape="http://www.inkscape.org/namespaces/inkscape"
   xmlns:sodipodi="http://sodipodi.sourceforge.net/DTD/sodipodi-0.dtd"
   xmlns="http://www.w3.org/2000/svg"
   xmlns:svg="http://www.w3.org/2000/svg">
  <sodipodi:namedview
     id="namedview10464"
     pagecolor="#ffffff"
     bordercolor="#666666"
     borderopacity="1.0"
     inkscape:pageshadow="2"
     inkscape:pageopacity="0.0"
     inkscape:pagecheckerboard="0"
     inkscape:document-units="mm"
     showgrid="false"
     inkscape:zoom="0.45968013"
     inkscape:cx="-240.38454"
     inkscape:cy="177.2972"
     inkscape:window-width="1920"
     inkscape:window-height="1051"
     inkscape:window-x="1366"
     inkscape:window-y="0"
     inkscape:window-maximized="1"
     inkscape:current-layer="layer1" />
  <defs
     id="defs10459" />
  <g
     inkscape:label="Layer 1"
     inkscape:groupmode="layer"
     id="layer1"
     transform="translate(-64.690685,-101.88574)">
    <path
       d="M 119.70286,150.09282 H 89.776714 c -0.419805,0 -0.762,-0.34219 -0.762,-0.762 0,-0.4198 0.342195,-0.75847 0.762,-0.75847 h 29.926146 c 1.61572,0 2.93158,-1.31586 2.93158,-2.93476 v -32.68486 c 0,-0.42016 0.34219,-0.75883 0.762,-0.75883 0.4198,0 0.762,0.33867 0.762,0.75883 v 32.68486 c 0,2.45851 -2.00025,4.45523 -4.45558,4.45523"
       style="fill:#854adb;fill-opacity:1;fill-rule:nonzero;stroke:none;stroke-width:0.0352778"
       id="path6472" />
    <path
       d="M 85.871464,150.09282 H 69.146269 c -2.455334,0 -4.455584,-1.99672 -4.455584,-4.45523 v -39.29627 c 0,-2.45533 2.00025,-4.45558 4.455584,-4.45558 h 50.556591 c 2.45533,0 4.45558,2.00025 4.45558,4.45558 0,0.42333 -0.3422,0.762 -0.762,0.762 -0.41981,0 -0.762,-0.33867 -0.762,-0.762 0,-1.61572 -1.31586,-2.93158 -2.93158,-2.93158 H 69.146269 c -1.615723,0 -2.931584,1.31586 -2.931584,2.93158 v 39.29627 c 0,1.6189 1.315861,2.93476 2.931584,2.93476 h 16.725195 c 0.419806,0 0.758472,0.33867 0.758472,0.75847 0,0.41981 -0.338666,0.762 -0.758472,0.762"
       style="fill:#854adb;fill-opacity:1;fill-rule:nonzero;stroke:none;stroke-width:0.0352778"
       id="path6474" />
    <path
       d="m 92.948187,153.29957 h 2.95275 v -3.20675 h -2.95275 z m 3.71475,1.524 h -4.47675 c -0.419806,0 -0.762,-0.34219 -0.762,-0.762 v -4.73075 c 0,-0.4198 0.342194,-0.75847 0.762,-0.75847 h 4.47675 c 0.419805,0 0.762,0.33867 0.762,0.75847 v 4.73075 c 0,0.41981 -0.342195,0.762 -0.762,0.762"
       style="fill:#854adb;fill-opacity:1;fill-rule:nonzero;stroke:none;stroke-width:0.0352778"
       id="path6476" />
    <path
       d="M 107.65902,154.82357 H 81.190103 c -0.419806,0 -0.762,-0.34219 -0.762,-0.762 0,-0.4198 0.342194,-0.762 0.762,-0.762 h 26.468917 c 0.41981,0 0.762,0.3422 0.762,0.762 0,0.41981 -0.34219,0.762 -0.762,0.762"
       style="fill:#854adb;fill-opacity:1;fill-rule:nonzero;stroke:none;stroke-width:0.0352778"
       id="path6478" />
    <path
       d="m 70.165796,111.69296 h 5.746751 v -4.31094 h -5.746751 z m 5.937251,0.381 h -6.127751 c -0.102305,0 -0.1905,-0.0847 -0.1905,-0.1905 v -4.69194 c 0,-0.10584 0.08819,-0.1905 0.1905,-0.1905 h 6.127751 c 0.105833,0 0.1905,0.0847 0.1905,0.1905 v 4.69194 c 0,0.10583 -0.08467,0.1905 -0.1905,0.1905"
       style="fill:#854adb;fill-opacity:1;fill-rule:nonzero;stroke:none;stroke-width:0.0352778"
       id="path6480" />
    <path
       d="m 70.165796,116.38138 h 5.746751 v -4.30742 h -5.746751 z m 5.937251,0.381 h -6.127751 c -0.102305,0 -0.1905,-0.0847 -0.1905,-0.1905 v -4.68842 c 0,-0.10583 0.08819,-0.1905 0.1905,-0.1905 h 6.127751 c 0.105833,0 0.1905,0.0847 0.1905,0.1905 v 4.68842 c 0,0.10583 -0.08467,0.1905 -0.1905,0.1905"
       style="fill:#854adb;fill-opacity:1;fill-rule:nonzero;stroke:none;stroke-width:0.0352778"
       id="path6482" />
    <path
       d="m 70.165796,121.06979 h 5.746751 v -4.30741 h -5.746751 z m 5.937251,0.381 h -6.127751 c -0.102305,0 -0.1905,-0.0847 -0.1905,-0.1905 v -4.68841 c 0,-0.10584 0.08819,-0.1905 0.1905,-0.1905 h 6.127751 c 0.105833,0 0.1905,0.0847 0.1905,0.1905 v 4.68841 c 0,0.10584 -0.08467,0.1905 -0.1905,0.1905"
       style="fill:#854adb;fill-opacity:1;fill-rule:nonzero;stroke:none;stroke-width:0.0352778"
       id="path6484" />
    <path
       d="m 70.165796,125.76174 h 5.746751 v -4.31095 h -5.746751 z m 5.937251,0.37747 h -6.127751 c -0.102305,0 -0.1905,-0.0847 -0.1905,-0.18697 v -4.69195 c 0,-0.10548 0.08819,-0.1905 0.1905,-0.1905 h 6.127751 c 0.105833,0 0.1905,0.085 0.1905,0.1905 v 4.69195 c 0,0.1023 -0.08467,0.18697 -0.1905,0.18697"
       style="fill:#854adb;fill-opacity:1;fill-rule:nonzero;stroke:none;stroke-width:0.0352778"
       id="path6486" />
    <path
       d="m 70.165796,130.45016 h 5.746751 v -4.31095 h -5.746751 z m 5.937251,0.381 h -6.127751 c -0.102305,0 -0.1905,-0.0847 -0.1905,-0.1905 v -4.68842 c 0,-0.10583 0.08819,-0.1905 0.1905,-0.1905 h 6.127751 c 0.105833,0 0.1905,0.0847 0.1905,0.1905 v 4.68842 c 0,0.10583 -0.08467,0.1905 -0.1905,0.1905"
       style="fill:#854adb;fill-opacity:1;fill-rule:nonzero;stroke:none;stroke-width:0.0352778"
       id="path6488" />
    <path
       d="m 70.165796,135.13857 h 5.746751 v -4.30741 h -5.746751 z m 5.937251,0.381 h -6.127751 c -0.102305,0 -0.1905,-0.0847 -0.1905,-0.1905 v -4.68841 c 0,-0.10584 0.08819,-0.1905 0.1905,-0.1905 h 6.127751 c 0.105833,0 0.1905,0.0847 0.1905,0.1905 v 4.68841 c 0,0.10584 -0.08467,0.1905 -0.1905,0.1905"
       style="fill:#854adb;fill-opacity:1;fill-rule:nonzero;stroke:none;stroke-width:0.0352778"
       id="path6490" />
    <path
       d="m 70.165796,139.82699 h 5.746751 v -4.30742 h -5.746751 z m 5.937251,0.381 h -6.127751 c -0.102305,0 -0.1905,-0.0847 -0.1905,-0.1905 v -4.68842 c 0,-0.10583 0.08819,-0.1905 0.1905,-0.1905 h 6.127751 c 0.105833,0 0.1905,0.0847 0.1905,0.1905 v 4.68842 c 0,0.10583 -0.08467,0.1905 -0.1905,0.1905"
       style="fill:#854adb;fill-opacity:1;fill-rule:nonzero;stroke:none;stroke-width:0.0352778"
       id="path6492" />
    <path
       d="m 70.165796,144.51893 h 5.746751 v -4.31094 h -5.746751 z m 5.937251,0.37748 h -6.127751 c -0.102305,0 -0.1905,-0.0847 -0.1905,-0.18698 v -4.69194 c 0,-0.10583 0.08819,-0.1905 0.1905,-0.1905 h 6.127751 c 0.105833,0 0.1905,0.0847 0.1905,0.1905 v 4.69194 c 0,0.10231 -0.08467,0.18698 -0.1905,0.18698"
       style="fill:#854adb;fill-opacity:1;fill-rule:nonzero;stroke:none;stroke-width:0.0352778"
       id="path6494" />
    <path
       d="m 76.293547,111.69296 h 5.743222 v -4.31094 h -5.743222 z m 5.933722,0.381 h -6.124222 c -0.105834,0 -0.1905,-0.0847 -0.1905,-0.1905 v -4.69194 c 0,-0.10584 0.08467,-0.1905 0.1905,-0.1905 h 6.124222 c 0.105834,0 0.1905,0.0847 0.1905,0.1905 v 4.69194 c 0,0.10583 -0.08467,0.1905 -0.1905,0.1905"
       style="fill:#854adb;fill-opacity:1;fill-rule:nonzero;stroke:none;stroke-width:0.0352778"
       id="path6496" />
    <path
       d="m 76.293547,116.38138 h 5.743222 v -4.30742 h -5.743222 z m 5.933722,0.381 h -6.124222 c -0.105834,0 -0.1905,-0.0847 -0.1905,-0.1905 v -4.68842 c 0,-0.10583 0.08467,-0.1905 0.1905,-0.1905 h 6.124222 c 0.105834,0 0.1905,0.0847 0.1905,0.1905 v 4.68842 c 0,0.10583 -0.08467,0.1905 -0.1905,0.1905"
       style="fill:#854adb;fill-opacity:1;fill-rule:nonzero;stroke:none;stroke-width:0.0352778"
       id="path6498" />
    <path
       d="m 76.293547,121.06979 h 5.743222 v -4.30741 h -5.743222 z m 5.933722,0.381 h -6.124222 c -0.105834,0 -0.1905,-0.0847 -0.1905,-0.1905 v -4.68841 c 0,-0.10584 0.08467,-0.1905 0.1905,-0.1905 h 6.124222 c 0.105834,0 0.1905,0.0847 0.1905,0.1905 v 4.68841 c 0,0.10584 -0.08467,0.1905 -0.1905,0.1905"
       style="fill:#854adb;fill-opacity:1;fill-rule:nonzero;stroke:none;stroke-width:0.0352778"
       id="path6500" />
    <path
       d="m 76.293547,125.76174 h 5.743222 v -4.31095 h -5.743222 z m 5.933722,0.37747 h -6.124222 c -0.105834,0 -0.1905,-0.0847 -0.1905,-0.18697 v -4.69195 c 0,-0.10548 0.08467,-0.1905 0.1905,-0.1905 h 6.124222 c 0.105834,0 0.1905,0.085 0.1905,0.1905 v 4.69195 c 0,0.1023 -0.08467,0.18697 -0.1905,0.18697"
       style="fill:#854adb;fill-opacity:1;fill-rule:nonzero;stroke:none;stroke-width:0.0352778"
       id="path6502" />
    <path
       d="m 76.293547,130.45016 h 5.743222 v -4.31095 h -5.743222 z m 5.933722,0.381 h -6.124222 c -0.105834,0 -0.1905,-0.0847 -0.1905,-0.1905 v -4.68842 c 0,-0.10583 0.08467,-0.1905 0.1905,-0.1905 h 6.124222 c 0.105834,0 0.1905,0.0847 0.1905,0.1905 v 4.68842 c 0,0.10583 -0.08467,0.1905 -0.1905,0.1905"
       style="fill:#854adb;fill-opacity:1;fill-rule:nonzero;stroke:none;stroke-width:0.0352778"
       id="path6504" />
    <path
       d="m 76.293547,135.13857 h 5.743222 v -4.30741 h -5.743222 z m 5.933722,0.381 h -6.124222 c -0.105834,0 -0.1905,-0.0847 -0.1905,-0.1905 v -4.68841 c 0,-0.10584 0.08467,-0.1905 0.1905,-0.1905 h 6.124222 c 0.105834,0 0.1905,0.0847 0.1905,0.1905 v 4.68841 c 0,0.10584 -0.08467,0.1905 -0.1905,0.1905"
       style="fill:#854adb;fill-opacity:1;fill-rule:nonzero;stroke:none;stroke-width:0.0352778"
       id="path6506" />
    <path
       d="m 76.293547,139.82699 h 5.743222 v -4.30742 h -5.743222 z m 5.933722,0.381 h -6.124222 c -0.105834,0 -0.1905,-0.0847 -0.1905,-0.1905 v -4.68842 c 0,-0.10583 0.08467,-0.1905 0.1905,-0.1905 h 6.124222 c 0.105834,0 0.1905,0.0847 0.1905,0.1905 v 4.68842 c 0,0.10583 -0.08467,0.1905 -0.1905,0.1905"
       style="fill:#854adb;fill-opacity:1;fill-rule:nonzero;stroke:none;stroke-width:0.0352778"
       id="path6508" />
    <path
       d="m 76.293547,144.51893 h 5.743222 v -4.31094 h -5.743222 z m 5.933722,0.37748 h -6.124222 c -0.105834,0 -0.1905,-0.0847 -0.1905,-0.18698 v -4.69194 c 0,-0.10583 0.08467,-0.1905 0.1905,-0.1905 h 6.124222 c 0.105834,0 0.1905,0.0847 0.1905,0.1905 v 4.69194 c 0,0.10231 -0.08467,0.18698 -0.1905,0.18698"
       style="fill:#854adb;fill-opacity:1;fill-rule:nonzero;stroke:none;stroke-width:0.0352778"
       id="path6510" />
    <path
       d="m 82.417769,111.69296 h 5.746751 v -4.31094 h -5.746751 z m 5.937251,0.381 h -6.127751 c -0.105833,0 -0.1905,-0.0847 -0.1905,-0.1905 v -4.69194 c 0,-0.10584 0.08467,-0.1905 0.1905,-0.1905 h 6.127751 c 0.105833,0 0.1905,0.0847 0.1905,0.1905 v 4.69194 c 0,0.10583 -0.08467,0.1905 -0.1905,0.1905"
       style="fill:#854adb;fill-opacity:1;fill-rule:nonzero;stroke:none;stroke-width:0.0352778"
       id="path6512" />
    <path
       d="m 82.417769,116.38138 h 5.746751 v -4.30742 h -5.746751 z m 5.937251,0.381 h -6.127751 c -0.105833,0 -0.1905,-0.0847 -0.1905,-0.1905 v -4.68842 c 0,-0.10583 0.08467,-0.1905 0.1905,-0.1905 h 6.127751 c 0.105833,0 0.1905,0.0847 0.1905,0.1905 v 4.68842 c 0,0.10583 -0.08467,0.1905 -0.1905,0.1905"
       style="fill:#854adb;fill-opacity:1;fill-rule:nonzero;stroke:none;stroke-width:0.0352778"
       id="path6514" />
    <path
       d="m 82.417769,121.06979 h 5.746751 v -4.30741 h -5.746751 z m 5.937251,0.381 h -6.127751 c -0.105833,0 -0.1905,-0.0847 -0.1905,-0.1905 v -4.68841 c 0,-0.10584 0.08467,-0.1905 0.1905,-0.1905 h 6.127751 c 0.105833,0 0.1905,0.0847 0.1905,0.1905 v 4.68841 c 0,0.10584 -0.08467,0.1905 -0.1905,0.1905"
       style="fill:#854adb;fill-opacity:1;fill-rule:nonzero;stroke:none;stroke-width:0.0352778"
       id="path6516" />
    <path
       d="m 82.417769,125.76174 h 5.746751 v -4.31095 h -5.746751 z m 5.937251,0.37747 h -6.127751 c -0.105833,0 -0.1905,-0.0847 -0.1905,-0.18697 v -4.69195 c 0,-0.10548 0.08467,-0.1905 0.1905,-0.1905 h 6.127751 c 0.105833,0 0.1905,0.085 0.1905,0.1905 v 4.69195 c 0,0.1023 -0.08467,0.18697 -0.1905,0.18697"
       style="fill:#854adb;fill-opacity:1;fill-rule:nonzero;stroke:none;stroke-width:0.0352778"
       id="path6518" />
    <path
       d="m 82.417769,130.45016 h 5.746751 v -4.31095 h -5.746751 z m 5.937251,0.381 h -6.127751 c -0.105833,0 -0.1905,-0.0847 -0.1905,-0.1905 v -4.68842 c 0,-0.10583 0.08467,-0.1905 0.1905,-0.1905 h 6.127751 c 0.105833,0 0.1905,0.0847 0.1905,0.1905 v 4.68842 c 0,0.10583 -0.08467,0.1905 -0.1905,0.1905"
       style="fill:#854adb;fill-opacity:1;fill-rule:nonzero;stroke:none;stroke-width:0.0352778"
       id="path6520" />
    <path
       d="m 82.417769,135.13857 h 5.746751 v -4.30741 h -5.746751 z m 5.937251,0.381 h -6.127751 c -0.105833,0 -0.1905,-0.0847 -0.1905,-0.1905 v -4.68841 c 0,-0.10584 0.08467,-0.1905 0.1905,-0.1905 h 6.127751 c 0.105833,0 0.1905,0.0847 0.1905,0.1905 v 4.68841 c 0,0.10584 -0.08467,0.1905 -0.1905,0.1905"
       style="fill:#854adb;fill-opacity:1;fill-rule:nonzero;stroke:none;stroke-width:0.0352778"
       id="path6522" />
    <path
       d="m 82.417769,139.82699 h 5.746751 v -4.30742 h -5.746751 z m 5.937251,0.381 h -6.127751 c -0.105833,0 -0.1905,-0.0847 -0.1905,-0.1905 v -4.68842 c 0,-0.10583 0.08467,-0.1905 0.1905,-0.1905 h 6.127751 c 0.105833,0 0.1905,0.0847 0.1905,0.1905 v 4.68842 c 0,0.10583 -0.08467,0.1905 -0.1905,0.1905"
       style="fill:#854adb;fill-opacity:1;fill-rule:nonzero;stroke:none;stroke-width:0.0352778"
       id="path6524" />
    <path
       d="m 82.417769,144.51893 h 5.746751 v -4.31094 h -5.746751 z m 5.937251,0.37748 h -6.127751 c -0.105833,0 -0.1905,-0.0847 -0.1905,-0.18698 v -4.69194 c 0,-0.10583 0.08467,-0.1905 0.1905,-0.1905 h 6.127751 c 0.105833,0 0.1905,0.0847 0.1905,0.1905 v 4.69194 c 0,0.10231 -0.08467,0.18698 -0.1905,0.18698"
       style="fill:#854adb;fill-opacity:1;fill-rule:nonzero;stroke:none;stroke-width:0.0352778"
       id="path6526" />
    <path
       d="m 88.54552,111.69296 h 5.743222 v -4.31094 H 88.54552 Z m 5.933722,0.381 H 88.35502 c -0.105834,0 -0.1905,-0.0847 -0.1905,-0.1905 v -4.69194 c 0,-0.10584 0.08467,-0.1905 0.1905,-0.1905 h 6.124222 c 0.105834,0 0.1905,0.0847 0.1905,0.1905 v 4.69194 c 0,0.10583 -0.08467,0.1905 -0.1905,0.1905"
       style="fill:#854adb;fill-opacity:1;fill-rule:nonzero;stroke:none;stroke-width:0.0352778"
       id="path6528" />
    <path
       d="m 88.54552,116.38138 h 5.743222 v -4.30742 H 88.54552 Z m 5.933722,0.381 H 88.35502 c -0.105834,0 -0.1905,-0.0847 -0.1905,-0.1905 v -4.68842 c 0,-0.10583 0.08467,-0.1905 0.1905,-0.1905 h 6.124222 c 0.105834,0 0.1905,0.0847 0.1905,0.1905 v 4.68842 c 0,0.10583 -0.08467,0.1905 -0.1905,0.1905"
       style="fill:#854adb;fill-opacity:1;fill-rule:nonzero;stroke:none;stroke-width:0.0352778"
       id="path6530" />
    <path
       d="m 88.54552,121.06979 h 5.743222 v -4.30741 H 88.54552 Z m 5.933722,0.381 H 88.35502 c -0.105834,0 -0.1905,-0.0847 -0.1905,-0.1905 v -4.68841 c 0,-0.10584 0.08467,-0.1905 0.1905,-0.1905 h 6.124222 c 0.105834,0 0.1905,0.0847 0.1905,0.1905 v 4.68841 c 0,0.10584 -0.08467,0.1905 -0.1905,0.1905"
       style="fill:#854adb;fill-opacity:1;fill-rule:nonzero;stroke:none;stroke-width:0.0352778"
       id="path6532" />
    <path
       d="m 88.54552,125.76174 h 5.743222 v -4.31095 H 88.54552 Z m 5.933722,0.37747 H 88.35502 c -0.105834,0 -0.1905,-0.0847 -0.1905,-0.18697 v -4.69195 c 0,-0.10548 0.08467,-0.1905 0.1905,-0.1905 h 6.124222 c 0.105834,0 0.1905,0.085 0.1905,0.1905 v 4.69195 c 0,0.1023 -0.08467,0.18697 -0.1905,0.18697"
       style="fill:#854adb;fill-opacity:1;fill-rule:nonzero;stroke:none;stroke-width:0.0352778"
       id="path6534" />
    <path
       d="m 88.54552,130.45016 h 5.743222 v -4.31095 H 88.54552 Z m 5.933722,0.381 H 88.35502 c -0.105834,0 -0.1905,-0.0847 -0.1905,-0.1905 v -4.68842 c 0,-0.10583 0.08467,-0.1905 0.1905,-0.1905 h 6.124222 c 0.105834,0 0.1905,0.0847 0.1905,0.1905 v 4.68842 c 0,0.10583 -0.08467,0.1905 -0.1905,0.1905"
       style="fill:#854adb;fill-opacity:1;fill-rule:nonzero;stroke:none;stroke-width:0.0352778"
       id="path6536" />
    <path
       d="m 88.54552,135.13857 h 5.743222 v -4.30741 H 88.54552 Z m 5.933722,0.381 H 88.35502 c -0.105834,0 -0.1905,-0.0847 -0.1905,-0.1905 v -4.68841 c 0,-0.10584 0.08467,-0.1905 0.1905,-0.1905 h 6.124222 c 0.105834,0 0.1905,0.0847 0.1905,0.1905 v 4.68841 c 0,0.10584 -0.08467,0.1905 -0.1905,0.1905"
       style="fill:#854adb;fill-opacity:1;fill-rule:nonzero;stroke:none;stroke-width:0.0352778"
       id="path6538" />
    <path
       d="m 88.54552,139.82699 h 5.743222 v -4.30742 H 88.54552 Z m 5.933722,0.381 H 88.35502 c -0.105834,0 -0.1905,-0.0847 -0.1905,-0.1905 v -4.68842 c 0,-0.10583 0.08467,-0.1905 0.1905,-0.1905 h 6.124222 c 0.105834,0 0.1905,0.0847 0.1905,0.1905 v 4.68842 c 0,0.10583 -0.08467,0.1905 -0.1905,0.1905"
       style="fill:#854adb;fill-opacity:1;fill-rule:nonzero;stroke:none;stroke-width:0.0352778"
       id="path6540" />
    <path
       d="m 88.54552,144.51893 h 5.743222 v -4.31094 H 88.54552 Z m 5.933722,0.37748 H 88.35502 c -0.105834,0 -0.1905,-0.0847 -0.1905,-0.18698 v -4.69194 c 0,-0.10583 0.08467,-0.1905 0.1905,-0.1905 h 6.124222 c 0.105834,0 0.1905,0.0847 0.1905,0.1905 v 4.69194 c 0,0.10231 -0.08467,0.18698 -0.1905,0.18698"
       style="fill:#854adb;fill-opacity:1;fill-rule:nonzero;stroke:none;stroke-width:0.0352778"
       id="path6542" />
    <path
       d="m 94.669742,111.69296 h 5.746748 v -4.31094 h -5.746748 z m 5.937248,0.381 h -6.127748 c -0.105833,0 -0.1905,-0.0847 -0.1905,-0.1905 v -4.69194 c 0,-0.10584 0.08467,-0.1905 0.1905,-0.1905 h 6.127748 c 0.10231,0 0.1905,0.0847 0.1905,0.1905 v 4.69194 c 0,0.10583 -0.0882,0.1905 -0.1905,0.1905"
       style="fill:#854adb;fill-opacity:1;fill-rule:nonzero;stroke:none;stroke-width:0.0352778"
       id="path6544" />
    <path
       d="m 94.669742,116.38138 h 5.746748 v -4.30742 h -5.746748 z m 5.937248,0.381 h -6.127748 c -0.105833,0 -0.1905,-0.0847 -0.1905,-0.1905 v -4.68842 c 0,-0.10583 0.08467,-0.1905 0.1905,-0.1905 h 6.127748 c 0.10231,0 0.1905,0.0847 0.1905,0.1905 v 4.68842 c 0,0.10583 -0.0882,0.1905 -0.1905,0.1905"
       style="fill:#854adb;fill-opacity:1;fill-rule:nonzero;stroke:none;stroke-width:0.0352778"
       id="path6546" />
    <path
       d="m 94.669742,121.06979 h 5.746748 v -4.30741 h -5.746748 z m 5.937248,0.381 h -6.127748 c -0.105833,0 -0.1905,-0.0847 -0.1905,-0.1905 v -4.68841 c 0,-0.10584 0.08467,-0.1905 0.1905,-0.1905 h 6.127748 c 0.10231,0 0.1905,0.0847 0.1905,0.1905 v 4.68841 c 0,0.10584 -0.0882,0.1905 -0.1905,0.1905"
       style="fill:#854adb;fill-opacity:1;fill-rule:nonzero;stroke:none;stroke-width:0.0352778"
       id="path6548" />
    <path
       d="m 94.669742,125.76174 h 5.746748 v -4.31095 h -5.746748 z m 5.937248,0.37747 h -6.127748 c -0.105833,0 -0.1905,-0.0847 -0.1905,-0.18697 v -4.69195 c 0,-0.10548 0.08467,-0.1905 0.1905,-0.1905 h 6.127748 c 0.10231,0 0.1905,0.085 0.1905,0.1905 v 4.69195 c 0,0.1023 -0.0882,0.18697 -0.1905,0.18697"
       style="fill:#854adb;fill-opacity:1;fill-rule:nonzero;stroke:none;stroke-width:0.0352778"
       id="path6550" />
    <path
       d="m 94.669742,130.45016 h 5.746748 v -4.31095 h -5.746748 z m 5.937248,0.381 h -6.127748 c -0.105833,0 -0.1905,-0.0847 -0.1905,-0.1905 v -4.68842 c 0,-0.10583 0.08467,-0.1905 0.1905,-0.1905 h 6.127748 c 0.10231,0 0.1905,0.0847 0.1905,0.1905 v 4.68842 c 0,0.10583 -0.0882,0.1905 -0.1905,0.1905"
       style="fill:#854adb;fill-opacity:1;fill-rule:nonzero;stroke:none;stroke-width:0.0352778"
       id="path6552" />
    <path
       d="m 94.669742,135.13857 h 5.746748 v -4.30741 h -5.746748 z m 5.937248,0.381 h -6.127748 c -0.105833,0 -0.1905,-0.0847 -0.1905,-0.1905 v -4.68841 c 0,-0.10584 0.08467,-0.1905 0.1905,-0.1905 h 6.127748 c 0.10231,0 0.1905,0.0847 0.1905,0.1905 v 4.68841 c 0,0.10584 -0.0882,0.1905 -0.1905,0.1905"
       style="fill:#854adb;fill-opacity:1;fill-rule:nonzero;stroke:none;stroke-width:0.0352778"
       id="path6554" />
    <path
       d="m 94.669742,144.51893 h 5.746748 v -4.31094 h -5.746748 z m 5.937248,0.37748 h -6.127748 c -0.105833,0 -0.1905,-0.0847 -0.1905,-0.18698 v -4.69194 c 0,-0.10583 0.08467,-0.1905 0.1905,-0.1905 h 6.127748 c 0.10231,0 0.1905,0.0847 0.1905,0.1905 v 4.69194 c 0,0.10231 -0.0882,0.18698 -0.1905,0.18698"
       style="fill:#854adb;fill-opacity:1;fill-rule:nonzero;stroke:none;stroke-width:0.0352778"
       id="path6556" />
    <path
       d="m 100.79749,111.69296 h 5.74323 v -4.31094 h -5.74323 z m 5.93373,0.381 h -6.12423 c -0.10583,0 -0.1905,-0.0847 -0.1905,-0.1905 v -4.69194 c 0,-0.10584 0.0847,-0.1905 0.1905,-0.1905 h 6.12423 c 0.10583,0 0.1905,0.0847 0.1905,0.1905 v 4.69194 c 0,0.10583 -0.0847,0.1905 -0.1905,0.1905"
       style="fill:#854adb;fill-opacity:1;fill-rule:nonzero;stroke:none;stroke-width:0.0352778"
       id="path6558" />
    <path
       d="m 100.79749,116.38138 h 5.74323 v -4.30742 h -5.74323 z m 5.93373,0.381 h -6.12423 c -0.10583,0 -0.1905,-0.0847 -0.1905,-0.1905 v -4.68842 c 0,-0.10583 0.0847,-0.1905 0.1905,-0.1905 h 6.12423 c 0.10583,0 0.1905,0.0847 0.1905,0.1905 v 4.68842 c 0,0.10583 -0.0847,0.1905 -0.1905,0.1905"
       style="fill:#854adb;fill-opacity:1;fill-rule:nonzero;stroke:none;stroke-width:0.0352778"
       id="path6560" />
    <path
       d="m 100.79749,121.06979 h 5.74323 v -4.30741 h -5.74323 z m 5.93373,0.381 h -6.12423 c -0.10583,0 -0.1905,-0.0847 -0.1905,-0.1905 v -4.68841 c 0,-0.10584 0.0847,-0.1905 0.1905,-0.1905 h 6.12423 c 0.10583,0 0.1905,0.0847 0.1905,0.1905 v 4.68841 c 0,0.10584 -0.0847,0.1905 -0.1905,0.1905"
       style="fill:#854adb;fill-opacity:1;fill-rule:nonzero;stroke:none;stroke-width:0.0352778"
       id="path6562" />
    <path
       d="m 100.79749,125.76174 h 5.74323 v -4.31095 h -5.74323 z m 5.93373,0.37747 h -6.12423 c -0.10583,0 -0.1905,-0.0847 -0.1905,-0.18697 v -4.69195 c 0,-0.10548 0.0847,-0.1905 0.1905,-0.1905 h 6.12423 c 0.10583,0 0.1905,0.085 0.1905,0.1905 v 4.69195 c 0,0.1023 -0.0847,0.18697 -0.1905,0.18697"
       style="fill:#854adb;fill-opacity:1;fill-rule:nonzero;stroke:none;stroke-width:0.0352778"
       id="path6564" />
    <path
       d="m 100.79749,130.45016 h 5.74323 v -4.31095 h -5.74323 z m 5.93373,0.381 h -6.12423 c -0.10583,0 -0.1905,-0.0847 -0.1905,-0.1905 v -4.68842 c 0,-0.10583 0.0847,-0.1905 0.1905,-0.1905 h 6.12423 c 0.10583,0 0.1905,0.0847 0.1905,0.1905 v 4.68842 c 0,0.10583 -0.0847,0.1905 -0.1905,0.1905"
       style="fill:#854adb;fill-opacity:1;fill-rule:nonzero;stroke:none;stroke-width:0.0352778"
       id="path6566" />
    <path
       d="m 100.79749,135.13857 h 5.74323 v -4.30741 h -5.74323 z m 5.93373,0.381 h -6.12423 c -0.10583,0 -0.1905,-0.0847 -0.1905,-0.1905 v -4.68841 c 0,-0.10584 0.0847,-0.1905 0.1905,-0.1905 h 6.12423 c 0.10583,0 0.1905,0.0847 0.1905,0.1905 v 4.68841 c 0,0.10584 -0.0847,0.1905 -0.1905,0.1905"
       style="fill:#854adb;fill-opacity:1;fill-rule:nonzero;stroke:none;stroke-width:0.0352778"
       id="path6568" />
    <path
       d="m 100.79749,139.82699 h 5.74323 v -4.30742 h -5.74323 z m 5.93373,0.381 h -6.12423 c -0.10583,0 -0.1905,-0.0847 -0.1905,-0.1905 v -4.68842 c 0,-0.10583 0.0847,-0.1905 0.1905,-0.1905 h 6.12423 c 0.10583,0 0.1905,0.0847 0.1905,0.1905 v 4.68842 c 0,0.10583 -0.0847,0.1905 -0.1905,0.1905"
       style="fill:#854adb;fill-opacity:1;fill-rule:nonzero;stroke:none;stroke-width:0.0352778"
       id="path6570" />
    <path
       d="m 100.79749,144.51893 h 5.74323 v -4.31094 h -5.74323 z m 5.93373,0.37748 h -6.12423 c -0.10583,0 -0.1905,-0.0847 -0.1905,-0.18698 v -4.69194 c 0,-0.10583 0.0847,-0.1905 0.1905,-0.1905 h 6.12423 c 0.10583,0 0.1905,0.0847 0.1905,0.1905 v 4.69194 c 0,0.10231 -0.0847,0.18698 -0.1905,0.18698"
       style="fill:#854adb;fill-opacity:1;fill-rule:nonzero;stroke:none;stroke-width:0.0352778"
       id="path6572" />
    <path
       d="m 106.92172,111.69296 h 5.74675 v -4.31094 h -5.74675 z m 5.93725,0.381 h -6.12775 c -0.10584,0 -0.1905,-0.0847 -0.1905,-0.1905 v -4.69194 c 0,-0.10584 0.0847,-0.1905 0.1905,-0.1905 h 6.12775 c 0.1023,0 0.18697,0.0847 0.18697,0.1905 v 4.69194 c 0,0.10583 -0.0847,0.1905 -0.18697,0.1905"
       style="fill:#854adb;fill-opacity:1;fill-rule:nonzero;stroke:none;stroke-width:0.0352778"
       id="path6574" />
    <path
       d="m 106.92172,116.38138 h 5.74675 v -4.30742 h -5.74675 z m 5.93725,0.381 h -6.12775 c -0.10584,0 -0.1905,-0.0847 -0.1905,-0.1905 v -4.68842 c 0,-0.10583 0.0847,-0.1905 0.1905,-0.1905 h 6.12775 c 0.1023,0 0.18697,0.0847 0.18697,0.1905 v 4.68842 c 0,0.10583 -0.0847,0.1905 -0.18697,0.1905"
       style="fill:#854adb;fill-opacity:1;fill-rule:nonzero;stroke:none;stroke-width:0.0352778"
       id="path6576" />
    <path
       d="m 106.92172,121.06979 h 5.74675 v -4.30741 h -5.74675 z m 5.93725,0.381 h -6.12775 c -0.10584,0 -0.1905,-0.0847 -0.1905,-0.1905 v -4.68841 c 0,-0.10584 0.0847,-0.1905 0.1905,-0.1905 h 6.12775 c 0.1023,0 0.18697,0.0847 0.18697,0.1905 v 4.68841 c 0,0.10584 -0.0847,0.1905 -0.18697,0.1905"
       style="fill:#854adb;fill-opacity:1;fill-rule:nonzero;stroke:none;stroke-width:0.0352778"
       id="path6578" />
    <path
       d="m 106.92172,125.76174 h 5.74675 v -4.31095 h -5.74675 z m 5.93725,0.37747 h -6.12775 c -0.10584,0 -0.1905,-0.0847 -0.1905,-0.18697 v -4.69195 c 0,-0.10548 0.0847,-0.1905 0.1905,-0.1905 h 6.12775 c 0.1023,0 0.18697,0.085 0.18697,0.1905 v 4.69195 c 0,0.1023 -0.0847,0.18697 -0.18697,0.18697"
       style="fill:#854adb;fill-opacity:1;fill-rule:nonzero;stroke:none;stroke-width:0.0352778"
       id="path6580" />
    <path
       d="m 106.92172,130.45016 h 5.74675 v -4.31095 h -5.74675 z m 5.93725,0.381 h -6.12775 c -0.10584,0 -0.1905,-0.0847 -0.1905,-0.1905 v -4.68842 c 0,-0.10583 0.0847,-0.1905 0.1905,-0.1905 h 6.12775 c 0.1023,0 0.18697,0.0847 0.18697,0.1905 v 4.68842 c 0,0.10583 -0.0847,0.1905 -0.18697,0.1905"
       style="fill:#854adb;fill-opacity:1;fill-rule:nonzero;stroke:none;stroke-width:0.0352778"
       id="path6582" />
    <path
       d="m 106.92172,135.13857 h 5.74675 v -4.30741 h -5.74675 z m 5.93725,0.381 h -6.12775 c -0.10584,0 -0.1905,-0.0847 -0.1905,-0.1905 v -4.68841 c 0,-0.10584 0.0847,-0.1905 0.1905,-0.1905 h 6.12775 c 0.1023,0 0.18697,0.0847 0.18697,0.1905 v 4.68841 c 0,0.10584 -0.0847,0.1905 -0.18697,0.1905"
       style="fill:#854adb;fill-opacity:1;fill-rule:nonzero;stroke:none;stroke-width:0.0352778"
       id="path6584" />
    <path
       d="m 106.92172,139.82699 h 5.74675 v -4.30742 h -5.74675 z m 5.93725,0.381 h -6.12775 c -0.10584,0 -0.1905,-0.0847 -0.1905,-0.1905 v -4.68842 c 0,-0.10583 0.0847,-0.1905 0.1905,-0.1905 h 6.12775 c 0.1023,0 0.18697,0.0847 0.18697,0.1905 v 4.68842 c 0,0.10583 -0.0847,0.1905 -0.18697,0.1905"
       style="fill:#854adb;fill-opacity:1;fill-rule:nonzero;stroke:none;stroke-width:0.0352778"
       id="path6586" />
    <path
       d="m 106.92172,144.51893 h 5.74675 v -4.31094 h -5.74675 z m 5.93725,0.37748 h -6.12775 c -0.10584,0 -0.1905,-0.0847 -0.1905,-0.18698 v -4.69194 c 0,-0.10583 0.0847,-0.1905 0.1905,-0.1905 h 6.12775 c 0.1023,0 0.18697,0.0847 0.18697,0.1905 v 4.69194 c 0,0.10231 -0.0847,0.18698 -0.18697,0.18698"
       style="fill:#854adb;fill-opacity:1;fill-rule:nonzero;stroke:none;stroke-width:0.0352778"
       id="path6588" />
    <path
       d="m 113.04594,111.69296 h 5.74675 v -4.31094 h -5.74675 z m 5.93725,0.381 h -6.12422 c -0.10584,0 -0.1905,-0.0847 -0.1905,-0.1905 v -4.69194 c 0,-0.10584 0.0847,-0.1905 0.1905,-0.1905 h 6.12422 c 0.10583,0 0.1905,0.0847 0.1905,0.1905 v 4.69194 c 0,0.10583 -0.0847,0.1905 -0.1905,0.1905"
       style="fill:#854adb;fill-opacity:1;fill-rule:nonzero;stroke:none;stroke-width:0.0352778"
       id="path6590" />
    <path
       d="m 113.04594,116.38138 h 5.74675 v -4.30742 h -5.74675 z m 5.93725,0.381 h -6.12422 c -0.10584,0 -0.1905,-0.0847 -0.1905,-0.1905 v -4.68842 c 0,-0.10583 0.0847,-0.1905 0.1905,-0.1905 h 6.12422 c 0.10583,0 0.1905,0.0847 0.1905,0.1905 v 4.68842 c 0,0.10583 -0.0847,0.1905 -0.1905,0.1905"
       style="fill:#854adb;fill-opacity:1;fill-rule:nonzero;stroke:none;stroke-width:0.0352778"
       id="path6592" />
    <path
       d="m 113.04594,121.06979 h 5.74675 v -4.30741 h -5.74675 z m 5.93725,0.381 h -6.12422 c -0.10584,0 -0.1905,-0.0847 -0.1905,-0.1905 v -4.68841 c 0,-0.10584 0.0847,-0.1905 0.1905,-0.1905 h 6.12422 c 0.10583,0 0.1905,0.0847 0.1905,0.1905 v 4.68841 c 0,0.10584 -0.0847,0.1905 -0.1905,0.1905"
       style="fill:#854adb;fill-opacity:1;fill-rule:nonzero;stroke:none;stroke-width:0.0352778"
       id="path6594" />
    <path
       d="m 113.04594,125.76174 h 5.74675 v -4.31095 h -5.74675 z m 5.93725,0.37747 h -6.12422 c -0.10584,0 -0.1905,-0.0847 -0.1905,-0.18697 v -4.69195 c 0,-0.10548 0.0847,-0.1905 0.1905,-0.1905 h 6.12422 c 0.10583,0 0.1905,0.085 0.1905,0.1905 v 4.69195 c 0,0.1023 -0.0847,0.18697 -0.1905,0.18697"
       style="fill:#854adb;fill-opacity:1;fill-rule:nonzero;stroke:none;stroke-width:0.0352778"
       id="path6596" />
    <path
       d="m 113.04594,130.45016 h 5.74675 v -4.31095 h -5.74675 z m 5.93725,0.381 h -6.12422 c -0.10584,0 -0.1905,-0.0847 -0.1905,-0.1905 v -4.68842 c 0,-0.10583 0.0847,-0.1905 0.1905,-0.1905 h 6.12422 c 0.10583,0 0.1905,0.0847 0.1905,0.1905 v 4.68842 c 0,0.10583 -0.0847,0.1905 -0.1905,0.1905"
       style="fill:#854adb;fill-opacity:1;fill-rule:nonzero;stroke:none;stroke-width:0.0352778"
       id="path6598" />
    <path
       d="m 113.04594,135.13857 h 5.74675 v -4.30741 h -5.74675 z m 5.93725,0.381 h -6.12422 c -0.10584,0 -0.1905,-0.0847 -0.1905,-0.1905 v -4.68841 c 0,-0.10584 0.0847,-0.1905 0.1905,-0.1905 h 6.12422 c 0.10583,0 0.1905,0.0847 0.1905,0.1905 v 4.68841 c 0,0.10584 -0.0847,0.1905 -0.1905,0.1905"
       style="fill:#854adb;fill-opacity:1;fill-rule:nonzero;stroke:none;stroke-width:0.0352778"
       id="path6600" />
    <path
       d="m 113.04594,139.82699 h 5.74675 v -4.30742 h -5.74675 z m 5.93725,0.381 h -6.12422 c -0.10584,0 -0.1905,-0.0847 -0.1905,-0.1905 v -4.68842 c 0,-0.10583 0.0847,-0.1905 0.1905,-0.1905 h 6.12422 c 0.10583,0 0.1905,0.0847 0.1905,0.1905 v 4.68842 c 0,0.10583 -0.0847,0.1905 -0.1905,0.1905"
       style="fill:#854adb;fill-opacity:1;fill-rule:nonzero;stroke:none;stroke-width:0.0352778"
       id="path6602" />
    <path
       d="m 113.04594,144.51893 h 5.74675 v -4.31094 h -5.74675 z m 5.93725,0.37748 h -6.12422 c -0.10584,0 -0.1905,-0.0847 -0.1905,-0.18698 v -4.69194 c 0,-0.10583 0.0847,-0.1905 0.1905,-0.1905 h 6.12422 c 0.10583,0 0.1905,0.0847 0.1905,0.1905 v 4.69194 c 0,0.10231 -0.0847,0.18698 -0.1905,0.18698"
       style="fill:#854adb;fill-opacity:1;fill-rule:nonzero;stroke:none;stroke-width:0.0352778"
       id="path6604" />
    <path
       d="m 69.110991,138.90271 c -0.356306,0 -0.677334,-0.25047 -0.747889,-0.6103 -0.08114,-0.41275 0.186972,-0.81492 0.599722,-0.89606 l 7.168445,-1.42875 3.683,-4.29331 c 0.127,-0.14463 0.303389,-0.23988 0.497417,-0.26105 l 7.849306,-0.81845 4.744861,-8.58308 c 0.179917,-0.32773 0.567973,-0.47625 0.917223,-0.35278 l 6.515804,2.286 5.93372,-7.73641 c 0.16581,-0.21873 0.43392,-0.32809 0.70203,-0.29246 l 3.55953,0.46179 20.47522,-12.11086 c 0.36336,-0.2152 0.82903,-0.0953 1.04423,0.26811 0.21166,0.35983 0.0917,0.8255 -0.26812,1.04069 l -20.701,12.24492 c -0.14464,0.0882 -0.3175,0.12383 -0.48683,0.10231 l -3.38314,-0.44098 -6.00428,7.82462 c -0.20108,0.26105 -0.5468,0.36336 -0.85725,0.25788 l -6.427609,-2.25461 -4.624917,8.36789 c -0.119944,0.21872 -0.338666,0.36336 -0.585611,0.38806 l -7.944556,0.82903 -3.654778,4.26155 c -0.109361,0.13053 -0.261056,0.21872 -0.426861,0.254 l -7.429501,1.47814 c -0.04939,0.0106 -0.102305,0.0141 -0.148166,0.0141"
       style="fill:#ffcf46;fill-opacity:1;fill-rule:nonzero;stroke:none;stroke-width:0.0352778"
       id="path6606" />
  </g>
</svg>
