<?xml version="1.0" encoding="UTF-8" standalone="no"?>
<!-- Created with Inkscape (http://www.inkscape.org/) -->

<svg
   width="48.884415mm"
   height="61.291611mm"
   viewBox="0 0 48.884415 61.291611"
   version="1.1"
   id="svg9773"
   inkscape:version="1.1 (c4e8f9ed74, 2021-05-24)"
   sodipodi:docname="i-pad.svg"
   xmlns:inkscape="http://www.inkscape.org/namespaces/inkscape"
   xmlns:sodipodi="http://sodipodi.sourceforge.net/DTD/sodipodi-0.dtd"
   xmlns="http://www.w3.org/2000/svg"
   xmlns:svg="http://www.w3.org/2000/svg">
  <sodipodi:namedview
     id="namedview9775"
     pagecolor="#ffffff"
     bordercolor="#666666"
     borderopacity="1.0"
     inkscape:pageshadow="2"
     inkscape:pageopacity="0.0"
     inkscape:pagecheckerboard="0"
     inkscape:document-units="mm"
     showgrid="false"
     inkscape:zoom="0.45968013"
     inkscape:cx="129.43783"
     inkscape:cy="214.27944"
     inkscape:window-width="1920"
     inkscape:window-height="1051"
     inkscape:window-x="1366"
     inkscape:window-y="0"
     inkscape:window-maximized="1"
     inkscape:current-layer="layer1" />
  <defs
     id="defs9770" />
  <g
     inkscape:label="Layer 1"
     inkscape:groupmode="layer"
     id="layer1"
     transform="translate(-70.528764,-91.95307)">
    <path
       d="m 75.898042,93.805153 c -1.940278,0 -3.517195,1.576917 -3.517195,3.517195 v 50.553062 c 0,1.94027 1.576917,3.51719 3.517195,3.51719 h 38.145868 c 1.94027,0 3.51719,-1.57692 3.51719,-3.51719 V 97.322348 c 0,-1.940278 -1.57692,-3.517195 -3.51719,-3.517195 z M 114.04391,153.24468 H 75.898042 c -2.959806,0 -5.369278,-2.40947 -5.369278,-5.36927 V 97.322348 c 0,-2.959806 2.409472,-5.369278 5.369278,-5.369278 h 38.145868 c 2.9598,0 5.36927,2.409472 5.36927,5.369278 v 50.553062 c 0,2.9598 -2.40947,5.36927 -5.36927,5.36927"
       style="fill:#854adb;fill-opacity:1;fill-rule:nonzero;stroke:none;stroke-width:0.0352778"
       id="path8278" />
    <path
       d="m 113.64174,142.41088 c -0.51153,0 -0.92428,-0.41275 -0.92428,-0.92428 V 97.939709 H 77.224487 V 140.5588 h 33.009423 c 0.51152,0 0.92427,0.41627 0.92427,0.9278 0,0.51153 -0.41275,0.92428 -0.92427,0.92428 H 76.300209 c -0.511528,0 -0.927806,-0.41275 -0.927806,-0.92428 V 97.015431 c 0,-0.511528 0.416278,-0.927805 0.927806,-0.927805 h 37.341531 c 0.51153,0 0.9278,0.416277 0.9278,0.927805 V 141.4866 c 0,0.51153 -0.41627,0.92428 -0.9278,0.92428"
       style="fill:#854adb;fill-opacity:1;fill-rule:nonzero;stroke:none;stroke-width:0.0352778"
       id="path8280" />
    <path
       d="m 94.96921,145.65291 c -0.712611,0 -1.294695,0.58208 -1.294695,1.29469 0,0.71614 0.582084,1.29822 1.294695,1.29822 0.716139,0 1.298222,-0.58208 1.298222,-1.29822 0,-0.71261 -0.582083,-1.29469 -1.298222,-1.29469 z m 0,4.445 c -1.735667,0 -3.146778,-1.41464 -3.146778,-3.15031 0,-1.73567 1.411111,-3.14678 3.146778,-3.14678 1.735667,0 3.150306,1.41111 3.150306,3.14678 0,1.73567 -1.414639,3.15031 -3.150306,3.15031"
       style="fill:#ffcf46;fill-opacity:1;fill-rule:nonzero;stroke:none;stroke-width:0.0352778"
       id="path8282" />
    <path
       d="m 85.733487,105.37627 c 0,0.56797 -0.462139,1.02658 -1.030111,1.02658 H 82.25157 c -0.567972,0 -1.030111,-0.45861 -1.030111,-1.02658 v -2.45534 c 0,-0.56797 0.462139,-1.02658 1.030111,-1.02658 h 2.451806 c 0.567972,0 1.030111,0.45861 1.030111,1.02658 v 2.45534"
       style="fill:#854adb;fill-opacity:1;fill-rule:nonzero;stroke:none;stroke-width:0.0352778"
       id="path8284" />
    <path
       d="m 85.733487,111.9591 c 0,0.56797 -0.462139,1.02658 -1.030111,1.02658 H 82.25157 c -0.567972,0 -1.030111,-0.45861 -1.030111,-1.02658 v -2.45181 c 0,-0.56797 0.462139,-1.02658 1.030111,-1.02658 h 2.451806 c 0.567972,0 1.030111,0.45861 1.030111,1.02658 v 2.45181"
       style="fill:#854adb;fill-opacity:1;fill-rule:nonzero;stroke:none;stroke-width:0.0352778"
       id="path8286" />
    <path
       d="m 93.536932,105.37627 c 0,0.56797 -0.458611,1.02658 -1.026583,1.02658 h -2.455334 c -0.567972,0 -1.026583,-0.45861 -1.026583,-1.02658 v -2.45534 c 0,-0.56797 0.458611,-1.02658 1.026583,-1.02658 h 2.455334 c 0.567972,0 1.026583,0.45861 1.026583,1.02658 v 2.45534"
       style="fill:#854adb;fill-opacity:1;fill-rule:nonzero;stroke:none;stroke-width:0.0352778"
       id="path8288" />
    <path
       d="m 93.536932,111.9591 c 0,0.56797 -0.458611,1.02658 -1.026583,1.02658 h -2.455334 c -0.567972,0 -1.026583,-0.45861 -1.026583,-1.02658 v -2.45181 c 0,-0.56797 0.458611,-1.02658 1.026583,-1.02658 h 2.455334 c 0.567972,0 1.026583,0.45861 1.026583,1.02658 v 2.45181"
       style="fill:#854adb;fill-opacity:1;fill-rule:nonzero;stroke:none;stroke-width:0.0352778"
       id="path8290" />
    <path
       d="m 85.733487,119.12049 c 0,0.56797 -0.462139,1.02658 -1.030111,1.02658 H 82.25157 c -0.567972,0 -1.030111,-0.45861 -1.030111,-1.02658 v -2.45534 c 0,-0.56444 0.462139,-1.02658 1.030111,-1.02658 h 2.451806 c 0.567972,0 1.030111,0.46214 1.030111,1.02658 v 2.45534"
       style="fill:#854adb;fill-opacity:1;fill-rule:nonzero;stroke:none;stroke-width:0.0352778"
       id="path8292" />
    <path
       d="m 93.536932,119.12049 c 0,0.56797 -0.458611,1.02658 -1.026583,1.02658 h -2.455334 c -0.567972,0 -1.026583,-0.45861 -1.026583,-1.02658 v -2.45534 c 0,-0.56444 0.458611,-1.02658 1.026583,-1.02658 h 2.455334 c 0.567972,0 1.026583,0.46214 1.026583,1.02658 v 2.45534"
       style="fill:#854adb;fill-opacity:1;fill-rule:nonzero;stroke:none;stroke-width:0.0352778"
       id="path8294" />
    <path
       d="m 101.3439,105.37627 c 0,0.56797 -0.46213,1.02658 -1.03011,1.02658 h -2.451802 c -0.567972,0 -1.026584,-0.45861 -1.026584,-1.02658 v -2.45534 c 0,-0.56797 0.458612,-1.02658 1.026584,-1.02658 h 2.451802 c 0.56798,0 1.03011,0.45861 1.03011,1.02658 v 2.45534"
       style="fill:#854adb;fill-opacity:1;fill-rule:nonzero;stroke:none;stroke-width:0.0352778"
       id="path8296" />
    <path
       d="m 101.3439,111.9591 c 0,0.56797 -0.46213,1.02658 -1.03011,1.02658 h -2.451802 c -0.567972,0 -1.026584,-0.45861 -1.026584,-1.02658 v -2.45181 c 0,-0.56797 0.458612,-1.02658 1.026584,-1.02658 h 2.451802 c 0.56798,0 1.03011,0.45861 1.03011,1.02658 v 2.45181"
       style="fill:#854adb;fill-opacity:1;fill-rule:nonzero;stroke:none;stroke-width:0.0352778"
       id="path8298" />
    <path
       d="m 109.14735,105.37627 c 0,0.56797 -0.45861,1.02658 -1.02658,1.02658 h -2.45534 c -0.56444,0 -1.02658,-0.45861 -1.02658,-1.02658 v -2.45534 c 0,-0.56797 0.46214,-1.02658 1.02658,-1.02658 h 2.45534 c 0.56797,0 1.02658,0.45861 1.02658,1.02658 v 2.45534"
       style="fill:#854adb;fill-opacity:1;fill-rule:nonzero;stroke:none;stroke-width:0.0352778"
       id="path8300" />
    <path
       d="m 109.14735,111.9591 c 0,0.56797 -0.45861,1.02658 -1.02658,1.02658 h -2.45534 c -0.56444,0 -1.02658,-0.45861 -1.02658,-1.02658 v -2.45181 c 0,-0.56797 0.46214,-1.02658 1.02658,-1.02658 h 2.45534 c 0.56797,0 1.02658,0.45861 1.02658,1.02658 v 2.45181"
       style="fill:#854adb;fill-opacity:1;fill-rule:nonzero;stroke:none;stroke-width:0.0352778"
       id="path8302" />
  </g>
</svg>
