<?xml version="1.0" encoding="UTF-8" standalone="no"?>
<!-- Created with Inkscape (http://www.inkscape.org/) -->

<svg
   width="61.125053mm"
   height="54.602951mm"
   viewBox="0 0 61.125053 54.602951"
   version="1.1"
   id="svg8952"
   inkscape:version="1.1 (c4e8f9ed74, 2021-05-24)"
   sodipodi:docname="integration-systems.svg"
   xmlns:inkscape="http://www.inkscape.org/namespaces/inkscape"
   xmlns:sodipodi="http://sodipodi.sourceforge.net/DTD/sodipodi-0.dtd"
   xmlns="http://www.w3.org/2000/svg"
   xmlns:svg="http://www.w3.org/2000/svg">
  <sodipodi:namedview
     id="namedview8954"
     pagecolor="#ffffff"
     bordercolor="#666666"
     borderopacity="1.0"
     inkscape:pageshadow="2"
     inkscape:pageopacity="0.0"
     inkscape:pagecheckerboard="0"
     inkscape:document-units="mm"
     showgrid="false"
     inkscape:zoom="0.45968013"
     inkscape:cx="-142.49039"
     inkscape:cy="-144.66581"
     inkscape:window-width="1920"
     inkscape:window-height="1051"
     inkscape:window-x="1366"
     inkscape:window-y="0"
     inkscape:window-maximized="1"
     inkscape:current-layer="layer1" />
  <defs
     id="defs8949" />
  <g
     inkscape:label="Layer 1"
     inkscape:groupmode="layer"
     id="layer1"
     transform="translate(-38.507242,-186.8148)">
    <path
       d="m 57.204465,241.0685 c -0.500944,0 -0.924278,-0.39511 -0.948972,-0.90311 -0.105833,-2.09198 0.04939,-4.18395 0.458611,-6.23359 l -6.709834,-3.94758 c -0.423333,-0.25047 -0.585611,-0.77964 -0.381,-1.22061 l 3.683001,-7.91281 c 0.208138,-0.4445 0.719666,-0.65969 1.178277,-0.49741 l 7.249584,2.54705 3.958167,-4.05342 -2.547056,-7.17902 c -0.162277,-0.46214 0.04939,-0.97367 0.493889,-1.17828 l 7.912806,-3.69711 c 0.4445,-0.20814 0.973667,-0.0459 1.220612,0.37747 l 3.799416,6.42056 c 1.919112,-0.39159 3.862917,-0.56092 5.799667,-0.50095 l 2.617612,-7.00617 c 0.169333,-0.45861 0.663222,-0.70908 1.135944,-0.58561 l 8.43139,2.25073 c 0.47625,0.12347 0.776111,0.58913 0.694972,1.07244 l -1.217083,7.38011 c 1.915583,1.02306 3.693583,2.29658 5.295194,3.79589 0.384528,0.36019 0.405695,0.96308 0.04586,1.34408 -0.359833,0.38453 -0.959555,0.4057 -1.344083,0.0459 -1.640417,-1.53458 -3.481917,-2.81516 -5.475111,-3.80647 -0.373945,-0.18662 -0.582084,-0.59619 -0.515056,-1.00894 l 1.192389,-7.20725 -6.766278,-1.80622 -2.554112,6.84741 c -0.148166,0.39159 -0.536222,0.64559 -0.948972,0.61384 -2.211917,-0.13018 -4.448528,0.0635 -6.642806,0.57538 -0.405694,0.0949 -0.8255,-0.085 -1.037167,-0.44098 l -3.707694,-6.27274 -6.346473,2.96686 2.455334,6.92503 c 0.119944,0.33867 0.0388,0.71967 -0.215195,0.98072 l -4.801306,4.91067 c -0.257527,0.26811 -0.645583,0.35631 -0.994833,0.23636 l -7.006167,-2.46591 -2.95275,6.34647 6.554611,3.85939 c 0.356306,0.21166 0.53975,0.62829 0.4445,1.03399 -0.479778,2.09515 -0.66675,4.24709 -0.557389,6.39551 0.0247,0.52211 -0.377472,0.97014 -0.903111,0.99836 -0.01411,0 -0.03175,0 -0.04939,0"
       style="fill:#ffcf46;fill-opacity:1;fill-rule:nonzero;stroke:none;stroke-width:0.0352778"
       id="path772" />
    <path
       d="m 71.661299,240.90269 c -0.472722,0 -0.881944,-0.34889 -0.941916,-0.82902 -0.186973,-1.43934 -0.08819,-2.88573 0.289278,-4.29684 0.769055,-2.88219 2.614083,-5.29167 5.196417,-6.78744 2.582333,-1.49578 5.591528,-1.89407 8.473722,-1.12536 4.162778,1.11125 7.348362,4.56847 8.11389,8.80921 0.201083,1.10737 0.232833,2.24014 0.09172,3.35809 -0.0635,0.52247 -0.543278,0.89253 -1.061861,0.8255 -0.522111,-0.0635 -0.892528,-0.53975 -0.8255,-1.06151 0.116416,-0.92816 0.09172,-1.86302 -0.07408,-2.78377 -0.638528,-3.51719 -3.280833,-6.38845 -6.734528,-7.30955 -2.391833,-0.63853 -4.8895,-0.30692 -7.030861,0.93486 -2.141362,1.23825 -3.672417,3.2385 -4.310945,5.63069 -0.313972,1.17439 -0.395111,2.37031 -0.239889,3.5627 0.06703,0.52211 -0.303389,0.99836 -0.8255,1.06539 -0.03881,0.007 -0.08114,0.007 -0.119945,0.007"
       style="fill:#ffcf46;fill-opacity:1;fill-rule:nonzero;stroke:none;stroke-width:0.0352778"
       id="path774" />
    <path
       d="m 42.998103,188.7198 c -1.425222,0 -2.585861,1.16064 -2.585861,2.58586 v 45.62475 c 0,1.42523 1.160639,2.58587 2.585861,2.58587 h 52.002976 c 1.425222,0 2.585861,-1.16064 2.585861,-2.58587 v -45.62475 c 0,-1.42522 -1.160639,-2.58586 -2.585861,-2.58586 z m 52.002976,52.69795 H 42.998103 c -2.4765,0 -4.490861,-2.01436 -4.490861,-4.48734 v -45.62475 c 0,-2.4765 2.014361,-4.49086 4.490861,-4.49086 h 52.002976 c 2.4765,0 4.487333,2.01436 4.487333,4.49086 v 45.62475 c 0,2.47298 -2.010833,4.48734 -4.487333,4.48734"
       style="fill:#854adb;fill-opacity:1;fill-rule:nonzero;stroke:none;stroke-width:0.0352778"
       id="path776" />
    <path
       d="M 98.53944,201.82197 H 39.459742 c -0.525639,0 -0.9525,-0.42334 -0.9525,-0.94897 0,-0.52564 0.426861,-0.9525 0.9525,-0.9525 H 98.53944 c 0.525639,0 0.948972,0.42686 0.948972,0.9525 0,0.52563 -0.423333,0.94897 -0.948972,0.94897"
       style="fill:#854adb;fill-opacity:1;fill-rule:nonzero;stroke:none;stroke-width:0.0352778"
       id="path778" />
    <path
       d="m 46.434159,194.3399 c -0.176389,0 -0.3175,0.14076 -0.3175,0.31715 0,0.17286 0.141111,0.3175 0.3175,0.3175 0.172861,0 0.313972,-0.14464 0.313972,-0.3175 0,-0.17639 -0.141111,-0.31715 -0.313972,-0.31715 z m 0,2.53612 c -1.224139,0 -2.2225,-0.99483 -2.2225,-2.21897 0,-1.22414 0.998361,-2.22215 2.2225,-2.22215 1.224139,0 2.218972,0.99801 2.218972,2.22215 0,1.22414 -0.994833,2.21897 -2.218972,2.21897"
       style="fill:#854adb;fill-opacity:1;fill-rule:nonzero;stroke:none;stroke-width:0.0352778"
       id="path780" />
    <path
       d="m 53.031104,194.3399 c -0.176389,0 -0.3175,0.14076 -0.3175,0.31715 0,0.17286 0.141111,0.3175 0.3175,0.3175 0.172861,0 0.3175,-0.14464 0.3175,-0.3175 0,-0.17639 -0.144639,-0.31715 -0.3175,-0.31715 z m 0,2.53612 c -1.224139,0 -2.2225,-0.99483 -2.2225,-2.21897 0,-1.22414 0.998361,-2.22215 2.2225,-2.22215 1.224139,0 2.218972,0.99801 2.218972,2.22215 0,1.22414 -0.994833,2.21897 -2.218972,2.21897"
       style="fill:#854adb;fill-opacity:1;fill-rule:nonzero;stroke:none;stroke-width:0.0352778"
       id="path782" />
    <path
       d="m 59.882049,194.3399 c -0.176389,0 -0.3175,0.14076 -0.3175,0.31715 0,0.17286 0.141111,0.3175 0.3175,0.3175 0.172861,0 0.3175,-0.14464 0.3175,-0.3175 0,-0.17639 -0.144639,-0.31715 -0.3175,-0.31715 z m 0,2.53612 c -1.227667,0 -2.2225,-0.99483 -2.2225,-2.21897 0,-1.22414 0.994833,-2.22215 2.2225,-2.22215 1.224139,0 2.218972,0.99801 2.218972,2.22215 0,1.22414 -0.994833,2.21897 -2.218972,2.21897"
       style="fill:#854adb;fill-opacity:1;fill-rule:nonzero;stroke:none;stroke-width:0.0352778"
       id="path784" />
  </g>
</svg>
