<?xml version="1.0" encoding="UTF-8" standalone="no"?>
<!-- Created with Inkscape (http://www.inkscape.org/) -->

<svg
   width="59.615921mm"
   height="31.753531mm"
   viewBox="0 0 59.615921 31.753531"
   version="1.1"
   id="svg9900"
   inkscape:version="1.1 (c4e8f9ed74, 2021-05-24)"
   sodipodi:docname="mail.svg"
   xmlns:inkscape="http://www.inkscape.org/namespaces/inkscape"
   xmlns:sodipodi="http://sodipodi.sourceforge.net/DTD/sodipodi-0.dtd"
   xmlns="http://www.w3.org/2000/svg"
   xmlns:svg="http://www.w3.org/2000/svg">
  <sodipodi:namedview
     id="namedview9902"
     pagecolor="#ffffff"
     bordercolor="#666666"
     borderopacity="1.0"
     inkscape:pageshadow="2"
     inkscape:pageopacity="0.0"
     inkscape:pagecheckerboard="0"
     inkscape:document-units="mm"
     showgrid="false"
     inkscape:zoom="0.64306408"
     inkscape:cx="-403.53677"
     inkscape:cy="-117.40665"
     inkscape:window-width="1920"
     inkscape:window-height="1051"
     inkscape:window-x="1366"
     inkscape:window-y="0"
     inkscape:window-maximized="1"
     inkscape:current-layer="layer1" />
  <defs
     id="defs9897" />
  <g
     inkscape:label="Layer 1"
     inkscape:groupmode="layer"
     id="layer1"
     transform="translate(-107.75599,-179.82091)">
    <path
       d="m 166.42047,211.57444 h -43.83899 c -0.52529,0 -0.95144,-0.42334 -0.95144,-0.94898 0,-0.52564 0.42615,-0.9525 0.95144,-0.9525 h 42.8872 v -27.94705 h -41.93576 v 15.68802 c 0,0.52564 -0.4258,0.9525 -0.95144,0.9525 -0.52529,0 -0.95144,-0.42686 -0.95144,-0.9525 v -16.64052 c 0,-0.52564 0.42615,-0.9525 0.95144,-0.9525 h 43.83899 c 0.52564,0 0.95144,0.42686 0.95144,0.9525 v 29.85205 c 0,0.52564 -0.4258,0.94898 -0.95144,0.94898"
       style="fill:#854adb;fill-opacity:1;fill-rule:nonzero;stroke:none;stroke-width:0.0352778"
       id="path182" />
    <path
       d="m 144.50133,200.34905 c -0.21908,0 -0.4385,-0.0741 -0.61595,-0.22578 l -21.91985,-18.62314 c -0.4004,-0.3422 -0.44944,-0.94192 -0.10901,-1.34056 0.34008,-0.40216 0.94051,-0.45155 1.34126,-0.10936 l 21.30355,18.10103 21.30284,-18.10103 c 0.40111,-0.34219 1.00048,-0.2928 1.34126,0.10936 0.34008,0.39864 0.29139,0.99836 -0.10866,1.34056 l -21.91914,18.62314 c -0.17745,0.15169 -0.39687,0.22578 -0.6163,0.22578"
       style="fill:#854adb;fill-opacity:1;fill-rule:nonzero;stroke:none;stroke-width:0.0352778"
       id="path184" />
    <path
       d="m 121.72352,195.68532 h -12.04595 c -0.52493,0 -0.95144,-0.42333 -0.95144,-0.94897 0,-0.52564 0.42651,-0.9525 0.95144,-0.9525 h 12.04595 c 0.526,0 0.9518,0.42686 0.9518,0.9525 0,0.52564 -0.4258,0.94897 -0.9518,0.94897"
       style="fill:#ffcf46;fill-opacity:1;fill-rule:nonzero;stroke:none;stroke-width:0.0352778"
       id="path186" />
    <path
       d="m 121.72352,211.57444 h -13.01609 c -0.52563,0 -0.95144,-0.42334 -0.95144,-0.94898 0,-0.52564 0.42581,-0.9525 0.95144,-0.9525 h 13.01609 c 0.526,0 0.9518,0.42686 0.9518,0.9525 0,0.52564 -0.4258,0.94898 -0.9518,0.94898"
       style="fill:#ffcf46;fill-opacity:1;fill-rule:nonzero;stroke:none;stroke-width:0.0352778"
       id="path188" />
    <path
       d="m 137.66485,204.5083 h -21.9643 c -0.52529,0 -0.95144,-0.42686 -0.95144,-0.9525 0,-0.52564 0.42615,-0.9525 0.95144,-0.9525 h 21.9643 c 0.52528,0 0.95144,0.42686 0.95144,0.9525 0,0.52564 -0.42616,0.9525 -0.95144,0.9525"
       style="fill:#ffcf46;fill-opacity:1;fill-rule:nonzero;stroke:none;stroke-width:0.0352778"
       id="path190" />
  </g>
</svg>
