<?xml version="1.0" encoding="UTF-8" standalone="no"?>
<!-- Created with Inkscape (http://www.inkscape.org/) -->

<svg
   width="60.561375mm"
   height="61.069359mm"
   viewBox="0 0 60.561375 61.069359"
   version="1.1"
   id="svg9018"
   inkscape:version="1.1 (c4e8f9ed74, 2021-05-24)"
   sodipodi:docname="many-processes.svg"
   xmlns:inkscape="http://www.inkscape.org/namespaces/inkscape"
   xmlns:sodipodi="http://sodipodi.sourceforge.net/DTD/sodipodi-0.dtd"
   xmlns="http://www.w3.org/2000/svg"
   xmlns:svg="http://www.w3.org/2000/svg">
  <sodipodi:namedview
     id="namedview9020"
     pagecolor="#ffffff"
     bordercolor="#666666"
     borderopacity="1.0"
     inkscape:pageshadow="2"
     inkscape:pageopacity="0.0"
     inkscape:pagecheckerboard="0"
     inkscape:document-units="mm"
     showgrid="false"
     fit-margin-top="0"
     fit-margin-left="0"
     fit-margin-right="0"
     fit-margin-bottom="0"
     inkscape:zoom="1.2861282"
     inkscape:cx="-33.822446"
     inkscape:cy="148.89651"
     inkscape:window-width="1920"
     inkscape:window-height="1051"
     inkscape:window-x="1366"
     inkscape:window-y="0"
     inkscape:window-maximized="1"
     inkscape:current-layer="layer1" />
  <defs
     id="defs9015" />
  <g
     inkscape:label="Layer 1"
     inkscape:groupmode="layer"
     id="layer1"
     transform="translate(-71.781685,-109.36174)">
    <path
       d="m 74.543935,110.88221 c -0.68439,0 -1.24178,0.55739 -1.24178,1.23825 v 23.17397 c 0,0.68439 0.55739,1.23825 1.24178,1.23825 h 23.17045 c 0.68439,0 1.24177,-0.55386 1.24177,-1.23825 v -23.17397 c 0,-0.68086 -0.55738,-1.23825 -1.24177,-1.23825 z m 23.17045,27.17447 h -23.17045 c -1.524,0 -2.76225,-1.23825 -2.76225,-2.76225 v -23.17397 c 0,-1.52047 1.23825,-2.75872 2.76225,-2.75872 h 23.17045 c 1.524,0 2.762255,1.23825 2.762255,2.75872 v 23.17397 c 0,1.524 -1.238255,2.76225 -2.762255,2.76225"
       style="fill:#854adb;fill-opacity:1;fill-rule:nonzero;stroke:none;stroke-width:0.0352778"
       id="path5344" />
    <path
       d="m 129.58081,138.05668 h -23.17398 c -1.52047,0 -2.76225,-1.23825 -2.76225,-2.76225 v -23.17397 c 0,-1.52047 1.24178,-2.75872 2.76225,-2.75872 h 23.17398 c 1.524,0 2.76225,1.23825 2.76225,2.75872 v 17.52953 c 0,0.42333 -0.3422,0.762 -0.762,0.762 -0.41981,0 -0.762,-0.33867 -0.762,-0.762 v -17.52953 c 0,-0.68086 -0.55387,-1.23825 -1.23825,-1.23825 h -23.17398 c -0.68439,0 -1.23825,0.55739 -1.23825,1.23825 v 23.17397 c 0,0.68439 0.55386,1.23825 1.23825,1.23825 h 23.17398 c 0.68438,0 1.23825,-0.55386 1.23825,-1.23825 v -1.86266 c 0,-0.42334 0.34219,-0.76201 0.762,-0.76201 0.4198,0 0.762,0.33867 0.762,0.76201 v 1.86266 c 0,1.524 -1.23825,2.76225 -2.76225,2.76225"
       style="fill:#854adb;fill-opacity:1;fill-rule:nonzero;stroke:none;stroke-width:0.0352778"
       id="path5346" />
    <path
       d="m 74.543935,143.26015 c -0.68439,0 -1.24178,0.55387 -1.24178,1.23825 v 23.17398 c 0,0.68086 0.55739,1.23825 1.24178,1.23825 h 23.17045 c 0.68439,0 1.24177,-0.55739 1.24177,-1.23825 V 144.4984 c 0,-0.68438 -0.55738,-1.23825 -1.24177,-1.23825 z m 23.17045,27.17095 h -23.17045 c -1.524,0 -2.76225,-1.23825 -2.76225,-2.75872 V 144.4984 c 0,-1.524 1.23825,-2.76225 2.76225,-2.76225 h 23.17045 c 1.524,0 2.762255,1.23825 2.762255,2.76225 v 23.17398 c 0,1.52047 -1.238255,2.75872 -2.762255,2.75872"
       style="fill:#854adb;fill-opacity:1;fill-rule:nonzero;stroke:none;stroke-width:0.0352778"
       id="path5348" />
    <path
       d="m 106.40683,143.26015 c -0.68439,0 -1.23825,0.55387 -1.23825,1.23825 v 23.17398 c 0,0.68086 0.55386,1.23825 1.23825,1.23825 h 23.17398 c 0.68438,0 1.23825,-0.55739 1.23825,-1.23825 V 144.4984 c 0,-0.68438 -0.55387,-1.23825 -1.23825,-1.23825 z m 23.17398,27.17095 h -23.17398 c -1.52047,0 -2.76225,-1.23825 -2.76225,-2.75872 V 144.4984 c 0,-1.524 1.24178,-2.76225 2.76225,-2.76225 h 23.17398 c 1.524,0 2.76225,1.23825 2.76225,2.76225 v 23.17398 c 0,1.52047 -1.23825,2.75872 -2.76225,2.75872"
       style="fill:#854adb;fill-opacity:1;fill-rule:nonzero;stroke:none;stroke-width:0.0352778"
       id="path5350" />
    <path
       d="m 118.53886,151.22235 c -0.82197,0 -1.49225,0.67028 -1.49225,1.49225 0,0.82197 0.67028,1.49225 1.49225,1.49225 0.82197,0 1.49225,-0.67028 1.49225,-1.49225 0,-0.82197 -0.67028,-1.49225 -1.49225,-1.49225 z m 0,4.50497 c -1.66158,0 -3.01272,-1.35114 -3.01272,-3.01272 0,-1.66158 1.35114,-3.01625 3.01272,-3.01625 1.66158,0 3.01625,1.35467 3.01625,3.01625 0,1.66158 -1.35467,3.01272 -3.01625,3.01272"
       style="fill:#854adb;fill-opacity:1;fill-rule:nonzero;stroke:none;stroke-width:0.0352778"
       id="path5352" />
    <path
       d="m 125.7955,154.59138 c -0.82197,0 -1.49225,0.67028 -1.49225,1.49225 0,0.82197 0.67028,1.49225 1.49225,1.49225 0.82197,0 1.49225,-0.67028 1.49225,-1.49225 0,-0.82197 -0.67028,-1.49225 -1.49225,-1.49225 z m 0,4.5085 c -1.66158,0 -3.01272,-1.35467 -3.01272,-3.01625 0,-1.66159 1.35114,-3.01272 3.01272,-3.01272 1.66158,0 3.01625,1.35113 3.01625,3.01272 0,1.66158 -1.35467,3.01625 -3.01625,3.01625"
       style="fill:#854adb;fill-opacity:1;fill-rule:nonzero;stroke:none;stroke-width:0.0352778"
       id="path5354" />
    <path
       d="m 111.28222,157.43477 c -0.82197,0 -1.49225,0.67027 -1.49225,1.49577 0,0.82198 0.67028,1.49225 1.49225,1.49225 0.8255,0 1.49225,-0.67027 1.49225,-1.49225 0,-0.8255 -0.66675,-1.49577 -1.49225,-1.49577 z m 0,4.5085 c -1.66158,0 -3.01272,-1.35114 -3.01272,-3.01273 0,-1.66511 1.35114,-3.01625 3.01272,-3.01625 1.66158,0 3.01625,1.35114 3.01625,3.01625 0,1.66159 -1.35467,3.01273 -3.01625,3.01273"
       style="fill:#854adb;fill-opacity:1;fill-rule:nonzero;stroke:none;stroke-width:0.0352778"
       id="path5356" />
    <path
       d="m 125.7955,154.60196 c -0.41981,0 -0.762,-0.34219 -0.762,-0.75847 v -7.99747 c 0,-0.41981 0.34219,-0.762 0.762,-0.762 0.41981,0 0.762,0.34219 0.762,0.762 v 7.99747 c 0,0.41628 -0.34219,0.75847 -0.762,0.75847"
       style="fill:#854adb;fill-opacity:1;fill-rule:nonzero;stroke:none;stroke-width:0.0352778"
       id="path5358" />
    <path
       d="m 125.7955,166.05666 c -0.41981,0 -0.762,-0.3422 -0.762,-0.762 v -6.95678 c 0,-0.41981 0.34219,-0.762 0.762,-0.762 0.41981,0 0.762,0.34219 0.762,0.762 v 6.95678 c 0,0.4198 -0.34219,0.762 -0.762,0.762"
       style="fill:#854adb;fill-opacity:1;fill-rule:nonzero;stroke:none;stroke-width:0.0352778"
       id="path5360" />
    <path
       d="m 118.29192,151.22235 c -0.41981,0 -0.762,-0.34219 -0.762,-0.762 v -4.61433 c 0,-0.41981 0.34219,-0.762 0.762,-0.762 0.4198,0 0.762,0.34219 0.762,0.762 v 4.61433 c 0,0.41981 -0.3422,0.762 -0.762,0.762"
       style="fill:#854adb;fill-opacity:1;fill-rule:nonzero;stroke:none;stroke-width:0.0352778"
       id="path5362" />
    <path
       d="m 118.53886,166.05666 c -0.41981,0 -0.75847,-0.3422 -0.75847,-0.762 v -10.32934 c 0,-0.41628 0.33866,-0.75847 0.75847,-0.75847 0.41981,0 0.762,0.34219 0.762,0.75847 v 10.32934 c 0,0.4198 -0.34219,0.762 -0.762,0.762"
       style="fill:#854adb;fill-opacity:1;fill-rule:nonzero;stroke:none;stroke-width:0.0352778"
       id="path5364" />
    <path
       d="m 111.28222,157.43477 c -0.4198,0 -0.75847,-0.33867 -0.75847,-0.75848 v -10.83027 c 0,-0.41981 0.33867,-0.762 0.75847,-0.762 0.42333,0 0.762,0.34219 0.762,0.762 v 10.83027 c 0,0.41981 -0.33867,0.75848 -0.762,0.75848"
       style="fill:#854adb;fill-opacity:1;fill-rule:nonzero;stroke:none;stroke-width:0.0352778"
       id="path5366" />
    <path
       d="m 110.71425,130.99054 h 14.55914 v -14.56266 h -14.55914 z m 14.59794,1.52047 h -14.63675 c -0.81844,0 -1.48519,-0.66675 -1.48519,-1.48519 V 116.3926 c 0,-0.82197 0.66675,-1.48872 1.48519,-1.48872 h 14.63675 c 0.81845,0 1.4852,0.66675 1.4852,1.48872 v 14.63322 c 0,0.81844 -0.66675,1.48519 -1.4852,1.48519"
       style="fill:#854adb;fill-opacity:1;fill-rule:nonzero;stroke:none;stroke-width:0.0352778"
       id="path5368" />
    <path
       d="m 111.62442,116.42788 c -0.41981,0 -0.762,-0.3422 -0.762,-0.762 v -1.8662 c 0,-0.42333 0.34219,-0.762 0.762,-0.762 0.4198,0 0.762,0.33867 0.762,0.762 v 1.8662 c 0,0.4198 -0.3422,0.762 -0.762,0.762"
       style="fill:#854adb;fill-opacity:1;fill-rule:nonzero;stroke:none;stroke-width:0.0352778"
       id="path5370" />
    <path
       d="m 113.44475,116.42788 c -0.41981,0 -0.762,-0.3422 -0.762,-0.762 v -1.8662 c 0,-0.42333 0.34219,-0.762 0.762,-0.762 0.4198,0 0.762,0.33867 0.762,0.762 v 1.8662 c 0,0.4198 -0.3422,0.762 -0.762,0.762"
       style="fill:#854adb;fill-opacity:1;fill-rule:nonzero;stroke:none;stroke-width:0.0352778"
       id="path5372" />
    <path
       d="m 115.26508,116.42788 c -0.4198,0 -0.762,-0.3422 -0.762,-0.762 v -1.8662 c 0,-0.42333 0.3422,-0.762 0.762,-0.762 0.41981,0 0.762,0.33867 0.762,0.762 v 1.8662 c 0,0.4198 -0.34219,0.762 -0.762,0.762"
       style="fill:#854adb;fill-opacity:1;fill-rule:nonzero;stroke:none;stroke-width:0.0352778"
       id="path5374" />
    <path
       d="m 117.08542,116.42788 c -0.41981,0 -0.762,-0.3422 -0.762,-0.762 v -1.8662 c 0,-0.42333 0.34219,-0.762 0.762,-0.762 0.4198,0 0.75847,0.33867 0.75847,0.762 v 1.8662 c 0,0.4198 -0.33867,0.762 -0.75847,0.762"
       style="fill:#854adb;fill-opacity:1;fill-rule:nonzero;stroke:none;stroke-width:0.0352778"
       id="path5376" />
    <path
       d="m 118.90222,116.42788 c -0.4198,0 -0.75847,-0.3422 -0.75847,-0.762 v -1.8662 c 0,-0.42333 0.33867,-0.762 0.75847,-0.762 0.41981,0 0.762,0.33867 0.762,0.762 v 1.8662 c 0,0.4198 -0.34219,0.762 -0.762,0.762"
       style="fill:#854adb;fill-opacity:1;fill-rule:nonzero;stroke:none;stroke-width:0.0352778"
       id="path5378" />
    <path
       d="m 120.72255,116.42788 c -0.4198,0 -0.75847,-0.3422 -0.75847,-0.762 v -1.8662 c 0,-0.42333 0.33867,-0.762 0.75847,-0.762 0.41981,0 0.76201,0.33867 0.76201,0.762 v 1.8662 c 0,0.4198 -0.3422,0.762 -0.76201,0.762"
       style="fill:#854adb;fill-opacity:1;fill-rule:nonzero;stroke:none;stroke-width:0.0352778"
       id="path5380" />
    <path
       d="m 122.54289,116.42788 c -0.41981,0 -0.762,-0.3422 -0.762,-0.762 v -1.8662 c 0,-0.42333 0.34219,-0.762 0.762,-0.762 0.4198,0 0.762,0.33867 0.762,0.762 v 1.8662 c 0,0.4198 -0.3422,0.762 -0.762,0.762"
       style="fill:#854adb;fill-opacity:1;fill-rule:nonzero;stroke:none;stroke-width:0.0352778"
       id="path5382" />
    <path
       d="m 124.36322,116.42788 c -0.4198,0 -0.762,-0.3422 -0.762,-0.762 v -1.8662 c 0,-0.42333 0.3422,-0.762 0.762,-0.762 0.41981,0 0.762,0.33867 0.762,0.762 v 1.8662 c 0,0.4198 -0.34219,0.762 -0.762,0.762"
       style="fill:#854adb;fill-opacity:1;fill-rule:nonzero;stroke:none;stroke-width:0.0352778"
       id="path5384" />
    <path
       d="m 111.62442,134.38074 c -0.41981,0 -0.762,-0.3422 -0.762,-0.762 v -1.8662 c 0,-0.42333 0.34219,-0.762 0.762,-0.762 0.4198,0 0.762,0.33867 0.762,0.762 v 1.8662 c 0,0.4198 -0.3422,0.762 -0.762,0.762"
       style="fill:#854adb;fill-opacity:1;fill-rule:nonzero;stroke:none;stroke-width:0.0352778"
       id="path5386" />
    <path
       d="m 113.44475,134.38074 c -0.41981,0 -0.762,-0.3422 -0.762,-0.762 v -1.8662 c 0,-0.42333 0.34219,-0.762 0.762,-0.762 0.4198,0 0.762,0.33867 0.762,0.762 v 1.8662 c 0,0.4198 -0.3422,0.762 -0.762,0.762"
       style="fill:#854adb;fill-opacity:1;fill-rule:nonzero;stroke:none;stroke-width:0.0352778"
       id="path5388" />
    <path
       d="m 115.26508,134.38074 c -0.4198,0 -0.762,-0.3422 -0.762,-0.762 v -1.8662 c 0,-0.42333 0.3422,-0.762 0.762,-0.762 0.41981,0 0.762,0.33867 0.762,0.762 v 1.8662 c 0,0.4198 -0.34219,0.762 -0.762,0.762"
       style="fill:#854adb;fill-opacity:1;fill-rule:nonzero;stroke:none;stroke-width:0.0352778"
       id="path5390" />
    <path
       d="m 117.08542,134.38074 c -0.41981,0 -0.762,-0.3422 -0.762,-0.762 v -1.8662 c 0,-0.42333 0.34219,-0.762 0.762,-0.762 0.4198,0 0.75847,0.33867 0.75847,0.762 v 1.8662 c 0,0.4198 -0.33867,0.762 -0.75847,0.762"
       style="fill:#854adb;fill-opacity:1;fill-rule:nonzero;stroke:none;stroke-width:0.0352778"
       id="path5392" />
    <path
       d="m 118.90222,134.38074 c -0.4198,0 -0.75847,-0.3422 -0.75847,-0.762 v -1.8662 c 0,-0.42333 0.33867,-0.762 0.75847,-0.762 0.41981,0 0.762,0.33867 0.762,0.762 v 1.8662 c 0,0.4198 -0.34219,0.762 -0.762,0.762"
       style="fill:#854adb;fill-opacity:1;fill-rule:nonzero;stroke:none;stroke-width:0.0352778"
       id="path5394" />
    <path
       d="m 120.72255,134.38074 c -0.4198,0 -0.75847,-0.3422 -0.75847,-0.762 v -1.8662 c 0,-0.42333 0.33867,-0.762 0.75847,-0.762 0.41981,0 0.76201,0.33867 0.76201,0.762 v 1.8662 c 0,0.4198 -0.3422,0.762 -0.76201,0.762"
       style="fill:#854adb;fill-opacity:1;fill-rule:nonzero;stroke:none;stroke-width:0.0352778"
       id="path5396" />
    <path
       d="m 122.54289,134.38074 c -0.41981,0 -0.762,-0.3422 -0.762,-0.762 v -1.8662 c 0,-0.42333 0.34219,-0.762 0.762,-0.762 0.4198,0 0.762,0.33867 0.762,0.762 v 1.8662 c 0,0.4198 -0.3422,0.762 -0.762,0.762"
       style="fill:#854adb;fill-opacity:1;fill-rule:nonzero;stroke:none;stroke-width:0.0352778"
       id="path5398" />
    <path
       d="m 124.36322,134.38074 c -0.4198,0 -0.762,-0.3422 -0.762,-0.762 v -1.8662 c 0,-0.42333 0.3422,-0.762 0.762,-0.762 0.41981,0 0.762,0.33867 0.762,0.762 v 1.8662 c 0,0.4198 -0.34219,0.762 -0.762,0.762"
       style="fill:#854adb;fill-opacity:1;fill-rule:nonzero;stroke:none;stroke-width:0.0352778"
       id="path5400" />
    <path
       d="m 127.90511,130.83885 h -1.86972 c -0.41981,0 -0.762,-0.3422 -0.762,-0.762 0,-0.41981 0.34219,-0.762 0.762,-0.762 h 1.86972 c 0.41981,0 0.762,0.34219 0.762,0.762 0,0.4198 -0.34219,0.762 -0.762,0.762"
       style="fill:#854adb;fill-opacity:1;fill-rule:nonzero;stroke:none;stroke-width:0.0352778"
       id="path5402" />
    <path
       d="m 127.90511,129.01851 h -1.86972 c -0.41981,0 -0.762,-0.34219 -0.762,-0.762 0,-0.4198 0.34219,-0.75847 0.762,-0.75847 h 1.86972 c 0.41981,0 0.762,0.33867 0.762,0.75847 0,0.41981 -0.34219,0.762 -0.762,0.762"
       style="fill:#854adb;fill-opacity:1;fill-rule:nonzero;stroke:none;stroke-width:0.0352778"
       id="path5404" />
    <path
       d="m 127.90511,127.19818 h -1.86972 c -0.41981,0 -0.762,-0.34219 -0.762,-0.75847 0,-0.42333 0.34219,-0.762 0.762,-0.762 h 1.86972 c 0.41981,0 0.762,0.33867 0.762,0.762 0,0.41628 -0.34219,0.75847 -0.762,0.75847"
       style="fill:#854adb;fill-opacity:1;fill-rule:nonzero;stroke:none;stroke-width:0.0352778"
       id="path5406" />
    <path
       d="m 127.90511,125.37785 h -1.86972 c -0.41981,0 -0.762,-0.33867 -0.762,-0.75847 0,-0.42334 0.34219,-0.762 0.762,-0.762 h 1.86972 c 0.41981,0 0.762,0.33866 0.762,0.762 0,0.4198 -0.34219,0.75847 -0.762,0.75847"
       style="fill:#854adb;fill-opacity:1;fill-rule:nonzero;stroke:none;stroke-width:0.0352778"
       id="path5408" />
    <path
       d="m 127.90511,123.56104 h -1.86972 c -0.41981,0 -0.762,-0.34219 -0.762,-0.762 0,-0.4198 0.34219,-0.762 0.762,-0.762 h 1.86972 c 0.41981,0 0.762,0.3422 0.762,0.762 0,0.41981 -0.34219,0.762 -0.762,0.762"
       style="fill:#854adb;fill-opacity:1;fill-rule:nonzero;stroke:none;stroke-width:0.0352778"
       id="path5410" />
    <path
       d="m 127.90511,121.74071 h -1.86972 c -0.41981,0 -0.762,-0.3422 -0.762,-0.762 0,-0.41981 0.34219,-0.762 0.762,-0.762 h 1.86972 c 0.41981,0 0.762,0.34219 0.762,0.762 0,0.4198 -0.34219,0.762 -0.762,0.762"
       style="fill:#854adb;fill-opacity:1;fill-rule:nonzero;stroke:none;stroke-width:0.0352778"
       id="path5412" />
    <path
       d="m 127.90511,119.92038 h -1.86972 c -0.41981,0 -0.762,-0.3422 -0.762,-0.762 0,-0.41981 0.34219,-0.762 0.762,-0.762 h 1.86972 c 0.41981,0 0.762,0.34219 0.762,0.762 0,0.4198 -0.34219,0.762 -0.762,0.762"
       style="fill:#854adb;fill-opacity:1;fill-rule:nonzero;stroke:none;stroke-width:0.0352778"
       id="path5414" />
    <path
       d="m 127.90511,118.10004 h -1.86972 c -0.41981,0 -0.762,-0.33866 -0.762,-0.762 0,-0.4198 0.34219,-0.75847 0.762,-0.75847 h 1.86972 c 0.41981,0 0.762,0.33867 0.762,0.75847 0,0.42334 -0.34219,0.762 -0.762,0.762"
       style="fill:#854adb;fill-opacity:1;fill-rule:nonzero;stroke:none;stroke-width:0.0352778"
       id="path5416" />
    <path
       d="m 109.95225,130.83885 h -1.86972 c -0.41981,0 -0.762,-0.3422 -0.762,-0.762 0,-0.41981 0.34219,-0.762 0.762,-0.762 h 1.86972 c 0.4198,0 0.762,0.34219 0.762,0.762 0,0.4198 -0.3422,0.762 -0.762,0.762"
       style="fill:#854adb;fill-opacity:1;fill-rule:nonzero;stroke:none;stroke-width:0.0352778"
       id="path5418" />
    <path
       d="m 109.95225,129.01851 h -1.86972 c -0.41981,0 -0.762,-0.34219 -0.762,-0.762 0,-0.4198 0.34219,-0.75847 0.762,-0.75847 h 1.86972 c 0.4198,0 0.762,0.33867 0.762,0.75847 0,0.41981 -0.3422,0.762 -0.762,0.762"
       style="fill:#854adb;fill-opacity:1;fill-rule:nonzero;stroke:none;stroke-width:0.0352778"
       id="path5420" />
    <path
       d="m 109.95225,127.19818 h -1.86972 c -0.41981,0 -0.762,-0.34219 -0.762,-0.75847 0,-0.42333 0.34219,-0.762 0.762,-0.762 h 1.86972 c 0.4198,0 0.762,0.33867 0.762,0.762 0,0.41628 -0.3422,0.75847 -0.762,0.75847"
       style="fill:#854adb;fill-opacity:1;fill-rule:nonzero;stroke:none;stroke-width:0.0352778"
       id="path5422" />
    <path
       d="m 109.95225,125.37785 h -1.86972 c -0.41981,0 -0.762,-0.33867 -0.762,-0.75847 0,-0.42334 0.34219,-0.762 0.762,-0.762 h 1.86972 c 0.4198,0 0.762,0.33866 0.762,0.762 0,0.4198 -0.3422,0.75847 -0.762,0.75847"
       style="fill:#854adb;fill-opacity:1;fill-rule:nonzero;stroke:none;stroke-width:0.0352778"
       id="path5424" />
    <path
       d="m 109.95225,123.56104 h -1.86972 c -0.41981,0 -0.762,-0.34219 -0.762,-0.762 0,-0.4198 0.34219,-0.762 0.762,-0.762 h 1.86972 c 0.4198,0 0.762,0.3422 0.762,0.762 0,0.41981 -0.3422,0.762 -0.762,0.762"
       style="fill:#854adb;fill-opacity:1;fill-rule:nonzero;stroke:none;stroke-width:0.0352778"
       id="path5426" />
    <path
       d="m 109.95225,121.74071 h -1.86972 c -0.41981,0 -0.762,-0.3422 -0.762,-0.762 0,-0.41981 0.34219,-0.762 0.762,-0.762 h 1.86972 c 0.4198,0 0.762,0.34219 0.762,0.762 0,0.4198 -0.3422,0.762 -0.762,0.762"
       style="fill:#854adb;fill-opacity:1;fill-rule:nonzero;stroke:none;stroke-width:0.0352778"
       id="path5428" />
    <path
       d="m 109.95225,119.92038 h -1.86972 c -0.41981,0 -0.762,-0.3422 -0.762,-0.762 0,-0.41981 0.34219,-0.762 0.762,-0.762 h 1.86972 c 0.4198,0 0.762,0.34219 0.762,0.762 0,0.4198 -0.3422,0.762 -0.762,0.762"
       style="fill:#854adb;fill-opacity:1;fill-rule:nonzero;stroke:none;stroke-width:0.0352778"
       id="path5430" />
    <path
       d="m 109.95225,118.10004 h -1.86972 c -0.41981,0 -0.762,-0.33866 -0.762,-0.762 0,-0.4198 0.34219,-0.75847 0.762,-0.75847 h 1.86972 c 0.4198,0 0.762,0.33867 0.762,0.75847 0,0.42334 -0.3422,0.762 -0.762,0.762"
       style="fill:#854adb;fill-opacity:1;fill-rule:nonzero;stroke:none;stroke-width:0.0352778"
       id="path5432" />
    <path
       d="m 74.395765,157.21604 c -0.4198,0 -0.762,-0.34219 -0.762,-0.762 v -0.86783 c 0,-0.42333 0.3422,-0.762 0.762,-0.762 0.41981,0 0.762,0.33867 0.762,0.762 v 0.86783 c 0,0.41981 -0.34219,0.762 -0.762,0.762"
       style="fill:#854adb;fill-opacity:1;fill-rule:nonzero;stroke:none;stroke-width:0.0352778"
       id="path5434" />
    <path
       d="m 76.530075,157.21604 c -0.41981,0 -0.762,-0.34219 -0.762,-0.762 v -1.73919 c 0,-0.41981 0.34219,-0.75847 0.762,-0.75847 0.41981,0 0.75847,0.33866 0.75847,0.75847 v 1.73919 c 0,0.41981 -0.33866,0.762 -0.75847,0.762"
       style="fill:#854adb;fill-opacity:1;fill-rule:nonzero;stroke:none;stroke-width:0.0352778"
       id="path5436" />
    <path
       d="m 80.795155,157.21604 c -0.4198,0 -0.762,-0.34219 -0.762,-0.762 v -5.1823 c 0,-0.41981 0.3422,-0.762 0.762,-0.762 0.41981,0 0.762,0.34219 0.762,0.762 v 5.1823 c 0,0.41981 -0.34219,0.762 -0.762,0.762"
       style="fill:#854adb;fill-opacity:1;fill-rule:nonzero;stroke:none;stroke-width:0.0352778"
       id="path5438" />
    <path
       d="m 87.194545,157.21604 c -0.4198,0 -0.762,-0.34219 -0.762,-0.762 v -7.17902 c 0,-0.41981 0.3422,-0.75848 0.762,-0.75848 0.41981,0 0.762,0.33867 0.762,0.75848 v 7.17902 c 0,0.41981 -0.34219,0.762 -0.762,0.762"
       style="fill:#854adb;fill-opacity:1;fill-rule:nonzero;stroke:none;stroke-width:0.0352778"
       id="path5440" />
    <path
       d="m 89.328855,157.21604 c -0.41981,0 -0.762,-0.34219 -0.762,-0.762 v -5.1823 c 0,-0.41981 0.34219,-0.762 0.762,-0.762 0.4198,0 0.762,0.34219 0.762,0.762 v 5.1823 c 0,0.41981 -0.3422,0.762 -0.762,0.762"
       style="fill:#854adb;fill-opacity:1;fill-rule:nonzero;stroke:none;stroke-width:0.0352778"
       id="path5442" />
    <path
       d="m 93.593935,157.21604 c -0.4198,0 -0.762,-0.34219 -0.762,-0.762 v -1.97908 c 0,-0.42333 0.3422,-0.762 0.762,-0.762 0.42334,0 0.762,0.33867 0.762,0.762 v 1.97908 c 0,0.41981 -0.33866,0.762 -0.762,0.762"
       style="fill:#854adb;fill-opacity:1;fill-rule:nonzero;stroke:none;stroke-width:0.0352778"
       id="path5444" />
    <path
       d="m 78.660855,157.21604 c -0.41981,0 -0.75847,-0.34219 -0.75847,-0.762 v -2.90336 c 0,-0.4198 0.33866,-0.762 0.75847,-0.762 0.42333,0 0.762,0.3422 0.762,0.762 v 2.90336 c 0,0.41981 -0.33867,0.762 -0.762,0.762"
       style="fill:#854adb;fill-opacity:1;fill-rule:nonzero;stroke:none;stroke-width:0.0352778"
       id="path5446" />
    <path
       d="m 82.929465,157.21604 c -0.41981,0 -0.762,-0.34219 -0.762,-0.762 V 146.0224 c 0,-0.4198 0.34219,-0.762 0.762,-0.762 0.4198,0 0.762,0.3422 0.762,0.762 v 10.43164 c 0,0.41981 -0.3422,0.762 -0.762,0.762"
       style="fill:#854adb;fill-opacity:1;fill-rule:nonzero;stroke:none;stroke-width:0.0352778"
       id="path5448" />
    <path
       d="m 85.060245,157.21604 c -0.41981,0 -0.75848,-0.34219 -0.75848,-0.762 v -7.0485 c 0,-0.4198 0.33867,-0.762 0.75848,-0.762 0.42333,0 0.762,0.3422 0.762,0.762 v 7.0485 c 0,0.41981 -0.33867,0.762 -0.762,0.762"
       style="fill:#854adb;fill-opacity:1;fill-rule:nonzero;stroke:none;stroke-width:0.0352778"
       id="path5450" />
    <path
       d="m 91.463155,157.21604 c -0.42333,0 -0.762,-0.34219 -0.762,-0.762 v -2.59291 c 0,-0.41981 0.33867,-0.75847 0.762,-0.75847 0.41981,0 0.762,0.33866 0.762,0.75847 v 2.59291 c 0,0.41981 -0.34219,0.762 -0.762,0.762"
       style="fill:#854adb;fill-opacity:1;fill-rule:nonzero;stroke:none;stroke-width:0.0352778"
       id="path5452" />
    <path
       d="m 95.728245,157.21604 c -0.41981,0 -0.762,-0.34219 -0.762,-0.762 v -1.29822 c 0,-0.4198 0.34219,-0.75847 0.762,-0.75847 0.4198,0 0.762,0.33867 0.762,0.75847 v 1.29822 c 0,0.41981 -0.3422,0.762 -0.762,0.762"
       style="fill:#854adb;fill-opacity:1;fill-rule:nonzero;stroke:none;stroke-width:0.0352778"
       id="path5454" />
    <path
       d="m 97.862545,157.21604 c -0.4198,0 -0.762,-0.34219 -0.762,-0.762 v -0.64911 c 0,-0.4198 0.3422,-0.762 0.762,-0.762 0.41981,0 0.762,0.3422 0.762,0.762 v 0.64911 c 0,0.41981 -0.34219,0.762 -0.762,0.762"
       style="fill:#854adb;fill-opacity:1;fill-rule:nonzero;stroke:none;stroke-width:0.0352778"
       id="path5456" />
    <path
       d="m 74.395765,157.34304 c -0.4198,0 -0.762,-0.33866 -0.762,-0.75847 v -0.86783 c 0,-0.42333 0.3422,-0.762 0.762,-0.762 0.41981,0 0.762,0.33867 0.762,0.762 v 0.86783 c 0,0.41981 -0.34219,0.75847 -0.762,0.75847"
       style="fill:#854adb;fill-opacity:1;fill-rule:nonzero;stroke:none;stroke-width:0.0352778"
       id="path5458" />
    <path
       d="m 76.530075,158.21441 c -0.41981,0 -0.762,-0.3422 -0.762,-0.762 v -1.73567 c 0,-0.42333 0.34219,-0.762 0.762,-0.762 0.41981,0 0.75847,0.33867 0.75847,0.762 v 1.73567 c 0,0.4198 -0.33866,0.762 -0.75847,0.762"
       style="fill:#854adb;fill-opacity:1;fill-rule:nonzero;stroke:none;stroke-width:0.0352778"
       id="path5460" />
    <path
       d="m 80.795155,161.65752 c -0.4198,0 -0.762,-0.3422 -0.762,-0.762 v -5.17878 c 0,-0.42333 0.3422,-0.762 0.762,-0.762 0.41981,0 0.762,0.33867 0.762,0.762 v 5.17878 c 0,0.4198 -0.34219,0.762 -0.762,0.762"
       style="fill:#854adb;fill-opacity:1;fill-rule:nonzero;stroke:none;stroke-width:0.0352778"
       id="path5462" />
    <path
       d="m 87.194545,163.65424 c -0.4198,0 -0.762,-0.34219 -0.762,-0.762 v -7.1755 c 0,-0.42333 0.3422,-0.762 0.762,-0.762 0.41981,0 0.762,0.33867 0.762,0.762 v 7.1755 c 0,0.41981 -0.34219,0.762 -0.762,0.762"
       style="fill:#854adb;fill-opacity:1;fill-rule:nonzero;stroke:none;stroke-width:0.0352778"
       id="path5464" />
    <path
       d="m 89.328855,161.65752 c -0.41981,0 -0.762,-0.3422 -0.762,-0.762 v -5.17878 c 0,-0.42333 0.34219,-0.762 0.762,-0.762 0.4198,0 0.762,0.33867 0.762,0.762 v 5.17878 c 0,0.4198 -0.3422,0.762 -0.762,0.762"
       style="fill:#854adb;fill-opacity:1;fill-rule:nonzero;stroke:none;stroke-width:0.0352778"
       id="path5466" />
    <path
       d="m 93.593935,158.45782 c -0.4198,0 -0.762,-0.34219 -0.762,-0.762 v -1.97908 c 0,-0.42333 0.3422,-0.762 0.762,-0.762 0.42334,0 0.762,0.33867 0.762,0.762 v 1.97908 c 0,0.41981 -0.33866,0.762 -0.762,0.762"
       style="fill:#854adb;fill-opacity:1;fill-rule:nonzero;stroke:none;stroke-width:0.0352778"
       id="path5468" />
    <path
       d="m 78.660855,159.37857 c -0.41981,0 -0.75847,-0.33866 -0.75847,-0.762 v -2.89983 c 0,-0.42333 0.33866,-0.762 0.75847,-0.762 0.42333,0 0.762,0.33867 0.762,0.762 v 2.89983 c 0,0.42334 -0.33867,0.762 -0.762,0.762"
       style="fill:#854adb;fill-opacity:1;fill-rule:nonzero;stroke:none;stroke-width:0.0352778"
       id="path5470" />
    <path
       d="m 82.929465,166.90685 c -0.41981,0 -0.762,-0.34219 -0.762,-0.762 v -10.42811 c 0,-0.42333 0.34219,-0.762 0.762,-0.762 0.4198,0 0.762,0.33867 0.762,0.762 v 10.42811 c 0,0.41981 -0.3422,0.762 -0.762,0.762"
       style="fill:#854adb;fill-opacity:1;fill-rule:nonzero;stroke:none;stroke-width:0.0352778"
       id="path5472" />
    <path
       d="m 85.060245,163.52371 c -0.41981,0 -0.75848,-0.34219 -0.75848,-0.762 v -7.04497 c 0,-0.42333 0.33867,-0.762 0.75848,-0.762 0.42333,0 0.762,0.33867 0.762,0.762 v 7.04497 c 0,0.41981 -0.33867,0.762 -0.762,0.762"
       style="fill:#854adb;fill-opacity:1;fill-rule:nonzero;stroke:none;stroke-width:0.0352778"
       id="path5474" />
    <path
       d="m 91.463155,159.06813 c -0.42333,0 -0.762,-0.3422 -0.762,-0.762 v -2.58939 c 0,-0.42333 0.33867,-0.762 0.762,-0.762 0.41981,0 0.762,0.33867 0.762,0.762 v 2.58939 c 0,0.4198 -0.34219,0.762 -0.762,0.762"
       style="fill:#854adb;fill-opacity:1;fill-rule:nonzero;stroke:none;stroke-width:0.0352778"
       id="path5476" />
    <path
       d="m 95.728245,157.77343 c -0.41981,0 -0.762,-0.34219 -0.762,-0.762 v -1.29469 c 0,-0.42333 0.34219,-0.762 0.762,-0.762 0.4198,0 0.762,0.33867 0.762,0.762 v 1.29469 c 0,0.41981 -0.3422,0.762 -0.762,0.762"
       style="fill:#854adb;fill-opacity:1;fill-rule:nonzero;stroke:none;stroke-width:0.0352778"
       id="path5478" />
    <path
       d="m 97.862545,157.12432 c -0.4198,0 -0.762,-0.34219 -0.762,-0.762 v -0.64558 c 0,-0.42333 0.3422,-0.762 0.762,-0.762 0.41981,0 0.762,0.33867 0.762,0.762 v 0.64558 c 0,0.41981 -0.34219,0.762 -0.762,0.762"
       style="fill:#854adb;fill-opacity:1;fill-rule:nonzero;stroke:none;stroke-width:0.0352778"
       id="path5480" />
    <path
       d="m 81.634765,114.46996 c -1.58044,0 -2.86808,1.28764 -2.86808,2.86808 0,1.58397 1.28764,2.87161 2.86808,2.87161 h 10.01889 c 1.58398,0 2.87162,-1.28764 2.87162,-2.87161 0,-1.58044 -1.28764,-2.86808 -2.87162,-2.86808 z m 10.01889,7.26369 h -10.01889 c -2.42005,0 -4.39208,-1.97202 -4.39208,-4.39561 0,-2.42005 1.97203,-4.39208 4.39208,-4.39208 h 10.01889 c 2.42359,0 4.39209,1.97203 4.39209,4.39208 0,2.42359 -1.9685,4.39561 -4.39209,4.39561"
       style="fill:#854adb;fill-opacity:1;fill-rule:nonzero;stroke:none;stroke-width:0.0352778"
       id="path5482" />
    <path
       d="m 91.530185,114.60754 c -1.50636,0 -2.73403,1.22414 -2.73403,2.7305 0,1.50989 1.22767,2.73403 2.73403,2.73403 1.50636,0 2.7305,-1.22414 2.7305,-2.73403 0,-1.50636 -1.22414,-2.7305 -2.7305,-2.7305 z m 0,6.985 c -2.34597,0 -4.2545,-1.90853 -4.2545,-4.2545 0,-2.34597 1.90853,-4.2545 4.2545,-4.2545 2.34597,0 4.2545,1.90853 4.2545,4.2545 0,2.34597 -1.90853,4.2545 -4.2545,4.2545"
       style="fill:#ffcf46;fill-opacity:1;fill-rule:nonzero;stroke:none;stroke-width:0.0352778"
       id="path5484" />
    <path
       d="m 81.634765,125.72357 c -1.58044,0 -2.86808,1.28764 -2.86808,2.87161 0,1.58045 1.28764,2.86808 2.86808,2.86808 h 10.01889 c 1.58398,0 2.87162,-1.28763 2.87162,-2.86808 0,-1.58397 -1.28764,-2.87161 -2.87162,-2.87161 z m 10.01889,7.26369 h -10.01889 c -2.42005,0 -4.39208,-1.97202 -4.39208,-4.39208 0,-2.42358 1.97203,-4.39561 4.39208,-4.39561 h 10.01889 c 2.42359,0 4.39209,1.97203 4.39209,4.39561 0,2.42006 -1.9685,4.39208 -4.39209,4.39208"
       style="fill:#854adb;fill-opacity:1;fill-rule:nonzero;stroke:none;stroke-width:0.0352778"
       id="path5486" />
    <path
       d="m 81.497185,125.86115 c -1.50636,0 -2.7305,1.22767 -2.7305,2.73403 0,1.50636 1.22414,2.7305 2.7305,2.7305 1.50636,0 2.73403,-1.22414 2.73403,-2.7305 0,-1.50636 -1.22767,-2.73403 -2.73403,-2.73403 z m 0,6.98853 c -2.34597,0 -4.2545,-1.90853 -4.2545,-4.2545 0,-2.34597 1.90853,-4.2545 4.2545,-4.2545 2.34597,0 4.2545,1.90853 4.2545,4.2545 0,2.34597 -1.90853,4.2545 -4.2545,4.2545"
       style="fill:#ffcf46;fill-opacity:1;fill-rule:nonzero;stroke:none;stroke-width:0.0352778"
       id="path5488" />
  </g>
</svg>
