<?xml version="1.0" encoding="UTF-8" standalone="no"?>
<!-- Created with Inkscape (http://www.inkscape.org/) -->

<svg
   width="59.411308mm"
   height="51.41013mm"
   viewBox="0 0 59.411308 51.41013"
   version="1.1"
   id="svg9367"
   inkscape:version="1.1 (c4e8f9ed74, 2021-05-24)"
   sodipodi:docname="map.svg"
   xmlns:inkscape="http://www.inkscape.org/namespaces/inkscape"
   xmlns:sodipodi="http://sodipodi.sourceforge.net/DTD/sodipodi-0.dtd"
   xmlns="http://www.w3.org/2000/svg"
   xmlns:svg="http://www.w3.org/2000/svg">
  <sodipodi:namedview
     id="namedview9369"
     pagecolor="#ffffff"
     bordercolor="#666666"
     borderopacity="1.0"
     inkscape:pageshadow="2"
     inkscape:pageopacity="0.0"
     inkscape:pagecheckerboard="0"
     inkscape:document-units="mm"
     showgrid="false"
     inkscape:zoom="0.45968013"
     inkscape:cx="277.36678"
     inkscape:cy="101.1573"
     inkscape:window-width="1920"
     inkscape:window-height="1051"
     inkscape:window-x="1366"
     inkscape:window-y="0"
     inkscape:window-maximized="1"
     inkscape:current-layer="layer1" />
  <defs
     id="defs9364" />
  <g
     inkscape:label="Layer 1"
     inkscape:groupmode="layer"
     id="layer1"
     transform="translate(-31.881555,-122.21938)">
    <path
       d="m 78.603447,155.1122 c -0.363361,0 -0.726722,-0.0247 -1.093611,-0.0776 -3.210278,-0.45508 -5.792611,-2.90336 -6.420556,-6.08894 -0.09878,-0.49389 0.22225,-0.97367 0.716139,-1.06892 0.497417,-0.0988 0.973667,0.22225 1.072444,0.71614 0.479778,2.42358 2.444751,4.28978 4.889501,4.6355 1.538111,0.21872 3.069167,-0.17286 4.310945,-1.10772 1.241777,-0.93486 2.046111,-2.30011 2.264833,-3.84175 0.451556,-3.17853 -1.763889,-6.13481 -4.938889,-6.58636 -2.427111,-0.34925 -4.829528,0.88194 -5.969001,3.05858 -0.232833,0.4445 -0.786694,0.61736 -1.231194,0.381 -0.448028,-0.23283 -0.617361,-0.78317 -0.384528,-1.23119 1.499306,-2.85398 4.646084,-4.4697 7.838723,-4.01461 4.173361,0.59266 7.083778,4.47322 6.491111,8.65011 -0.28575,2.02494 -1.344083,3.81352 -2.973917,5.04119 -1.337027,1.00542 -2.928055,1.53458 -4.572,1.53458"
       style="fill:#ffcf46;fill-opacity:1;fill-rule:nonzero;stroke:none;stroke-width:0.0352778"
       id="path3430" />
    <path
       d="m 78.624614,136.95826 c -5.983112,0 -10.847917,4.87186 -10.847917,10.86203 0,5.22111 8.255,18.98297 10.847917,23.17397 1.478139,-2.39183 4.801306,-7.90222 7.376584,-13.16567 1.710972,-3.49602 2.801055,-6.2865 3.245555,-8.2938 0.148167,-0.66675 0.22225,-1.24531 0.22225,-1.7145 0,-0.82903 -0.09172,-1.65453 -0.278694,-2.45534 -1.139472,-4.94947 -5.485695,-8.40669 -10.565695,-8.40669 z m 0,36.67125 c -0.313972,0 -0.60325,-0.16228 -0.769056,-0.42333 -0.486833,-0.75847 -11.902723,-18.6937 -11.902723,-25.38589 0,-6.99559 5.683251,-12.68589 12.671779,-12.68589 5.933722,0 11.010195,4.0393 12.343695,9.82133 0.215195,0.93486 0.324556,1.89795 0.324556,2.86456 0,0.6103 -0.08467,1.30175 -0.264584,2.10961 -0.47625,2.14842 -1.615722,5.07647 -3.386667,8.6995 -3.443111,7.04144 -8.202083,14.50269 -8.247945,14.57678 -0.169333,0.26105 -0.458611,0.42333 -0.769055,0.42333"
       style="fill:#854adb;fill-opacity:1;fill-rule:nonzero;stroke:none;stroke-width:0.0352778"
       id="path3432" />
    <path
       d="m 48.246918,130.20609 v 32.99884 l 12.862278,-5.6762 V 124.5299 Z m -0.913695,35.30953 c -0.172861,0 -0.345722,-0.0494 -0.497417,-0.14816 -0.257527,-0.16581 -0.41275,-0.45509 -0.41275,-0.762 V 129.6099 c 0,-0.35984 0.211667,-0.68792 0.543278,-0.83256 l 14.68614,-6.48053 c 0.282222,-0.12347 0.606778,-0.0988 0.864306,0.0706 0.261055,0.16933 0.416277,0.45508 0.416277,0.762 v 34.99556 c 0,0.35983 -0.211666,0.68791 -0.543277,0.83608 l -14.68614,6.477 c -0.119945,0.0529 -0.243417,0.0776 -0.370417,0.0776"
       style="fill:#854adb;fill-opacity:1;fill-rule:nonzero;stroke:none;stroke-width:0.0352778"
       id="path3434" />
    <path
       d="m 33.705417,157.52873 12.862278,5.6762 V 130.20609 L 33.705417,124.5299 Z m 13.775973,7.98689 c -0.127,0 -0.250473,-0.0247 -0.370417,-0.0776 l -14.68614,-6.477 c -0.331611,-0.14817 -0.543278,-0.47625 -0.543278,-0.83608 v -34.99556 c 0,-0.30692 0.155223,-0.59267 0.41275,-0.762 0.261056,-0.16933 0.585612,-0.19403 0.867834,-0.0706 l 14.68614,6.48053 c 0.331611,0.14464 0.543277,0.47272 0.543277,0.83256 v 34.99556 c 0,0.30691 -0.155222,0.59619 -0.41275,0.762 -0.151694,0.0988 -0.324555,0.14816 -0.497416,0.14816"
       style="fill:#854adb;fill-opacity:1;fill-rule:nonzero;stroke:none;stroke-width:0.0352778"
       id="path3436" />
    <path
       d="m 67.476835,161.44457 c -0.123472,0 -0.246944,-0.0247 -0.366889,-0.0776 l -5.457472,-2.40595 c -0.331611,-0.14817 -0.543278,-0.47625 -0.543278,-0.83608 v -34.99556 c 0,-0.30692 0.155222,-0.59267 0.41275,-0.762 0.257528,-0.16933 0.585611,-0.19403 0.867834,-0.0706 l 14.686139,6.48053 c 0.331611,0.14464 0.543278,0.47272 0.543278,0.83256 v 6.62516 c 0,0.50448 -0.405694,0.91017 -0.910167,0.91017 -0.504472,0 -0.913694,-0.40569 -0.913694,-0.91017 v -6.02897 L 62.933057,124.5299 v 32.99883 l 4.910667,2.16959 c 0.462139,0.20108 0.670278,0.74083 0.469195,1.20297 -0.151695,0.33867 -0.486834,0.54328 -0.836084,0.54328"
       style="fill:#854adb;fill-opacity:1;fill-rule:nonzero;stroke:none;stroke-width:0.0352778"
       id="path3438" />
  </g>
</svg>
