<?xml version="1.0" encoding="UTF-8" standalone="no"?>
<!-- Created with Inkscape (http://www.inkscape.org/) -->

<svg
   width="66.01355mm"
   height="58.606972mm"
   viewBox="0 0 66.01355 58.606972"
   version="1.1"
   id="svg8615"
   inkscape:version="1.1 (c4e8f9ed74, 2021-05-24)"
   sodipodi:docname="navigator.svg"
   xmlns:inkscape="http://www.inkscape.org/namespaces/inkscape"
   xmlns:sodipodi="http://sodipodi.sourceforge.net/DTD/sodipodi-0.dtd"
   xmlns="http://www.w3.org/2000/svg"
   xmlns:svg="http://www.w3.org/2000/svg">
  <sodipodi:namedview
     id="namedview8617"
     pagecolor="#ffffff"
     bordercolor="#666666"
     borderopacity="1.0"
     inkscape:pageshadow="2"
     inkscape:pageopacity="0.0"
     inkscape:pagecheckerboard="0"
     inkscape:document-units="mm"
     showgrid="false"
     inkscape:zoom="0.45968013"
     inkscape:cx="105.50815"
     inkscape:cy="-120.73613"
     inkscape:window-width="1920"
     inkscape:window-height="1051"
     inkscape:window-x="1366"
     inkscape:window-y="0"
     inkscape:window-maximized="1"
     inkscape:current-layer="layer1" />
  <defs
     id="defs8612" />
  <g
     inkscape:label="Layer 1"
     inkscape:groupmode="layer"
     id="layer1"
     transform="translate(-76.929274,-180.78372)">
    <path
       d="m 92.13188,204.71263 c -0.432153,0 -0.866775,-0.0317 -1.302103,-0.0952 -3.826228,-0.54327 -6.901392,-3.45722 -7.652456,-7.25311 -0.09701,-0.49389 0.224014,-0.97366 0.718609,-1.07244 0.49283,-0.0988 0.973666,0.22578 1.071386,0.71967 0.600428,3.03388 3.059289,5.36575 6.119283,5.79966 1.925814,0.27517 3.841398,-0.21872 5.395737,-1.38641 1.555044,-1.17123 2.561872,-2.87514 2.835275,-4.80484 0.564445,-3.97933 -2.209447,-7.67997 -6.184548,-8.24442 -3.039886,-0.43391 -6.040614,1.1042 -7.468306,3.82412 -0.233538,0.44802 -0.785636,0.61736 -1.231194,0.38452 -0.446617,-0.23283 -0.618772,-0.78669 -0.384528,-1.23119 1.785409,-3.40431 5.538964,-5.32695 9.340851,-4.78367 4.969933,0.70556 8.439854,5.33047 7.733594,10.30817 -0.34078,2.40947 -1.599847,4.54378 -3.543652,6.00428 -1.593498,1.19944 -3.490384,1.83091 -5.447948,1.83091"
       style="fill:#854adb;fill-opacity:1;fill-rule:nonzero;stroke:none;stroke-width:0.0352778"
       id="path2766" />
    <path
       d="m 92.15728,182.60758 c -7.390342,0 -13.40344,6.02191 -13.40344,13.42319 0,6.52639 10.448926,23.83014 13.40344,28.59264 1.70815,-2.75166 5.921375,-9.69786 9.16199,-16.32303 2.08704,-4.26861 3.42089,-7.67997 3.96452,-10.13883 0.18344,-0.8255 0.27658,-1.54164 0.27658,-2.13078 0,-1.02305 -0.11607,-2.04258 -0.34326,-3.03389 -1.41111,-6.11716 -6.781443,-10.3893 -13.05983,-10.3893 z m 0,44.64403 c -0.31115,0 -0.600781,-0.15875 -0.768703,-0.41981 -0.589844,-0.92428 -14.459303,-22.7083 -14.459303,-30.80103 0,-8.40669 6.831189,-15.24705 15.228006,-15.24705 7.13352,0 13.23481,4.85422 14.83819,11.80394 0.25823,1.12183 0.38911,2.28247 0.38911,3.44311 0,0.71967 -0.10724,1.56986 -0.31891,2.52589 -0.57538,2.59997 -1.95686,6.14892 -4.10704,10.54453 -4.188883,8.56545 -9.974439,17.63889 -10.032294,17.73061 -0.16757,0.26106 -0.457553,0.41981 -0.769056,0.41981"
       style="fill:#854adb;fill-opacity:1;fill-rule:nonzero;stroke:none;stroke-width:0.0352778"
       id="path2768" />
    <path
       d="M 135.82659,239.39069 H 90.529916 c -3.923947,0 -7.116234,-3.19264 -7.116234,-7.11553 v -12.51655 c 0,-0.50447 0.408517,-0.9137 0.912284,-0.9137 0.503766,0 0.912283,0.40923 0.912283,0.9137 v 12.51655 c 0,2.91748 2.373842,5.29167 5.291667,5.29167 h 45.296674 c 2.91817,0 5.29166,-2.37419 5.29166,-5.29167 v -32.74483 c 0,-2.91747 -2.37349,-5.29167 -5.29166,-5.29167 H 106.4723 c -0.50342,0 -0.91193,-0.40922 -0.91193,-0.91369 0,-0.50095 0.40851,-0.91017 0.91193,-0.91017 h 29.35429 c 3.92394,0 7.11623,3.19264 7.11623,7.11553 v 32.74483 c 0,3.92289 -3.19229,7.11553 -7.11623,7.11553"
       style="fill:#854adb;fill-opacity:1;fill-rule:nonzero;stroke:none;stroke-width:0.0352778"
       id="path2770" />
    <path
       d="M 136.69548,233.4605 H 89.519913 c -0.503766,0 -0.912283,-0.40922 -0.912283,-0.91017 v -6.31472 c 0,-0.50447 0.408517,-0.91017 0.912283,-0.91017 0.503767,0 0.912284,0.4057 0.912284,0.91017 v 5.40103 H 135.78319 V 199.88663 H 106.4723 c -0.50342,0 -0.91193,-0.40922 -0.91193,-0.91369 0,-0.50447 0.40851,-0.91369 0.91193,-0.91369 h 30.22318 c 0.50447,0 0.91228,0.40922 0.91228,0.91369 v 33.57739 c 0,0.50095 -0.40781,0.91017 -0.91228,0.91017"
       style="fill:#854adb;fill-opacity:1;fill-rule:nonzero;stroke:none;stroke-width:0.0352778"
       id="path2772" />
    <path
       d="m 136.71276,206.05672 h -32.8048 c -0.50377,0 -0.91229,-0.40922 -0.91229,-0.9137 0,-0.50094 0.40852,-0.91016 0.91229,-0.91016 h 32.8048 c 0.50448,0 0.91229,0.40922 0.91229,0.91016 0,0.50448 -0.40781,0.9137 -0.91229,0.9137"
       style="fill:#854adb;fill-opacity:1;fill-rule:nonzero;stroke:none;stroke-width:0.0352778"
       id="path2774" />
    <path
       d="m 103.50755,233.4605 c -0.0737,0 -0.14816,-0.007 -0.22331,-0.0282 -0.48824,-0.11995 -0.78528,-0.61737 -0.66286,-1.1042 l 4.60621,-18.36561 h -7.318723 c -0.503767,0 -0.912284,-0.40922 -0.912284,-0.9137 0,-0.50094 0.408517,-0.91016 0.912284,-0.91016 h 8.488183 c 0.28081,0 0.5461,0.13052 0.71932,0.35278 0.17286,0.21872 0.23424,0.508 0.1651,0.78316 l -4.88986,19.49803 c -0.10407,0.41275 -0.47554,0.68792 -0.88406,0.68792"
       style="fill:#854adb;fill-opacity:1;fill-rule:nonzero;stroke:none;stroke-width:0.0352778"
       id="path2776" />
    <path
       d="m 122.7417,233.4605 c -0.39087,0 -0.75247,-0.25047 -0.87312,-0.64559 l -6.08471,-19.93194 c -0.0847,-0.2787 -0.0332,-0.57856 0.13934,-0.80786 0.17145,-0.23284 0.44345,-0.37042 0.73308,-0.37042 h 20.03919 c 0.50447,0 0.91228,0.40569 0.91228,0.91017 0,0.50447 -0.40781,0.91369 -0.91228,0.91369 h -18.80659 l 5.72559,18.75367 c 0.14675,0.48331 -0.12453,0.99131 -0.60608,1.13947 -0.0889,0.0282 -0.1785,0.0388 -0.2667,0.0388"
       style="fill:#854adb;fill-opacity:1;fill-rule:nonzero;stroke:none;stroke-width:0.0352778"
       id="path2778" />
    <path
       d="m 112.67695,228.85675 c -0.50341,0 -0.91228,-0.4057 -0.91228,-0.91017 v -12.95047 c 0,-3.92289 3.19229,-7.11553 7.11623,-7.11553 h 8.29452 c 0.50376,0 0.91228,0.40569 0.91228,0.91017 0,0.50447 -0.40852,0.91369 -0.91228,0.91369 h -8.29452 c -2.91712,0 -5.29166,2.37419 -5.29166,5.29167 v 12.95047 c 0,0.50447 -0.40852,0.91017 -0.91229,0.91017"
       style="fill:#ffcf46;fill-opacity:1;fill-rule:nonzero;stroke:none;stroke-width:0.0352778"
       id="path2780" />
    <path
       d="m 122.30673,211.31311 c -0.38312,0 -0.73907,-0.23989 -0.86607,-0.62442 -0.1584,-0.47978 0.10125,-0.99483 0.57961,-1.15358 l 2.33363,-0.77259 -2.31458,-0.70908 c -0.48154,-0.14817 -0.75212,-0.65617 -0.60466,-1.13947 0.14746,-0.47978 0.65793,-0.75142 1.13947,-0.60325 l 5.05319,1.54869 c 0.3803,0.11642 0.641,0.46567 0.64488,0.86078 0.005,0.39864 -0.24871,0.75142 -0.62547,0.87842 l -5.05319,1.66864 c -0.0953,0.0318 -0.19156,0.0459 -0.28681,0.0459"
       style="fill:#ffcf46;fill-opacity:1;fill-rule:nonzero;stroke:none;stroke-width:0.0352778"
       id="path2782" />
  </g>
</svg>
