<?xml version="1.0" encoding="UTF-8" standalone="no"?>
<!-- Created with Inkscape (http://www.inkscape.org/) -->

<svg
   width="64.294876mm"
   height="50.016838mm"
   viewBox="0 0 64.294876 50.016838"
   version="1.1"
   id="svg7802"
   inkscape:version="1.1 (c4e8f9ed74, 2021-05-24)"
   sodipodi:docname="omnichannels.svg"
   xmlns:inkscape="http://www.inkscape.org/namespaces/inkscape"
   xmlns:sodipodi="http://sodipodi.sourceforge.net/DTD/sodipodi-0.dtd"
   xmlns="http://www.w3.org/2000/svg"
   xmlns:svg="http://www.w3.org/2000/svg">
  <sodipodi:namedview
     id="namedview7804"
     pagecolor="#ffffff"
     bordercolor="#666666"
     borderopacity="1.0"
     inkscape:pageshadow="2"
     inkscape:pageopacity="0.0"
     inkscape:pagecheckerboard="0"
     inkscape:document-units="mm"
     showgrid="false"
     inkscape:zoom="0.45968013"
     inkscape:cx="-114.20985"
     inkscape:cy="264.31423"
     inkscape:window-width="1920"
     inkscape:window-height="1051"
     inkscape:window-x="1366"
     inkscape:window-y="0"
     inkscape:window-maximized="1"
     inkscape:current-layer="layer1" />
  <defs
     id="defs7799" />
  <g
     inkscape:label="Layer 1"
     inkscape:groupmode="layer"
     id="layer1"
     transform="translate(-31.166505,-78.596233)">
    <path
       d="m 41.196492,111.93373 c -0.169333,0 -0.342195,-0.0494 -0.493889,-0.14463 l -9.115778,-5.85964 c -0.303389,-0.19403 -0.465667,-0.55034 -0.409223,-0.91017 0.02117,-0.13053 0.529167,-3.302 2.056695,-6.413501 0.627944,-1.277055 1.344083,-2.370666 2.12725,-3.256139 0.335139,-0.373944 0.913695,-0.409222 1.291167,-0.07408 0.373944,0.335139 0.409222,0.910167 0.07408,1.287639 -0.677333,0.762 -1.30175,1.718028 -1.855611,2.846917 -1.037167,2.109604 -1.569861,4.303884 -1.781528,5.316354 l 8.117417,5.21759 8.417279,-5.22111 c -0.381,-1.67923 -1.689806,-6.484057 -4.586112,-8.928807 -0.384528,-0.324555 -0.433917,-0.899583 -0.109361,-1.284111 0.328083,-0.388055 0.903111,-0.433917 1.287639,-0.109361 4.035778,3.407834 5.281084,10.311689 5.330473,10.604499 0.0635,0.36689 -0.102306,0.7373 -0.416278,0.93133 l -9.450917,5.85964 c -0.148167,0.0917 -0.313973,0.13758 -0.483306,0.13758"
       style="fill:#854adb;fill-opacity:1;fill-rule:nonzero;stroke:none;stroke-width:0.0352778"
       id="path4320" />
    <path
       d="m 41.196492,95.674206 c -2.988028,0 -5.298723,-3.259667 -6.184195,-6.286501 -0.141111,-0.483305 0.137583,-0.991305 0.620889,-1.132416 0.483306,-0.141111 0.987778,0.137583 1.128889,0.620889 0.705556,2.409472 2.497667,4.974167 4.434417,4.974167 2.278945,0 4.607278,-3.792362 4.748389,-6.734529 0.0247,-0.500944 0.4445,-0.881944 0.956028,-0.867833 0.500944,0.02469 0.889,0.451556 0.867833,0.956028 -0.162277,3.372556 -2.868083,8.470195 -6.57225,8.470195"
       style="fill:#854adb;fill-opacity:1;fill-rule:nonzero;stroke:none;stroke-width:0.0352778"
       id="path4322" />
    <path
       d="m 41.372881,80.420094 c -3.383139,0 -6.134806,2.755194 -6.134806,6.141861 0,0.627945 0.07761,1.234723 0.179917,1.718028 2.275416,-0.324555 5.697361,-1.605139 7.394222,-3.086806 0.462139,-0.402166 0.649111,-0.702027 0.726723,-0.878416 0.169333,-0.398639 0.592666,-0.620889 1.016,-0.53975 0.423333,0.08467 0.73025,0.451555 0.737305,0.885472 0.0035,0.479778 -0.0071,0.956028 -0.03528,1.407583 -0.01411,0.225778 -0.03175,0.433917 -0.04939,0.624417 0.977194,-0.215194 1.894416,-0.546806 2.25425,-0.889 -0.373945,-3.044472 -2.988028,-5.383389 -6.088945,-5.383389 z m -6.635751,9.757834 c -0.391583,0 -0.740833,-0.250473 -0.864305,-0.620889 -0.22225,-0.656167 -0.458611,-1.788584 -0.458611,-2.995084 0,-4.392083 3.570111,-7.965722 7.958667,-7.965722 4.15925,0 7.644695,3.245555 7.941028,7.390694 0.01058,0.165806 -0.02117,0.328084 -0.09525,0.47625 -0.867833,1.725084 -4.328584,2.166056 -5.0165,2.24014 -0.299861,0.02822 -0.592667,-0.08819 -0.786695,-0.317501 -0.197555,-0.229305 -0.264583,-0.53975 -0.186972,-0.829027 0,0 0.03881,-0.151695 0.08467,-0.440973 -2.38125,1.696862 -6.219473,2.945695 -8.533695,3.058584 -0.01411,0 -0.02822,0.0035 -0.04233,0.0035"
       style="fill:#854adb;fill-opacity:1;fill-rule:nonzero;stroke:none;stroke-width:0.0352778"
       id="path4324" />
    <path
       d="m 85.096161,111.93373 c -0.169333,0 -0.342194,-0.0494 -0.490361,-0.14463 l -9.119306,-5.85964 c -0.303389,-0.19403 -0.462139,-0.55034 -0.409222,-0.91017 0.02117,-0.13053 0.529167,-3.302 2.056694,-6.413501 0.627945,-1.277055 1.344084,-2.370666 2.127251,-3.256139 0.335138,-0.373944 0.913694,-0.409222 1.291166,-0.07408 0.373945,0.335139 0.409223,0.910167 0.07408,1.287639 -0.677334,0.762 -1.30175,1.718028 -1.855612,2.846917 -1.033639,2.109604 -1.569861,4.303884 -1.778,5.316354 l 8.11389,5.21759 8.417278,-5.22111 c -0.381,-1.67923 -1.689806,-6.484057 -4.586111,-8.928807 -0.384528,-0.324555 -0.433917,-0.899583 -0.109362,-1.284111 0.328084,-0.388055 0.903112,-0.433917 1.287639,-0.109361 4.039306,3.407834 5.281084,10.311689 5.330473,10.604499 0.06703,0.36689 -0.09878,0.7373 -0.416278,0.93133 l -9.450917,5.85964 c -0.148167,0.0917 -0.313972,0.13758 -0.483306,0.13758"
       style="fill:#854adb;fill-opacity:1;fill-rule:nonzero;stroke:none;stroke-width:0.0352778"
       id="path4326" />
    <path
       d="m 85.096161,95.674206 c -2.988028,0 -5.298722,-3.259667 -6.184194,-6.286501 -0.141112,-0.483305 0.137583,-0.991305 0.620888,-1.132416 0.483306,-0.141111 0.991306,0.137583 1.132417,0.620889 0.702028,2.409472 2.494139,4.974167 4.430889,4.974167 2.278945,0 4.607278,-3.792362 4.74839,-6.734529 0.02469,-0.500944 0.451555,-0.881944 0.956027,-0.867833 0.504473,0.02469 0.892528,0.451556 0.867834,0.956028 -0.162278,3.372556 -2.864556,8.470195 -6.572251,8.470195"
       style="fill:#854adb;fill-opacity:1;fill-rule:nonzero;stroke:none;stroke-width:0.0352778"
       id="path4328" />
    <path
       d="m 85.276078,80.420094 c -3.386667,0 -6.138334,2.755194 -6.138334,6.141861 0,0.627945 0.08114,1.234723 0.179917,1.718028 2.278945,-0.324555 5.697361,-1.605139 7.394223,-3.086806 0.465666,-0.402166 0.652639,-0.702027 0.726722,-0.878416 0.169333,-0.398639 0.596194,-0.620889 1.016,-0.53975 0.423333,0.08467 0.73025,0.451555 0.737306,0.885472 0.0035,0.483306 -0.0035,0.959556 -0.03175,1.407583 -0.01411,0.225778 -0.03175,0.433917 -0.05292,0.624417 0.977194,-0.215194 1.897945,-0.546806 2.25425,-0.889 -0.373944,-3.044472 -2.988028,-5.383389 -6.085417,-5.383389 z M 78.6368,90.177928 c -0.391584,0 -0.740834,-0.250473 -0.864306,-0.620889 -0.22225,-0.659695 -0.458611,-1.788584 -0.458611,-2.995084 0,-4.392083 3.570111,-7.965722 7.962195,-7.965722 4.155723,0 7.641167,3.245555 7.937501,7.390694 0.01058,0.165806 -0.02117,0.328084 -0.09525,0.47625 -0.864306,1.725084 -4.328584,2.166056 -5.012973,2.24014 -0.303389,0.02822 -0.596194,-0.08819 -0.790222,-0.317501 -0.194028,-0.229305 -0.264584,-0.53975 -0.186973,-0.829027 0,0 0.03881,-0.151695 0.08467,-0.440973 -2.38125,1.696862 -6.219472,2.945695 -8.533695,3.058584 -0.01411,0 -0.02822,0.0035 -0.04233,0.0035"
       style="fill:#854adb;fill-opacity:1;fill-rule:nonzero;stroke:none;stroke-width:0.0352778"
       id="path4330" />
    <path
       d="m 62.708882,127.78404 c -2.988028,0 -5.30225,-3.25967 -6.184195,-6.2865 -0.141111,-0.4833 0.134056,-0.9913 0.617361,-1.13242 0.483306,-0.13758 0.991306,0.13759 1.132417,0.62089 0.705556,2.413 2.497667,4.97417 4.434417,4.97417 2.278945,0 4.60375,-3.79236 4.748389,-6.731 0.02469,-0.50447 0.440973,-0.889 0.9525,-0.86783 0.504473,0.0247 0.892528,0.45155 0.867834,0.9525 -0.162278,3.37255 -2.864556,8.47019 -6.568723,8.47019"
       style="fill:#854adb;fill-opacity:1;fill-rule:nonzero;stroke:none;stroke-width:0.0352778"
       id="path4334" />
    <path
       d="m 62.885271,112.53346 c -3.383139,0 -6.134806,2.75166 -6.134806,6.13833 0,0.62795 0.07761,1.23472 0.179917,1.72156 2.275417,-0.32456 5.697361,-1.60867 7.394222,-3.08681 0.462139,-0.40569 0.649112,-0.70203 0.726723,-0.88194 0.165805,-0.39512 0.592666,-0.62089 1.012472,-0.53623 0.423333,0.0811 0.73025,0.45156 0.737306,0.88195 0.0071,0.4833 -0.0035,0.95603 -0.03175,1.40758 -0.01411,0.22931 -0.03175,0.43745 -0.04939,0.62442 0.977194,-0.21167 1.894417,-0.54328 2.25425,-0.889 -0.373945,-3.04095 -2.991556,-5.37986 -6.088944,-5.37986 z m -6.639278,9.7543 c -0.388056,0 -0.737306,-0.24694 -0.864306,-0.62089 -0.22225,-0.65616 -0.458611,-1.78858 -0.458611,-2.99508 0,-4.39208 3.573639,-7.96219 7.962195,-7.96219 4.155723,0 7.644695,3.24555 7.937501,7.39069 0.01411,0.16228 -0.02117,0.32456 -0.09172,0.47272 -0.867833,1.72509 -4.332111,2.16959 -5.0165,2.24014 -0.303389,0.0318 -0.592667,-0.0882 -0.790222,-0.31397 -0.194028,-0.22931 -0.264584,-0.53975 -0.186972,-0.82903 0,0 0.03881,-0.15169 0.08819,-0.44097 -2.384778,1.69686 -6.223,2.94569 -8.533695,3.05858 -0.01411,0 -0.03175,0 -0.04586,0"
       style="fill:#854adb;fill-opacity:1;fill-rule:nonzero;stroke:none;stroke-width:0.0352778"
       id="path4336" />
    <path
       d="m 51.469381,89.617011 c -0.310444,0 -0.613833,-0.162278 -0.786694,-0.448028 -0.254,-0.433916 -0.112889,-0.994833 0.321028,-1.252361 3.580694,-2.123722 7.687028,-3.245556 11.870973,-3.245556 4.021667,0 7.986889,1.040695 11.465278,3.012723 0.440972,0.246944 0.592667,0.804333 0.345722,1.241778 -0.250472,0.440972 -0.807861,0.592666 -1.245305,0.345722 -3.203223,-1.816806 -6.858001,-2.776362 -10.565695,-2.776362 -3.855862,0 -7.641167,1.033639 -10.93964,2.991556 -0.148167,0.08819 -0.306917,0.130528 -0.465667,0.130528"
       style="fill:#ffcf46;fill-opacity:1;fill-rule:nonzero;stroke:none;stroke-width:0.0352778"
       id="path4338" />
    <path
       d="m 73.472133,128.61307 c -0.328084,0 -0.642056,-0.17286 -0.804334,-0.47978 -0.239888,-0.4445 -0.07408,-0.99836 0.370417,-1.23472 5.08,-2.73403 8.900584,-7.47183 10.484556,-12.99634 0.137584,-0.4833 0.645584,-0.762 1.128889,-0.62441 0.483306,0.13758 0.765528,0.64558 0.624417,1.12889 -1.718028,5.99369 -5.863167,11.13366 -11.373556,14.097 -0.137584,0.0741 -0.28575,0.10936 -0.430389,0.10936"
       style="fill:#ffcf46;fill-opacity:1;fill-rule:nonzero;stroke:none;stroke-width:0.0352778"
       id="path4340" />
    <path
       d="m 51.935048,128.42257 c -0.151694,0 -0.306917,-0.0353 -0.448028,-0.11642 -5.242278,-2.94216 -9.105195,-7.71525 -10.876139,-13.44083 -0.148167,-0.48331 0.119944,-0.99131 0.60325,-1.143 0.479778,-0.14817 0.991305,0.12347 1.139472,0.60325 1.629834,5.27755 5.192889,9.67669 10.025945,12.38955 0.440972,0.24695 0.596195,0.80434 0.34925,1.24178 -0.165805,0.29986 -0.47625,0.46567 -0.79375,0.46567"
       style="fill:#ffcf46;fill-opacity:1.0;fill-rule:nonzero;stroke:none;stroke-width:0.0352778"
       id="path4342" />
  </g>
</svg>
