<?xml version="1.0" encoding="UTF-8" standalone="no"?>
<!-- Created with Inkscape (http://www.inkscape.org/) -->

<svg
   width="58.342388mm"
   height="57.781479mm"
   viewBox="0 0 58.342388 57.781479"
   version="1.1"
   id="svg9071"
   inkscape:version="1.1 (c4e8f9ed74, 2021-05-24)"
   sodipodi:docname="phone.svg"
   xmlns:inkscape="http://www.inkscape.org/namespaces/inkscape"
   xmlns:sodipodi="http://sodipodi.sourceforge.net/DTD/sodipodi-0.dtd"
   xmlns="http://www.w3.org/2000/svg"
   xmlns:svg="http://www.w3.org/2000/svg">
  <sodipodi:namedview
     id="namedview9073"
     pagecolor="#ffffff"
     bordercolor="#666666"
     borderopacity="1.0"
     inkscape:pageshadow="2"
     inkscape:pageopacity="0.0"
     inkscape:pagecheckerboard="0"
     inkscape:document-units="mm"
     showgrid="false"
     inkscape:zoom="0.73952369"
     inkscape:cx="-49.356093"
     inkscape:cy="-245.42824"
     inkscape:window-width="1920"
     inkscape:window-height="1051"
     inkscape:window-x="1366"
     inkscape:window-y="0"
     inkscape:window-maximized="1"
     inkscape:current-layer="layer1" />
  <defs
     id="defs9068" />
  <g
     inkscape:label="Layer 1"
     inkscape:groupmode="layer"
     id="layer1"
     transform="translate(-118.17764,-213.42903)">
    <path
       d="m 143.4965,263.65048 h 27.36145 c 2.11666,0 3.83822,-1.72156 3.83822,-3.83822 v -33.35162 c 0,-2.11666 -1.72156,-3.83822 -3.83822,-3.83822 H 143.4965 Z m 27.36145,1.82386 h -28.27514 c -0.50447,0 -0.91017,-0.40922 -0.91017,-0.91369 v -42.8484 c 0,-0.50447 0.4057,-0.91369 0.91017,-0.91369 h 28.27514 c 3.12208,0 5.66208,2.54 5.66208,5.66208 v 33.35162 c 0,3.12208 -2.54,5.66208 -5.66208,5.66208"
       style="fill:#854adb;fill-opacity:1;fill-rule:nonzero;stroke:none;stroke-width:0.0352778"
       id="path2718" />
    <path
       d="m 123.83972,222.62242 c -2.11666,0 -3.83822,1.72156 -3.83822,3.83822 v 33.35162 c 0,2.11666 1.72156,3.83822 3.83822,3.83822 h 2.25425 v -41.02806 z m 3.16795,42.85192 h -3.16795 c -3.12208,0 -5.66208,-2.54 -5.66208,-5.66208 v -33.35162 c 0,-3.12208 2.54,-5.66208 5.66208,-5.66208 h 3.16795 c 0.50447,0 0.91369,0.40922 0.91369,0.91369 v 42.8484 c 0,0.50447 -0.40922,0.91369 -0.91369,0.91369"
       style="fill:#854adb;fill-opacity:1;fill-rule:nonzero;stroke:none;stroke-width:0.0352778"
       id="path2720" />
    <path
       d="m 131.75958,215.25289 c -2.11666,0 -3.83822,1.72156 -3.83822,3.83823 v 46.45378 c 0,2.11666 1.72156,3.84175 3.83822,3.84175 h 6.07131 c 2.11667,0 3.84175,-1.72509 3.84175,-3.84175 v -46.45378 c 0,-2.11667 -1.72508,-3.83823 -3.84175,-3.83823 z m 6.07131,55.95762 h -6.07131 c -3.12208,0 -5.66561,-2.54 -5.66561,-5.66561 v -46.45378 c 0,-3.12209 2.54353,-5.66209 5.66561,-5.66209 h 6.07131 c 3.12561,0 5.66561,2.54 5.66561,5.66209 v 46.45378 c 0,3.12561 -2.54,5.66561 -5.66561,5.66561"
       style="fill:#854adb;fill-opacity:1;fill-rule:nonzero;stroke:none;stroke-width:0.0352778"
       id="path2722" />
    <path
       d="m 153.97047,237.84126 c 0,1.14652 -0.93133,2.07786 -2.07786,2.07786 h -2.67405 c -1.14653,0 -2.07786,-0.93134 -2.07786,-2.07786 v 0 c 0,-1.14653 0.93133,-2.07787 2.07786,-2.07787 h 2.67405 c 1.14653,0 2.07786,0.93134 2.07786,2.07787 v 0"
       style="fill:#854adb;fill-opacity:1;fill-rule:nonzero;stroke:none;stroke-width:0.0352778"
       id="path2724" />
    <path
       d="m 162.41598,237.84126 c 0,1.14652 -0.93134,2.07786 -2.08139,2.07786 h -2.67053 c -1.15006,0 -2.07786,-0.93134 -2.07786,-2.07786 v 0 c 0,-1.14653 0.9278,-2.07787 2.07786,-2.07787 h 2.67053 c 1.15005,0 2.08139,0.93134 2.08139,2.07787 v 0"
       style="fill:#854adb;fill-opacity:1;fill-rule:nonzero;stroke:none;stroke-width:0.0352778"
       id="path2726" />
    <path
       d="m 170.85795,237.84126 c 0,1.14652 -0.93134,2.07786 -2.07786,2.07786 h -2.67406 c -1.14653,0 -2.07786,-0.93134 -2.07786,-2.07786 v 0 c 0,-1.14653 0.93133,-2.07787 2.07786,-2.07787 h 2.67406 c 1.14652,0 2.07786,0.93134 2.07786,2.07787 v 0"
       style="fill:#854adb;fill-opacity:1;fill-rule:nonzero;stroke:none;stroke-width:0.0352778"
       id="path2728" />
    <path
       d="m 153.97047,244.57226 c 0,1.14652 -0.93133,2.07786 -2.07786,2.07786 h -2.67405 c -1.14653,0 -2.07786,-0.93134 -2.07786,-2.07786 v 0 c 0,-1.15006 0.93133,-2.07787 2.07786,-2.07787 h 2.67405 c 1.14653,0 2.07786,0.92781 2.07786,2.07787 v 0"
       style="fill:#854adb;fill-opacity:1;fill-rule:nonzero;stroke:none;stroke-width:0.0352778"
       id="path2730" />
    <path
       d="m 162.41598,244.57226 c 0,1.14652 -0.93134,2.07786 -2.08139,2.07786 h -2.67053 c -1.15006,0 -2.07786,-0.93134 -2.07786,-2.07786 v 0 c 0,-1.15006 0.9278,-2.07787 2.07786,-2.07787 h 2.67053 c 1.15005,0 2.08139,0.92781 2.08139,2.07787 v 0"
       style="fill:#854adb;fill-opacity:1;fill-rule:nonzero;stroke:none;stroke-width:0.0352778"
       id="path2732" />
    <path
       d="m 170.85795,244.57226 c 0,1.14652 -0.93134,2.07786 -2.07786,2.07786 h -2.67406 c -1.14653,0 -2.07786,-0.93134 -2.07786,-2.07786 v 0 c 0,-1.15006 0.93133,-2.07787 2.07786,-2.07787 h 2.67406 c 1.14652,0 2.07786,0.92781 2.07786,2.07787 v 0"
       style="fill:#854adb;fill-opacity:1;fill-rule:nonzero;stroke:none;stroke-width:0.0352778"
       id="path2734" />
    <path
       d="m 153.97047,251.0034 c 0,1.15005 -0.93133,2.08138 -2.07786,2.08138 h -2.67405 c -1.14653,0 -2.07786,-0.93133 -2.07786,-2.08138 v 0 c 0,-1.14653 0.93133,-2.07787 2.07786,-2.07787 h 2.67405 c 1.14653,0 2.07786,0.93134 2.07786,2.07787 v 0"
       style="fill:#854adb;fill-opacity:1;fill-rule:nonzero;stroke:none;stroke-width:0.0352778"
       id="path2736" />
    <path
       d="m 162.41598,251.0034 c 0,1.15005 -0.93134,2.08138 -2.08139,2.08138 h -2.67053 c -1.15006,0 -2.07786,-0.93133 -2.07786,-2.08138 v 0 c 0,-1.14653 0.9278,-2.07787 2.07786,-2.07787 h 2.67053 c 1.15005,0 2.08139,0.93134 2.08139,2.07787 v 0"
       style="fill:#854adb;fill-opacity:1;fill-rule:nonzero;stroke:none;stroke-width:0.0352778"
       id="path2738" />
    <path
       d="m 170.85795,251.0034 c 0,1.15005 -0.93134,2.08138 -2.07786,2.08138 h -2.67406 c -1.14653,0 -2.07786,-0.93133 -2.07786,-2.08138 v 0 c 0,-1.14653 0.93133,-2.07787 2.07786,-2.07787 h 2.67406 c 1.14652,0 2.07786,0.93134 2.07786,2.07787 v 0"
       style="fill:#854adb;fill-opacity:1;fill-rule:nonzero;stroke:none;stroke-width:0.0352778"
       id="path2740" />
    <path
       d="m 153.97047,257.93195 c 0,1.15006 -0.93133,2.08139 -2.07786,2.08139 h -2.67405 c -1.14653,0 -2.07786,-0.93133 -2.07786,-2.08139 v 0 c 0,-1.14653 0.93133,-2.07786 2.07786,-2.07786 h 2.67405 c 1.14653,0 2.07786,0.93133 2.07786,2.07786 v 0"
       style="fill:#854adb;fill-opacity:1;fill-rule:nonzero;stroke:none;stroke-width:0.0352778"
       id="path2742" />
    <path
       d="m 162.41598,257.93195 c 0,1.15006 -0.93134,2.08139 -2.08139,2.08139 h -2.67053 c -1.15006,0 -2.07786,-0.93133 -2.07786,-2.08139 v 0 c 0,-1.14653 0.9278,-2.07786 2.07786,-2.07786 h 2.67053 c 1.15005,0 2.08139,0.93133 2.08139,2.07786 v 0"
       style="fill:#854adb;fill-opacity:1;fill-rule:nonzero;stroke:none;stroke-width:0.0352778"
       id="path2744" />
    <path
       d="m 170.85795,257.93195 c 0,1.15006 -0.93134,2.08139 -2.07786,2.08139 h -2.67406 c -1.14653,0 -2.07786,-0.93133 -2.07786,-2.08139 v 0 c 0,-1.14653 0.93133,-2.07786 2.07786,-2.07786 h 2.67406 c 1.14652,0 2.07786,0.93133 2.07786,2.07786 v 0"
       style="fill:#854adb;fill-opacity:1;fill-rule:nonzero;stroke:none;stroke-width:0.0352778"
       id="path2746" />
    <path
       d="m 148.77406,230.71867 h 20.21417 v -4.24744 h -20.21417 z m 21.12433,1.82386 h -22.03803 c -0.50447,0 -0.91369,-0.40922 -0.91369,-0.91369 v -6.07131 c 0,-0.50447 0.40922,-0.91016 0.91369,-0.91016 h 22.03803 c 0.50447,0 0.9137,0.40569 0.9137,0.91016 v 6.07131 c 0,0.50447 -0.40923,0.91369 -0.9137,0.91369"
       style="fill:#ffcf46;fill-opacity:1;fill-rule:nonzero;stroke:none;stroke-width:0.0352778"
       id="path2748" />
  </g>
</svg>
