<?xml version="1.0" encoding="UTF-8" standalone="no"?>
<!-- Created with Inkscape (http://www.inkscape.org/) -->

<svg
   width="57.157715mm"
   height="62.660042mm"
   viewBox="0 0 57.157715 62.660042"
   version="1.1"
   id="svg8952"
   sodipodi:docname="phoneman-p.svg"
   inkscape:version="1.1 (c4e8f9ed74, 2021-05-24)"
   xmlns:inkscape="http://www.inkscape.org/namespaces/inkscape"
   xmlns:sodipodi="http://sodipodi.sourceforge.net/DTD/sodipodi-0.dtd"
   xmlns="http://www.w3.org/2000/svg"
   xmlns:svg="http://www.w3.org/2000/svg">
  <sodipodi:namedview
     id="namedview8954"
     pagecolor="#ffffff"
     bordercolor="#666666"
     borderopacity="1.0"
     inkscape:pageshadow="2"
     inkscape:pageopacity="0.0"
     inkscape:pagecheckerboard="0"
     inkscape:document-units="mm"
     showgrid="false"
     inkscape:zoom="0.45968013"
     inkscape:cx="-292.59476"
     inkscape:cy="79.40304"
     inkscape:window-width="1920"
     inkscape:window-height="1051"
     inkscape:window-x="1366"
     inkscape:window-y="0"
     inkscape:window-maximized="1"
     inkscape:current-layer="layer1" />
  <defs
     id="defs8949" />
  <g
     inkscape:label="Layer 1"
     inkscape:groupmode="layer"
     id="layer1"
     transform="translate(-78.479286,-127.53044)">
    <path
       d="m 102.1889,169.511 c -0.10584,0 -0.21873,-0.018 -0.32456,-0.0568 -0.49389,-0.17991 -0.74789,-0.72672 -0.56797,-1.22061 0.50094,-1.36842 1.05128,-2.67405 1.64394,-3.87703 1.13242,-2.31422 2.42711,-4.2933 3.84881,-5.88786 0.34925,-0.39511 0.94897,-0.43039 1.34408,-0.0776 0.39158,0.34925 0.42686,0.94897 0.0776,1.34056 -1.30528,1.46755 -2.50472,3.30552 -3.56305,5.46453 -0.56092,1.13982 -1.08656,2.38477 -1.56281,3.69005 -0.14111,0.38453 -0.508,0.62477 -0.89605,0.62477"
       style="fill:#854adb;fill-opacity:1;fill-rule:nonzero;stroke:none;stroke-width:0.0352778"
       id="path724" />
    <path
       d="m 125.4052,181.44865 c -0.35983,0 -0.70555,-0.20779 -0.86783,-0.55386 -0.21872,-0.47978 -0.007,-1.04423 0.46919,-1.26295 l 8.5972,-3.94723 c -0.58561,-2.7238 -3.048,-12.53455 -8.87942,-17.45932 -0.40217,-0.33867 -0.45155,-0.93804 -0.11289,-1.34056 0.33867,-0.40217 0.93839,-0.45156 1.34056,-0.11289 7.30955,6.17361 9.57792,18.76778 9.66964,19.30083 0.0776,0.42298 -0.14464,0.84666 -0.53975,1.02623 l -9.28159,4.26155 c -0.127,0.06 -0.26458,0.0882 -0.39511,0.0882"
       style="fill:#854adb;fill-opacity:1;fill-rule:nonzero;stroke:none;stroke-width:0.0352778"
       id="path726" />
    <path
       d="m 117.09376,157.82665 c -4.94948,0 -9.17928,-5.61975 -10.79853,-11.16895 -0.14817,-0.50447 0.14111,-1.03011 0.64558,-1.17828 0.50447,-0.14816 1.03364,0.14112 1.18181,0.64559 1.38641,4.74839 4.99886,9.79664 8.97114,9.79664 5.10469,0 9.33097,-8.03275 9.58144,-13.24328 0.0247,-0.52211 0.4692,-0.92781 0.99484,-0.90311 0.52563,0.0247 0.93133,0.46919 0.90663,0.99483 -0.28575,5.9937 -5.01297,15.05656 -11.48291,15.05656"
       style="fill:#854adb;fill-opacity:1;fill-rule:nonzero;stroke:none;stroke-width:0.0352778"
       id="path728" />
    <path
       d="m 117.42184,129.43156 c -6.71336,0 -12.17083,5.46453 -12.17083,12.17789 0,1.52753 0.24341,2.99508 0.508,4.02167 4.33564,-0.45156 11.4053,-3.01943 14.83078,-6.00428 0.77611,-0.67733 1.29822,-1.31939 1.54869,-1.90853 0.17639,-0.41275 0.62089,-0.64558 1.05833,-0.56091 0.44098,0.0882 0.762,0.46919 0.76906,0.92075 0.0106,0.87841 -0.0106,1.74272 -0.06,2.56469 -0.0529,0.86783 -0.13406,1.58397 -0.2152,2.13783 2.30364,-0.39511 5.03061,-1.23825 5.842,-2.34597 -0.59266,-6.19478 -5.85611,-11.00314 -12.11086,-11.00314 z m -12.35781,18.161 c -0.40569,0 -0.76905,-0.26105 -0.90311,-0.64911 -0.39158,-1.16769 -0.81139,-3.17853 -0.81139,-5.334 0,-7.76464 6.3112,-14.07901 14.07231,-14.07901 7.34483,0 13.51139,5.73582 14.0335,13.06301 0.0106,0.17286 -0.0247,0.34255 -0.0988,0.49742 -1.46755,2.921 -8.00452,3.683 -8.74536,3.76096 -0.31397,0.0314 -0.61736,-0.0921 -0.82197,-0.32843 -0.20461,-0.23989 -0.27869,-0.56092 -0.19403,-0.86431 0,-0.007 0.24695,-0.96308 0.381,-2.71992 -0.0423,0.0388 -0.0882,0.0811 -0.13758,0.12348 -3.96875,3.46075 -12.10381,6.30061 -16.72872,6.52991 -0.0141,0 -0.0318,0 -0.0459,0"
       style="fill:#854adb;fill-opacity:1;fill-rule:nonzero;stroke:none;stroke-width:0.0352778"
       id="path730" />
    <path
       d="m 83.4317,142.25892 c -0.465667,0.44767 -2.374195,4.12714 -2.917473,10.17763 -0.448028,5.03732 0.02469,12.68907 4.840112,20.52779 8.734778,14.22083 20.207111,15.32467 23.512641,15.32467 1.67569,0 2.48708,-0.24694 2.61408,-0.31397 l 5.87023,-3.60186 c 0.50447,-0.31398 0.86077,-0.80398 1.00188,-1.38642 0.13406,-0.56797 0.0494,-1.14653 -0.23988,-1.64394 l -6.46642,-8.11037 c -0.0247,-0.0282 -0.0459,-0.06 -0.067,-0.0917 -0.40922,-0.66675 -1.12536,-1.06539 -1.91558,-1.06539 -0.40923,0 -0.81139,0.11289 -1.16064,0.32809 l -4.79072,2.94216 c -0.70203,0.43392 -1.016,1.56634 -1.06892,1.9297 -0.0423,0.27516 -0.20108,0.51505 -0.43745,0.66322 -0.23283,0.14817 -0.52211,0.18344 -0.78669,0.1023 -0.28222,-0.0882 -7.009695,-2.22602 -10.946695,-8.63247 -3.926417,-6.39586 -3.012723,-13.45494 -2.973917,-13.75128 0.04233,-0.31009 0.236361,-0.57855 0.518583,-0.71966 0.278695,-0.14111 0.610306,-0.13406 0.885472,0.0176 0.694973,0.38452 1.583973,0.37394 2.257778,-0.0423 l 4.794251,-2.94569 c 1.051277,-0.64206 1.379361,-2.02142 0.733777,-3.0727 -0.02469,-0.0423 -0.04586,-0.0847 -0.06703,-0.13052 l -4.028723,-9.58498 c -0.416278,-0.63147 -1.11125,-1.00541 -1.880306,-1.00541 -0.409222,0 -0.811388,0.11288 -1.160638,0.32455 z m 25.43528,47.93156 c -3.556,0 -15.885585,-1.16769 -25.135419,-16.2313 -5.171723,-8.42081 -5.616223,-16.63701 -5.076473,-22.04862 0.585611,-5.9055 2.578806,-10.53747 3.750028,-11.25361 l 6.152445,-3.7779 c 0.649111,-0.39899 1.393472,-0.61065 2.155472,-0.61065 1.435806,0 2.790473,0.75494 3.538362,1.97202 0.02469,0.0388 0.04586,0.085 0.0635,0.127 l 4.035778,9.59556 c 1.139472,1.93675 0.522111,4.445 -1.397,5.62681 l -4.794251,2.94216 c -0.649111,0.39864 -1.393472,0.61031 -2.155472,0.61031 v 0 c -0.236361,0 -0.469194,-0.0212 -0.6985,-0.06 -0.07408,2.16605 0.119945,6.98147 2.790472,11.32769 2.734028,4.45558 7.083779,6.67103 8.967608,7.46478 0.27517,-0.71931 0.77259,-1.60867 1.651,-2.14842 l 4.79425,-2.94534 c 0.64912,-0.39899 1.39348,-0.60713 2.15548,-0.60713 1.4358,0 2.74108,0.71261 3.50308,1.91558 l 6.47347,8.11742 c 0.0247,0.0282 0.0459,0.06 0.067,0.0952 0.57503,0.93874 0.75142,2.04611 0.49389,3.12561 -0.25753,1.07633 -0.91722,1.98967 -1.85561,2.5647 l -5.87728,3.61244 c -0.59972,0.36724 -1.94733,0.58561 -3.60186,0.58561"
       style="fill:#854adb;fill-opacity:1;fill-rule:nonzero;stroke:none;stroke-width:0.0352778"
       id="path732" />
    <path
       d="m 104.4114,182.49993 c -0.3175,0 -0.63148,-0.16228 -0.81139,-0.45509 l -2.70934,-4.41325 c -0.27516,-0.44767 -0.13405,-1.03364 0.31398,-1.3088 0.4445,-0.27517 1.03363,-0.13759 1.3088,0.31397 l 2.70933,4.41325 c 0.27517,0.44803 0.13406,1.03364 -0.31397,1.30881 -0.15522,0.0952 -0.32455,0.14111 -0.49741,0.14111"
       style="fill:#854adb;fill-opacity:1;fill-rule:nonzero;stroke:none;stroke-width:0.0352778"
       id="path734" />
    <path
       d="m 88.550506,156.67306 c -0.3175,0 -0.631473,-0.16227 -0.811389,-0.45508 l -2.709334,-4.41325 c -0.275167,-0.44803 -0.137583,-1.03364 0.310445,-1.30845 0.448027,-0.27552 1.033639,-0.13794 1.308805,0.31009 l 2.712862,4.41713 c 0.275166,0.44767 0.134055,1.03329 -0.313973,1.30845 -0.155222,0.0952 -0.324555,0.14111 -0.497416,0.14111"
       style="fill:#854adb;fill-opacity:1;fill-rule:nonzero;stroke:none;stroke-width:0.0352778"
       id="path736" />
  </g>
</svg>
