<?xml version="1.0" encoding="UTF-8" standalone="no"?>
<!-- Created with Inkscape (http://www.inkscape.org/) -->

<svg
   width="58.197758mm"
   height="58.141312mm"
   viewBox="0 0 58.197758 58.141312"
   version="1.1"
   id="svg10008"
   inkscape:version="1.1 (c4e8f9ed74, 2021-05-24)"
   sodipodi:docname="processes-modeling.svg"
   xmlns:inkscape="http://www.inkscape.org/namespaces/inkscape"
   xmlns:sodipodi="http://sodipodi.sourceforge.net/DTD/sodipodi-0.dtd"
   xmlns="http://www.w3.org/2000/svg"
   xmlns:svg="http://www.w3.org/2000/svg">
  <sodipodi:namedview
     id="namedview10010"
     pagecolor="#ffffff"
     bordercolor="#666666"
     borderopacity="1.0"
     inkscape:pageshadow="2"
     inkscape:pageopacity="0.0"
     inkscape:pagecheckerboard="0"
     inkscape:document-units="mm"
     showgrid="false"
     inkscape:zoom="0.68593502"
     inkscape:cx="-331.66407"
     inkscape:cy="69.248542"
     inkscape:window-width="1920"
     inkscape:window-height="1051"
     inkscape:window-x="1366"
     inkscape:window-y="0"
     inkscape:window-maximized="1"
     inkscape:current-layer="layer1" />
  <defs
     id="defs10005" />
  <g
     inkscape:label="Layer 1"
     inkscape:groupmode="layer"
     id="layer1"
     transform="translate(-62.418612,-132.66772)">
    <path
       d="m 117.63892,188.42778 h -7.05203 c -0.4198,0 -0.75847,-0.34219 -0.75847,-0.762 0,-0.4198 0.33867,-0.762 0.75847,-0.762 h 7.05203 c 0.80433,0 1.45345,-0.65264 1.45345,-1.45344 v -12.06148 c 0,-0.8008 -0.64912,-1.45344 -1.45345,-1.45344 H 65.396057 c -0.804334,0 -1.456972,0.65264 -1.456972,1.45344 v 12.06148 c 0,0.8008 0.652638,1.45344 1.456972,1.45344 H 106.918 c 0.41981,0 0.762,0.3422 0.762,0.762 0,0.41981 -0.34219,0.762 -0.762,0.762 H 65.396057 c -1.643945,0 -2.977445,-1.33703 -2.977445,-2.97744 v -12.06148 c 0,-1.64041 1.3335,-2.97391 2.977445,-2.97391 h 52.242863 c 1.64042,0 2.97745,1.3335 2.97745,2.97391 v 12.06148 c 0,1.64041 -1.33703,2.97744 -2.97745,2.97744"
       style="fill:#854adb;fill-opacity:1;fill-rule:nonzero;stroke:none;stroke-width:0.0352778"
       id="path5140" />
    <path
       d="m 70.063307,190.80903 c -1.732139,0 -3.14325,-1.41111 -3.14325,-3.14325 0,-0.4198 0.342194,-0.762 0.762,-0.762 0.419806,0 0.758472,0.3422 0.758472,0.762 0,0.89253 0.73025,1.62278 1.622778,1.62278 0.896056,0 1.622778,-0.73025 1.622778,-1.62278 0,-0.4198 0.338667,-0.762 0.758472,-0.762 0.423334,0 0.762,0.3422 0.762,0.762 0,1.73214 -1.411111,3.14325 -3.14325,3.14325"
       style="fill:#854adb;fill-opacity:1;fill-rule:nonzero;stroke:none;stroke-width:0.0352778"
       id="path5142" />
    <path
       d="m 112.97167,190.80903 c -1.73567,0 -3.14325,-1.41111 -3.14325,-3.14325 0,-0.4198 0.33867,-0.762 0.75847,-0.762 0.41981,0 0.762,0.3422 0.762,0.762 0,0.89253 0.72673,1.62278 1.62278,1.62278 0.89253,0 1.61925,-0.73025 1.61925,-1.62278 0,-0.4198 0.3422,-0.762 0.762,-0.762 0.41981,0 0.762,0.3422 0.762,0.762 0,1.73214 -1.41111,3.14325 -3.14325,3.14325"
       style="fill:#854adb;fill-opacity:1;fill-rule:nonzero;stroke:none;stroke-width:0.0352778"
       id="path5144" />
    <path
       d="m 67.682057,175.10689 c -0.363361,0 -0.659694,0.29633 -0.659694,0.6597 0,0.36336 0.296333,0.65969 0.659694,0.65969 0.363361,0 0.659695,-0.29633 0.659695,-0.65969 0,-0.36337 -0.296334,-0.6597 -0.659695,-0.6597 z m 0,2.84339 c -1.202972,0 -2.183695,-0.98072 -2.183695,-2.18369 0,-1.20298 0.980723,-2.1837 2.183695,-2.1837 1.202972,0 2.183695,0.98072 2.183695,2.1837 0,1.20297 -0.980723,2.18369 -2.183695,2.18369"
       style="fill:#854adb;fill-opacity:1;fill-rule:nonzero;stroke:none;stroke-width:0.0352778"
       id="path5146" />
    <path
       d="m 75.295002,175.76659 c 0,-1.143 -0.924278,-2.06728 -2.067278,-2.06728 -1.139472,0 -2.067278,0.92428 -2.067278,2.06728 0,1.13947 0.927806,2.06727 2.067278,2.06727 1.143,0 2.067278,-0.9278 2.067278,-2.06727"
       style="fill:#ffcf46;fill-opacity:1;fill-rule:nonzero;stroke:none;stroke-width:0.0352778"
       id="path5148" />
    <path
       d="m 111.46531,180.17984 c -0.14464,0 -0.29281,-0.0388 -0.42333,-0.127 -0.34925,-0.23636 -0.44098,-0.70909 -0.20461,-1.05834 l 3.88408,-5.77497 c 0.23636,-0.34572 0.70908,-0.44097 1.0548,-0.20461 0.34925,0.23283 0.4445,0.70555 0.20814,1.0548 l -3.88408,5.77498 c -0.14817,0.21872 -0.38806,0.33514 -0.635,0.33514"
       style="fill:#854adb;fill-opacity:1;fill-rule:nonzero;stroke:none;stroke-width:0.0352778"
       id="path5150" />
    <path
       d="m 108.12098,180.17984 c -0.14464,0 -0.29281,-0.0388 -0.42334,-0.127 -0.34925,-0.23636 -0.44097,-0.70909 -0.20814,-1.05834 l 3.88762,-5.77497 c 0.23636,-0.34572 0.70908,-0.44097 1.0548,-0.20461 0.34925,0.23283 0.44097,0.70555 0.20814,1.0548 l -3.88761,5.77498 c -0.14817,0.21872 -0.38806,0.33514 -0.63147,0.33514"
       style="fill:#854adb;fill-opacity:1;fill-rule:nonzero;stroke:none;stroke-width:0.0352778"
       id="path5152" />
    <path
       d="m 104.77664,180.17984 c -0.14464,0 -0.2928,-0.0388 -0.42333,-0.127 -0.34925,-0.23636 -0.44097,-0.70909 -0.20814,-1.05834 l 3.88761,-5.77497 c 0.23284,-0.34572 0.70556,-0.44097 1.05481,-0.20461 0.34925,0.23283 0.44097,0.70555 0.20814,1.0548 l -3.88762,5.77498 c -0.14463,0.21872 -0.38452,0.33514 -0.63147,0.33514"
       style="fill:#854adb;fill-opacity:1;fill-rule:nonzero;stroke:none;stroke-width:0.0352778"
       id="path5154" />
    <path
       d="m 101.43231,180.17984 c -0.14464,0 -0.29281,-0.0388 -0.42333,-0.127 -0.34925,-0.23636 -0.44098,-0.70909 -0.20814,-1.05834 l 3.88408,-5.77497 c 0.23636,-0.34572 0.70908,-0.44097 1.05833,-0.20461 0.34925,0.23283 0.44098,0.70555 0.20814,1.0548 l -3.88761,5.77498 c -0.14464,0.21872 -0.38453,0.33514 -0.63147,0.33514"
       style="fill:#854adb;fill-opacity:1;fill-rule:nonzero;stroke:none;stroke-width:0.0352778"
       id="path5156" />
    <path
       d="m 98.087976,180.17984 c -0.144639,0 -0.292806,-0.0388 -0.423334,-0.127 -0.34925,-0.23636 -0.440972,-0.70909 -0.208139,-1.05834 l 3.887607,-5.77497 c 0.23284,-0.34572 0.70556,-0.44097 1.05481,-0.20461 0.34925,0.23283 0.44097,0.70555 0.20814,1.0548 l -3.887612,5.77498 c -0.144639,0.21872 -0.384528,0.33514 -0.631472,0.33514"
       style="fill:#854adb;fill-opacity:1;fill-rule:nonzero;stroke:none;stroke-width:0.0352778"
       id="path5158" />
    <path
       d="m 94.743642,180.17984 c -0.148167,0 -0.292806,-0.0388 -0.426861,-0.127 -0.345722,-0.23636 -0.440972,-0.70909 -0.204611,-1.05834 l 3.884083,-5.77497 c 0.236362,-0.34572 0.709084,-0.44097 1.058334,-0.20461 0.34925,0.23283 0.440972,0.70555 0.208139,1.0548 l -3.887612,5.77498 c -0.148166,0.21872 -0.388055,0.33514 -0.631472,0.33514"
       style="fill:#854adb;fill-opacity:1;fill-rule:nonzero;stroke:none;stroke-width:0.0352778"
       id="path5160" />
    <path
       d="m 91.399309,180.17984 c -0.148167,0 -0.296334,-0.0388 -0.423334,-0.127 -0.34925,-0.23636 -0.4445,-0.70909 -0.208139,-1.05834 l 3.884084,-5.77497 c 0.236361,-0.34572 0.709083,-0.44097 1.058333,-0.20461 0.34925,0.23283 0.440972,0.70555 0.204611,1.0548 l -3.884083,5.77498 c -0.148167,0.21872 -0.388056,0.33514 -0.631472,0.33514"
       style="fill:#854adb;fill-opacity:1;fill-rule:nonzero;stroke:none;stroke-width:0.0352778"
       id="path5162" />
    <path
       d="m 88.051447,180.17984 c -0.144639,0 -0.292805,-0.0388 -0.423333,-0.127 -0.34925,-0.23636 -0.440972,-0.70909 -0.204611,-1.05834 l 3.884083,-5.77497 c 0.236361,-0.34572 0.709084,-0.44097 1.058334,-0.20461 0.34925,0.23283 0.440972,0.70555 0.204611,1.0548 l -3.884084,5.77498 c -0.148166,0.21872 -0.388055,0.33514 -0.635,0.33514"
       style="fill:#854adb;fill-opacity:1;fill-rule:nonzero;stroke:none;stroke-width:0.0352778"
       id="path5164" />
    <path
       d="m 114.42864,180.17984 c -0.14464,0 -0.2928,-0.0388 -0.42333,-0.127 -0.34925,-0.23636 -0.44097,-0.70909 -0.20814,-1.05834 l 0.92428,-1.3723 c 0.23283,-0.34925 0.70908,-0.44098 1.0548,-0.20814 0.34925,0.23636 0.4445,0.70908 0.20814,1.05833 l -0.92427,1.37231 c -0.14464,0.21872 -0.38453,0.33514 -0.63148,0.33514"
       style="fill:#854adb;fill-opacity:1;fill-rule:nonzero;stroke:none;stroke-width:0.0352778"
       id="path5166" />
    <path
       d="m 88.051447,175.77717 c -0.144639,0 -0.292805,-0.0388 -0.423333,-0.127 -0.34925,-0.23636 -0.440972,-0.70908 -0.204611,-1.05833 l 0.924278,-1.37231 c 0.232833,-0.34572 0.705555,-0.44097 1.054805,-0.20461 0.34925,0.23283 0.440972,0.70555 0.208139,1.0548 l -0.924278,1.37231 c -0.148166,0.21872 -0.388055,0.33514 -0.635,0.33514"
       style="fill:#854adb;fill-opacity:1;fill-rule:nonzero;stroke:none;stroke-width:0.0352778"
       id="path5168" />
    <path
       d="m 117.63892,169.55417 h -7.05203 c -0.4198,0 -0.75847,-0.3422 -0.75847,-0.762 0,-0.41981 0.33867,-0.762 0.75847,-0.762 h 7.05203 c 0.80433,0 1.45345,-0.65264 1.45345,-1.45345 v -12.06147 c 0,-0.8008 -0.64912,-1.44992 -1.45345,-1.44992 H 65.396057 c -0.804334,0 -1.456972,0.64912 -1.456972,1.44992 v 12.06147 c 0,0.80081 0.652638,1.45345 1.456972,1.45345 H 106.918 c 0.41981,0 0.762,0.34219 0.762,0.762 0,0.4198 -0.34219,0.762 -0.762,0.762 H 65.396057 c -1.643945,0 -2.977445,-1.33703 -2.977445,-2.97745 v -12.06147 c 0,-1.64042 1.3335,-2.97392 2.977445,-2.97392 h 52.242863 c 1.64042,0 2.97745,1.3335 2.97745,2.97392 v 12.06147 c 0,1.64042 -1.33703,2.97745 -2.97745,2.97745"
       style="fill:#854adb;fill-opacity:1;fill-rule:nonzero;stroke:none;stroke-width:0.0352778"
       id="path5170" />
    <path
       d="m 70.063307,171.93542 c -1.732139,0 -3.14325,-1.40758 -3.14325,-3.14325 0,-0.41981 0.342194,-0.762 0.762,-0.762 0.419806,0 0.758472,0.34219 0.758472,0.762 0,0.89253 0.73025,1.62278 1.622778,1.62278 0.896056,0 1.622778,-0.73025 1.622778,-1.62278 0,-0.41981 0.338667,-0.762 0.758472,-0.762 0.423334,0 0.762,0.34219 0.762,0.762 0,1.73567 -1.411111,3.14325 -3.14325,3.14325"
       style="fill:#854adb;fill-opacity:1;fill-rule:nonzero;stroke:none;stroke-width:0.0352778"
       id="path5172" />
    <path
       d="m 112.97167,171.93542 c -1.73567,0 -3.14325,-1.40758 -3.14325,-3.14325 0,-0.41981 0.33867,-0.762 0.75847,-0.762 0.41981,0 0.762,0.34219 0.762,0.762 0,0.89253 0.72673,1.62278 1.62278,1.62278 0.89253,0 1.61925,-0.73025 1.61925,-1.62278 0,-0.41981 0.3422,-0.762 0.762,-0.762 0.41981,0 0.762,0.34219 0.762,0.762 0,1.73567 -1.41111,3.14325 -3.14325,3.14325"
       style="fill:#854adb;fill-opacity:1;fill-rule:nonzero;stroke:none;stroke-width:0.0352778"
       id="path5174" />
    <path
       d="m 67.682057,156.23328 c -0.363361,0 -0.659694,0.29633 -0.659694,0.65969 0,0.36336 0.296333,0.6597 0.659694,0.6597 0.363361,0 0.659695,-0.29634 0.659695,-0.6597 0,-0.36336 -0.296334,-0.65969 -0.659695,-0.65969 z m 0,2.84339 c -1.202972,0 -2.183695,-0.98072 -2.183695,-2.1837 0,-1.20297 0.980723,-2.18369 2.183695,-2.18369 1.202972,0 2.183695,0.98072 2.183695,2.18369 0,1.20298 -0.980723,2.1837 -2.183695,2.1837"
       style="fill:#854adb;fill-opacity:1;fill-rule:nonzero;stroke:none;stroke-width:0.0352778"
       id="path5176" />
    <path
       d="m 75.295002,156.89297 c 0,-1.13947 -0.924278,-2.06727 -2.067278,-2.06727 -1.139472,0 -2.067278,0.9278 -2.067278,2.06727 0,1.143 0.927806,2.06728 2.067278,2.06728 1.143,0 2.067278,-0.92428 2.067278,-2.06728"
       style="fill:#854adb;fill-opacity:1;fill-rule:nonzero;stroke:none;stroke-width:0.0352778"
       id="path5178" />
    <path
       d="m 111.46531,161.30975 c -0.14464,0 -0.29281,-0.0423 -0.42333,-0.13053 -0.34925,-0.23636 -0.44098,-0.70908 -0.20461,-1.0548 l 3.88408,-5.77497 c 0.23636,-0.34925 0.70908,-0.44098 1.0548,-0.20814 0.34925,0.23636 0.4445,0.70908 0.20814,1.0548 l -3.88408,5.77497 c -0.14817,0.21873 -0.38806,0.33867 -0.635,0.33867"
       style="fill:#854adb;fill-opacity:1;fill-rule:nonzero;stroke:none;stroke-width:0.0352778"
       id="path5180" />
    <path
       d="m 108.12098,161.30975 c -0.14464,0 -0.29281,-0.0423 -0.42334,-0.13053 -0.34925,-0.23636 -0.44097,-0.70908 -0.20814,-1.0548 l 3.88762,-5.77497 c 0.23636,-0.34925 0.70908,-0.44098 1.0548,-0.20814 0.34925,0.23636 0.44097,0.70908 0.20814,1.0548 l -3.88761,5.77497 c -0.14817,0.21873 -0.38806,0.33867 -0.63147,0.33867"
       style="fill:#854adb;fill-opacity:1;fill-rule:nonzero;stroke:none;stroke-width:0.0352778"
       id="path5182" />
    <path
       d="m 104.77664,161.30975 c -0.14464,0 -0.2928,-0.0423 -0.42333,-0.13053 -0.34925,-0.23636 -0.44097,-0.70908 -0.20814,-1.0548 l 3.88761,-5.77497 c 0.23284,-0.34925 0.70909,-0.44098 1.05481,-0.20814 0.34925,0.23636 0.44097,0.70908 0.20814,1.0548 l -3.88762,5.77497 c -0.14463,0.21873 -0.38452,0.33867 -0.63147,0.33867"
       style="fill:#854adb;fill-opacity:1;fill-rule:nonzero;stroke:none;stroke-width:0.0352778"
       id="path5184" />
    <path
       d="m 101.43231,161.30975 c -0.14464,0 -0.29281,-0.0423 -0.42333,-0.13053 -0.34925,-0.23636 -0.44098,-0.70908 -0.20814,-1.0548 l 3.88408,-5.77497 c 0.23636,-0.34925 0.70908,-0.44098 1.05833,-0.20814 0.34925,0.23636 0.44098,0.70908 0.20814,1.0548 l -3.88761,5.77497 c -0.14464,0.21873 -0.38453,0.33867 -0.63147,0.33867"
       style="fill:#854adb;fill-opacity:1;fill-rule:nonzero;stroke:none;stroke-width:0.0352778"
       id="path5186" />
    <path
       d="m 98.087976,161.30975 c -0.144639,0 -0.292806,-0.0423 -0.423334,-0.13053 -0.34925,-0.23636 -0.440972,-0.70908 -0.208139,-1.0548 l 3.887607,-5.77497 c 0.23284,-0.34925 0.70556,-0.44098 1.05481,-0.20814 0.34925,0.23636 0.44097,0.70908 0.20814,1.0548 l -3.887612,5.77497 c -0.144639,0.21873 -0.384528,0.33867 -0.631472,0.33867"
       style="fill:#854adb;fill-opacity:1;fill-rule:nonzero;stroke:none;stroke-width:0.0352778"
       id="path5188" />
    <path
       d="m 94.743642,161.30975 c -0.148167,0 -0.292806,-0.0423 -0.426861,-0.13053 -0.345722,-0.23636 -0.440972,-0.70908 -0.204611,-1.0548 l 3.884083,-5.77497 c 0.236362,-0.34925 0.709084,-0.44098 1.058334,-0.20814 0.34925,0.23636 0.440972,0.70908 0.208139,1.0548 l -3.887612,5.77497 c -0.148166,0.21873 -0.388055,0.33867 -0.631472,0.33867"
       style="fill:#854adb;fill-opacity:1;fill-rule:nonzero;stroke:none;stroke-width:0.0352778"
       id="path5190" />
    <path
       d="m 91.399309,161.30975 c -0.148167,0 -0.296334,-0.0423 -0.423334,-0.13053 -0.34925,-0.23636 -0.4445,-0.70908 -0.208139,-1.0548 l 3.884084,-5.77497 c 0.236361,-0.34925 0.709083,-0.44098 1.058333,-0.20814 0.34925,0.23636 0.440972,0.70908 0.204611,1.0548 l -3.884083,5.77497 c -0.148167,0.21873 -0.388056,0.33867 -0.631472,0.33867"
       style="fill:#854adb;fill-opacity:1;fill-rule:nonzero;stroke:none;stroke-width:0.0352778"
       id="path5192" />
    <path
       d="m 88.051447,161.30975 c -0.144639,0 -0.292805,-0.0423 -0.423333,-0.13053 -0.34925,-0.23636 -0.440972,-0.70908 -0.204611,-1.0548 l 3.884083,-5.77497 c 0.236361,-0.34925 0.709084,-0.44098 1.058334,-0.20814 0.34925,0.23636 0.440972,0.70908 0.204611,1.0548 l -3.884084,5.77497 c -0.148166,0.21873 -0.388055,0.33867 -0.635,0.33867"
       style="fill:#854adb;fill-opacity:1;fill-rule:nonzero;stroke:none;stroke-width:0.0352778"
       id="path5194" />
    <path
       d="m 114.42864,161.30975 c -0.14464,0 -0.2928,-0.0423 -0.42333,-0.13053 -0.34925,-0.23636 -0.44097,-0.70908 -0.20814,-1.0548 l 0.92428,-1.37584 c 0.23636,-0.34925 0.70908,-0.44097 1.0548,-0.20461 0.34925,0.23284 0.4445,0.70556 0.20814,1.05481 l -0.92427,1.3723 c -0.14464,0.21873 -0.38453,0.33867 -0.63148,0.33867"
       style="fill:#854adb;fill-opacity:1;fill-rule:nonzero;stroke:none;stroke-width:0.0352778"
       id="path5196" />
    <path
       d="m 88.051447,156.90708 c -0.144639,0 -0.292805,-0.0423 -0.423333,-0.13052 -0.34925,-0.23636 -0.440972,-0.70909 -0.204611,-1.05834 l 0.924278,-1.36877 c 0.232833,-0.34925 0.705555,-0.44098 1.054805,-0.20814 0.34925,0.23636 0.440972,0.70908 0.208139,1.0548 l -0.924278,1.37231 c -0.148166,0.21872 -0.388055,0.33866 -0.635,0.33866"
       style="fill:#854adb;fill-opacity:1;fill-rule:nonzero;stroke:none;stroke-width:0.0352778"
       id="path5198" />
    <path
       d="m 117.63892,150.68056 h -7.05203 c -0.4198,0 -0.75847,-0.3422 -0.75847,-0.762 0,-0.41981 0.33867,-0.75848 0.75847,-0.75848 h 7.05203 c 0.80433,0 1.45345,-0.65263 1.45345,-1.45697 v -12.05794 c 0,-0.80081 -0.64912,-1.45345 -1.45345,-1.45345 H 65.396057 c -0.804334,0 -1.456972,0.65264 -1.456972,1.45345 v 12.05794 c 0,0.80434 0.652638,1.45697 1.456972,1.45697 H 106.918 c 0.41981,0 0.762,0.33867 0.762,0.75848 0,0.4198 -0.34219,0.762 -0.762,0.762 H 65.396057 c -1.643945,0 -2.977445,-1.3335 -2.977445,-2.97745 v -12.05794 c 0,-1.64042 1.3335,-2.97745 2.977445,-2.97745 h 52.242863 c 1.64042,0 2.97745,1.33703 2.97745,2.97745 v 12.05794 c 0,1.64395 -1.33703,2.97745 -2.97745,2.97745"
       style="fill:#854adb;fill-opacity:1;fill-rule:nonzero;stroke:none;stroke-width:0.0352778"
       id="path5200" />
    <path
       d="m 70.063307,153.06533 c -1.732139,0 -3.14325,-1.41111 -3.14325,-3.14677 0,-0.41981 0.342194,-0.75848 0.762,-0.75848 0.419806,0 0.758472,0.33867 0.758472,0.75848 0,0.89605 0.73025,1.62277 1.622778,1.62277 0.896056,0 1.622778,-0.72672 1.622778,-1.62277 0,-0.41981 0.338667,-0.75848 0.758472,-0.75848 0.423334,0 0.762,0.33867 0.762,0.75848 0,1.73566 -1.411111,3.14677 -3.14325,3.14677"
       style="fill:#854adb;fill-opacity:1;fill-rule:nonzero;stroke:none;stroke-width:0.0352778"
       id="path5202" />
    <path
       d="m 112.97167,153.06533 c -1.73567,0 -3.14325,-1.41111 -3.14325,-3.14677 0,-0.41981 0.33867,-0.75848 0.75847,-0.75848 0.41981,0 0.762,0.33867 0.762,0.75848 0,0.89605 0.72673,1.62277 1.62278,1.62277 0.89253,0 1.61925,-0.72672 1.61925,-1.62277 0,-0.41981 0.3422,-0.75848 0.762,-0.75848 0.41981,0 0.762,0.33867 0.762,0.75848 0,1.73566 -1.41111,3.14677 -3.14325,3.14677"
       style="fill:#854adb;fill-opacity:1;fill-rule:nonzero;stroke:none;stroke-width:0.0352778"
       id="path5204" />
    <path
       d="m 67.682057,137.35967 c -0.363361,0 -0.659694,0.29633 -0.659694,0.65969 0,0.36689 0.296333,0.66322 0.659694,0.66322 0.363361,0 0.659695,-0.29633 0.659695,-0.66322 0,-0.36336 -0.296334,-0.65969 -0.659695,-0.65969 z m 0,2.84339 c -1.202972,0 -2.183695,-0.98073 -2.183695,-2.1837 0,-1.20297 0.980723,-2.18017 2.183695,-2.18017 1.202972,0 2.183695,0.9772 2.183695,2.18017 0,1.20297 -0.980723,2.1837 -2.183695,2.1837"
       style="fill:#ffcf46;fill-opacity:1;fill-rule:nonzero;stroke:none;stroke-width:0.0352778"
       id="path5206" />
    <path
       d="m 75.295002,138.01936 c 0,-1.13947 -0.924278,-2.06375 -2.067278,-2.06375 -1.139472,0 -2.067278,0.92428 -2.067278,2.06375 0,1.143 0.927806,2.06728 2.067278,2.06728 1.143,0 2.067278,-0.92428 2.067278,-2.06728"
       style="fill:#854adb;fill-opacity:1;fill-rule:nonzero;stroke:none;stroke-width:0.0352778"
       id="path5208" />
    <path
       d="m 111.46531,142.43614 c -0.14464,0 -0.29281,-0.0423 -0.42333,-0.13053 -0.34925,-0.23283 -0.44098,-0.70555 -0.20461,-1.0548 l 3.88408,-5.77498 c 0.23636,-0.34925 0.70908,-0.44097 1.0548,-0.20814 0.34925,0.23637 0.4445,0.70909 0.20814,1.05834 l -3.88408,5.77497 c -0.14817,0.21872 -0.38806,0.33514 -0.635,0.33514"
       style="fill:#854adb;fill-opacity:1;fill-rule:nonzero;stroke:none;stroke-width:0.0352778"
       id="path5210" />
    <path
       d="m 108.12098,142.43614 c -0.14464,0 -0.29281,-0.0423 -0.42334,-0.13053 -0.34925,-0.23283 -0.44097,-0.70555 -0.20814,-1.0548 l 3.88762,-5.77498 c 0.23636,-0.34925 0.70908,-0.44097 1.0548,-0.20814 0.34925,0.23637 0.44097,0.70909 0.20814,1.05834 l -3.88761,5.77497 c -0.14817,0.21872 -0.38806,0.33514 -0.63147,0.33514"
       style="fill:#854adb;fill-opacity:1;fill-rule:nonzero;stroke:none;stroke-width:0.0352778"
       id="path5212" />
    <path
       d="m 104.77664,142.43614 c -0.14464,0 -0.2928,-0.0423 -0.42333,-0.13053 -0.34925,-0.23283 -0.44097,-0.70555 -0.20814,-1.0548 l 3.88761,-5.77498 c 0.23284,-0.34925 0.70909,-0.44097 1.05481,-0.20814 0.34925,0.23637 0.44097,0.70909 0.20814,1.05834 l -3.88762,5.77497 c -0.14463,0.21872 -0.38452,0.33514 -0.63147,0.33514"
       style="fill:#854adb;fill-opacity:1;fill-rule:nonzero;stroke:none;stroke-width:0.0352778"
       id="path5214" />
    <path
       d="m 101.43231,142.43614 c -0.14464,0 -0.29281,-0.0423 -0.42333,-0.13053 -0.34925,-0.23283 -0.44098,-0.70555 -0.20814,-1.0548 l 3.88408,-5.77498 c 0.23636,-0.34925 0.70908,-0.44097 1.05833,-0.20814 0.34925,0.23637 0.44098,0.70909 0.20814,1.05834 l -3.88761,5.77497 c -0.14464,0.21872 -0.38453,0.33514 -0.63147,0.33514"
       style="fill:#854adb;fill-opacity:1;fill-rule:nonzero;stroke:none;stroke-width:0.0352778"
       id="path5216" />
    <path
       d="m 98.087976,142.43614 c -0.144639,0 -0.292806,-0.0423 -0.423334,-0.13053 -0.34925,-0.23283 -0.440972,-0.70555 -0.208139,-1.0548 l 3.887607,-5.77498 c 0.23284,-0.34925 0.70556,-0.44097 1.05481,-0.20814 0.34925,0.23637 0.44097,0.70909 0.20814,1.05834 l -3.887612,5.77497 c -0.144639,0.21872 -0.384528,0.33514 -0.631472,0.33514"
       style="fill:#854adb;fill-opacity:1;fill-rule:nonzero;stroke:none;stroke-width:0.0352778"
       id="path5218" />
    <path
       d="m 94.743642,142.43614 c -0.148167,0 -0.292806,-0.0423 -0.426861,-0.13053 -0.345722,-0.23283 -0.440972,-0.70555 -0.204611,-1.0548 l 3.884083,-5.77498 c 0.236362,-0.34925 0.709084,-0.44097 1.058334,-0.20814 0.34925,0.23637 0.440972,0.70909 0.208139,1.05834 l -3.887612,5.77497 c -0.148166,0.21872 -0.388055,0.33514 -0.631472,0.33514"
       style="fill:#854adb;fill-opacity:1;fill-rule:nonzero;stroke:none;stroke-width:0.0352778"
       id="path5220" />
    <path
       d="m 91.399309,142.43614 c -0.148167,0 -0.296334,-0.0423 -0.423334,-0.13053 -0.34925,-0.23283 -0.4445,-0.70555 -0.208139,-1.0548 l 3.884084,-5.77498 c 0.236361,-0.34925 0.709083,-0.44097 1.058333,-0.20814 0.34925,0.23637 0.440972,0.70909 0.204611,1.05834 l -3.884083,5.77497 c -0.148167,0.21872 -0.388056,0.33514 -0.631472,0.33514"
       style="fill:#854adb;fill-opacity:1;fill-rule:nonzero;stroke:none;stroke-width:0.0352778"
       id="path5222" />
    <path
       d="m 88.051447,142.43614 c -0.144639,0 -0.292805,-0.0423 -0.423333,-0.13053 -0.34925,-0.23283 -0.440972,-0.70555 -0.204611,-1.0548 l 3.884083,-5.77498 c 0.236361,-0.34925 0.709084,-0.44097 1.058334,-0.20814 0.34925,0.23637 0.440972,0.70909 0.204611,1.05834 l -3.884084,5.77497 c -0.148166,0.21872 -0.388055,0.33514 -0.635,0.33514"
       style="fill:#854adb;fill-opacity:1;fill-rule:nonzero;stroke:none;stroke-width:0.0352778"
       id="path5224" />
    <path
       d="m 114.42864,142.43614 c -0.14464,0 -0.2928,-0.0423 -0.42333,-0.13053 -0.34925,-0.23283 -0.44097,-0.70555 -0.20814,-1.0548 l 0.92428,-1.37231 c 0.23636,-0.34925 0.70908,-0.4445 1.0548,-0.20814 0.34925,0.23636 0.4445,0.70908 0.20814,1.05481 l -0.92427,1.37583 c -0.14464,0.21872 -0.38453,0.33514 -0.63148,0.33514"
       style="fill:#854adb;fill-opacity:1;fill-rule:nonzero;stroke:none;stroke-width:0.0352778"
       id="path5226" />
    <path
       d="m 88.051447,138.03347 c -0.144639,0 -0.292805,-0.0423 -0.423333,-0.13053 -0.34925,-0.23283 -0.440972,-0.70555 -0.204611,-1.0548 l 0.924278,-1.37231 c 0.232833,-0.34925 0.705555,-0.44097 1.054805,-0.20814 0.34925,0.23637 0.440972,0.70909 0.208139,1.05834 l -0.924278,1.3723 c -0.148166,0.21873 -0.388055,0.33514 -0.635,0.33514"
       style="fill:#854adb;fill-opacity:1;fill-rule:nonzero;stroke:none;stroke-width:0.0352778"
       id="path5228" />
  </g>
</svg>
