<?xml version="1.0" encoding="UTF-8" standalone="no"?>
<!-- Created with Inkscape (http://www.inkscape.org/) -->

<svg
   width="40.558861mm"
   height="62.872059mm"
   viewBox="0 0 40.558861 62.872059"
   version="1.1"
   id="svg8877"
   inkscape:version="1.1 (c4e8f9ed74, 2021-05-24)"
   sodipodi:docname="smartphone.svg"
   xmlns:inkscape="http://www.inkscape.org/namespaces/inkscape"
   xmlns:sodipodi="http://sodipodi.sourceforge.net/DTD/sodipodi-0.dtd"
   xmlns="http://www.w3.org/2000/svg"
   xmlns:svg="http://www.w3.org/2000/svg">
  <sodipodi:namedview
     id="namedview8879"
     pagecolor="#ffffff"
     bordercolor="#666666"
     borderopacity="1.0"
     inkscape:pageshadow="2"
     inkscape:pageopacity="0.0"
     inkscape:pagecheckerboard="0"
     inkscape:document-units="mm"
     showgrid="false"
     inkscape:zoom="0.45968013"
     inkscape:cx="98.981871"
     inkscape:cy="-72.876762"
     inkscape:window-width="1920"
     inkscape:window-height="1051"
     inkscape:window-x="1366"
     inkscape:window-y="0"
     inkscape:window-maximized="1"
     inkscape:current-layer="layer1" />
  <defs
     id="defs8874" />
  <g
     inkscape:label="Layer 1"
     inkscape:groupmode="layer"
     id="layer1"
     transform="translate(-78.72057,-168.29072)">
    <path
       d="M 106.72054,174.54194 H 91.279459 c -0.504472,0 -0.910167,-0.40922 -0.910167,-0.91369 0,-0.50447 0.405695,-0.91017 0.910167,-0.91017 h 15.441081 c 0.50095,0 0.91017,0.4057 0.91017,0.91017 0,0.50447 -0.40922,0.91369 -0.91017,0.91369"
       style="fill:#854adb;fill-opacity:1;fill-rule:nonzero;stroke:none;stroke-width:0.0352778"
       id="path1640" />
    <path
       d="m 82.844542,170.11458 c -1.266472,0 -2.300111,1.03011 -2.300111,2.30011 v 54.62059 c 0,1.27 1.033639,2.30364 2.300111,2.30364 h 32.310918 c 1.26647,0 2.30011,-1.03364 2.30011,-2.30364 v -54.62059 c 0,-1.27 -1.03364,-2.30011 -2.30011,-2.30011 z m 32.310918,61.0482 H 82.844542 c -2.271889,0 -4.123972,-1.85208 -4.123972,-4.1275 v -54.62059 c 0,-2.27542 1.852083,-4.12397 4.123972,-4.12397 h 32.310918 c 2.27189,0 4.12397,1.84855 4.12397,4.12397 v 54.62059 c 0,2.27542 -1.85208,4.1275 -4.12397,4.1275"
       style="fill:#854adb;fill-opacity:1;fill-rule:nonzero;stroke:none;stroke-width:0.0352778"
       id="path1642" />
    <path
       d="m 105.00252,224.20247 c 0,-1.56986 -1.27353,-2.84339 -2.84339,-2.84339 h -5.13292 c -1.569862,0 -2.84339,1.27353 -2.84339,2.84339 v 0 c 0,1.56986 1.273528,2.84339 2.84339,2.84339 h 5.13292 c 1.56986,0 2.84339,-1.27353 2.84339,-2.84339 v 0"
       style="fill:#854adb;fill-opacity:1;fill-rule:nonzero;stroke:none;stroke-width:0.0352778"
       id="path1644" />
    <path
       d="M 118.36574,179.11747 H 79.630736 c -0.500944,0 -0.910166,-0.40922 -0.910166,-0.91369 0,-0.50448 0.409222,-0.9137 0.910166,-0.9137 h 38.735004 c 0.50447,0 0.91369,0.40922 0.91369,0.9137 0,0.50447 -0.40922,0.91369 -0.91369,0.91369"
       style="fill:#854adb;fill-opacity:1;fill-rule:nonzero;stroke:none;stroke-width:0.0352778"
       id="path1646" />
    <path
       d="M 118.36574,219.30592 H 79.630736 c -0.500944,0 -0.910166,-0.4057 -0.910166,-0.91017 0,-0.50447 0.409222,-0.91369 0.910166,-0.91369 h 38.735004 c 0.50447,0 0.91369,0.40922 0.91369,0.91369 0,0.50447 -0.40922,0.91017 -0.91369,0.91017"
       style="fill:#854adb;fill-opacity:1;fill-rule:nonzero;stroke:none;stroke-width:0.0352778"
       id="path1648" />
  </g>
</svg>
