<?xml version="1.0" encoding="UTF-8" standalone="no"?>
<!-- Created with Inkscape (http://www.inkscape.org/) -->

<svg
   width="61.292088mm"
   height="65.384308mm"
   viewBox="0 0 61.292088 65.384308"
   version="1.1"
   id="svg10956"
   inkscape:version="1.1 (c4e8f9ed74, 2021-05-24)"
   sodipodi:docname="telephony.svg"
   xmlns:inkscape="http://www.inkscape.org/namespaces/inkscape"
   xmlns:sodipodi="http://sodipodi.sourceforge.net/DTD/sodipodi-0.dtd"
   xmlns="http://www.w3.org/2000/svg"
   xmlns:svg="http://www.w3.org/2000/svg">
  <sodipodi:namedview
     id="namedview10958"
     pagecolor="#ffffff"
     bordercolor="#666666"
     borderopacity="1.0"
     inkscape:pageshadow="2"
     inkscape:pageopacity="0.0"
     inkscape:pagecheckerboard="0"
     inkscape:document-units="mm"
     showgrid="false"
     inkscape:zoom="0.45968013"
     inkscape:cx="-162.06922"
     inkscape:cy="172.94635"
     inkscape:window-width="1920"
     inkscape:window-height="1051"
     inkscape:window-x="1366"
     inkscape:window-y="0"
     inkscape:window-maximized="1"
     inkscape:current-layer="layer1" />
  <defs
     id="defs10953" />
  <g
     inkscape:label="Layer 1"
     inkscape:groupmode="layer"
     id="layer1"
     transform="translate(-43.533486,-103.17257)">
    <path
       d="m 76.885106,148.81191 c -0.41981,0 -0.75848,-0.33867 -0.75848,-0.75848 l -0.0353,-37.64844 c 0,-0.41981 0.34219,-0.75847 0.762,-0.762 l 23.00816,-0.0212 h 0.004 c 2.719924,0 4.935364,2.21192 4.935364,4.93183 l 0.0247,29.2982 c 0.004,1.31586 -0.51153,2.55764 -1.44286,3.4925 -0.93134,0.93133 -2.16959,1.44639 -3.485454,1.44639 l -19.31811,0.0176 h -0.004 c -0.41628,0 -0.75847,-0.3422 -0.75847,-0.762 0,-0.41981 0.33867,-0.762 0.75847,-0.762 l 19.31811,-0.0141 c 0.913704,-0.004 1.767424,-0.35631 2.413004,-1.00189 0.64559,-0.64558 0.99837,-1.50283 0.99837,-2.41653 l -0.0247,-29.29467 c -0.004,-1.88383 -1.53458,-3.41136 -3.414894,-3.41136 h -0.004 l -22.24616,0.0212 0.0317,36.88292 c 0,0.42333 -0.33867,0.762 -0.75848,0.762 h -0.004"
       style="fill:#854adb;fill-opacity:1;fill-rule:nonzero;stroke:none;stroke-width:0.0352778"
       id="path5280" />
    <path
       d="m 63.204376,148.82602 c 0,0 0,0 -0.004,0 l -8.81591,-0.0141 c -0.41981,0 -0.75847,-0.33867 -0.75847,-0.762 v -25.19187 c 0,-0.4198 0.34219,-0.762 0.762,-0.762 v 0 c 0.4198,0 0.762,0.3422 0.762,0.762 l -0.004,24.43339 7.29544,0.0106 -0.0317,-36.12445 -3.85233,0.004 c -1.88383,0.004 -3.41136,1.53458 -3.41136,3.41489 l 0.004,4.51908 c 0,0.41981 -0.3422,0.762 -0.762,0.762 -0.41981,0 -0.762,-0.34219 -0.762,-0.762 v -4.51555 c -0.004,-2.72345 2.20838,-4.93889 4.9283,-4.94242 h 4.61433 v 0 c 0.42334,0 0.762,0.33867 0.762,0.75847 l 0.0318,37.64845 c 0.004,0.20108 -0.0776,0.39511 -0.22225,0.53622 -0.14111,0.14464 -0.33513,0.22578 -0.53622,0.22578"
       style="fill:#854adb;fill-opacity:1;fill-rule:nonzero;stroke:none;stroke-width:0.0352778"
       id="path5282" />
    <path
       d="m 72.679986,104.69352 -5.34105,0.007 c -1.88031,0 -3.41136,1.53458 -3.40784,3.41489 l 0.0353,40.81286 c 0,1.88031 1.53106,3.40784 3.41136,3.40784 v 0.762 l 0.004,-0.762 5.334,-0.004 c 1.88384,0 3.41136,-1.53458 3.41136,-3.41489 l -0.0353,-40.81286 c 0,-1.88031 -1.53459,-3.41136 -3.41137,-3.41136 z m -5.29872,49.16664 h -0.004 c -2.71991,0 -4.93183,-2.21192 -4.93536,-4.93184 l -0.0353,-40.81286 c -0.004,-2.71992 2.21192,-4.93536 4.93184,-4.93889 l 5.334,-0.004 c 2.72344,0 4.93889,2.21192 4.94242,4.93184 l 0.0317,40.81286 c 0.004,2.71992 -2.20839,4.93536 -4.92831,4.93889 l -5.33753,0.004"
       style="fill:#854adb;fill-opacity:1;fill-rule:nonzero;stroke:none;stroke-width:0.0352778"
       id="path5284" />
    <path
       d="m 85.242406,125.51093 c 0,0.81139 -0.65616,1.46756 -1.46755,1.46756 h -1.88737 c -0.81491,0 -1.47108,-0.65617 -1.47108,-1.46756 v 0 c 0,-0.81139 0.65617,-1.47108 1.47108,-1.47108 h 1.88737 c 0.81139,0 1.46755,0.65969 1.46755,1.47108 v 0"
       style="fill:#854adb;fill-opacity:1;fill-rule:nonzero;stroke:none;stroke-width:0.0352778"
       id="path5286" />
    <path
       d="m 91.874626,125.51093 c 0,0.81139 -0.65969,1.46756 -1.47108,1.46756 h -1.88736 c -0.81139,0 -1.47108,-0.65617 -1.47108,-1.46756 v 0 c 0,-0.81139 0.65969,-1.47108 1.47108,-1.47108 h 1.88736 c 0.81139,0 1.47108,0.65969 1.47108,1.47108 v 0"
       style="fill:#854adb;fill-opacity:1;fill-rule:nonzero;stroke:none;stroke-width:0.0352778"
       id="path5288" />
    <path
       d="m 98.503326,125.51093 c 0,0.81139 -0.65617,1.46756 -1.46756,1.46756 h -1.89089 c -0.81138,0 -1.46755,-0.65617 -1.46755,-1.46756 v 0 c 0,-0.81139 0.65617,-1.47108 1.46755,-1.47108 h 1.89089 c 0.81139,0 1.46756,0.65969 1.46756,1.47108 v 0"
       style="fill:#854adb;fill-opacity:1;fill-rule:nonzero;stroke:none;stroke-width:0.0352778"
       id="path5290" />
    <path
       d="m 85.242406,130.79554 c 0,0.81139 -0.65616,1.46756 -1.46755,1.46756 h -1.88737 c -0.81491,0 -1.47108,-0.65617 -1.47108,-1.46756 v 0 c 0,-0.81138 0.65617,-1.46755 1.47108,-1.46755 h 1.88737 c 0.81139,0 1.46755,0.65617 1.46755,1.46755 v 0"
       style="fill:#854adb;fill-opacity:1;fill-rule:nonzero;stroke:none;stroke-width:0.0352778"
       id="path5292" />
    <path
       d="m 91.874626,130.79554 c 0,0.81139 -0.65969,1.46756 -1.47108,1.46756 h -1.88736 c -0.81139,0 -1.47108,-0.65617 -1.47108,-1.46756 v 0 c 0,-0.81138 0.65969,-1.46755 1.47108,-1.46755 h 1.88736 c 0.81139,0 1.47108,0.65617 1.47108,1.46755 v 0"
       style="fill:#854adb;fill-opacity:1;fill-rule:nonzero;stroke:none;stroke-width:0.0352778"
       id="path5294" />
    <path
       d="m 98.503326,130.79554 c 0,0.81139 -0.65617,1.46756 -1.46756,1.46756 h -1.89089 c -0.81138,0 -1.46755,-0.65617 -1.46755,-1.46756 v 0 c 0,-0.81138 0.65617,-1.46755 1.46755,-1.46755 h 1.89089 c 0.81139,0 1.46756,0.65617 1.46756,1.46755 v 0"
       style="fill:#854adb;fill-opacity:1;fill-rule:nonzero;stroke:none;stroke-width:0.0352778"
       id="path5296" />
    <path
       d="m 85.242406,135.84732 c 0,0.81139 -0.65616,1.46756 -1.46755,1.46756 h -1.88737 c -0.81491,0 -1.47108,-0.65617 -1.47108,-1.46756 v 0 c 0,-0.81139 0.65617,-1.46755 1.47108,-1.46755 h 1.88737 c 0.81139,0 1.46755,0.65616 1.46755,1.46755 v 0"
       style="fill:#854adb;fill-opacity:1;fill-rule:nonzero;stroke:none;stroke-width:0.0352778"
       id="path5298" />
    <path
       d="m 91.874626,135.84732 c 0,0.81139 -0.65969,1.46756 -1.47108,1.46756 h -1.88736 c -0.81139,0 -1.47108,-0.65617 -1.47108,-1.46756 v 0 c 0,-0.81139 0.65969,-1.46755 1.47108,-1.46755 h 1.88736 c 0.81139,0 1.47108,0.65616 1.47108,1.46755 v 0"
       style="fill:#854adb;fill-opacity:1;fill-rule:nonzero;stroke:none;stroke-width:0.0352778"
       id="path5300" />
    <path
       d="m 98.503326,135.84732 c 0,0.81139 -0.65617,1.46756 -1.46756,1.46756 h -1.89089 c -0.81138,0 -1.46755,-0.65617 -1.46755,-1.46756 v 0 c 0,-0.81139 0.65617,-1.46755 1.46755,-1.46755 h 1.89089 c 0.81139,0 1.46756,0.65616 1.46756,1.46755 v 0"
       style="fill:#854adb;fill-opacity:1;fill-rule:nonzero;stroke:none;stroke-width:0.0352778"
       id="path5302" />
    <path
       d="m 85.242406,141.28716 c 0,0.81139 -0.65616,1.46755 -1.46755,1.46755 h -1.88737 c -0.81491,0 -1.47108,-0.65616 -1.47108,-1.46755 v 0 c 0,-0.81139 0.65617,-1.47109 1.47108,-1.47109 h 1.88737 c 0.81139,0 1.46755,0.6597 1.46755,1.47109 v 0"
       style="fill:#854adb;fill-opacity:1;fill-rule:nonzero;stroke:none;stroke-width:0.0352778"
       id="path5304" />
    <path
       d="m 91.874626,141.28716 c 0,0.81139 -0.65969,1.46755 -1.47108,1.46755 h -1.88736 c -0.81139,0 -1.47108,-0.65616 -1.47108,-1.46755 v 0 c 0,-0.81139 0.65969,-1.47109 1.47108,-1.47109 h 1.88736 c 0.81139,0 1.47108,0.6597 1.47108,1.47109 v 0"
       style="fill:#854adb;fill-opacity:1;fill-rule:nonzero;stroke:none;stroke-width:0.0352778"
       id="path5306" />
    <path
       d="m 98.503326,141.28716 c 0,0.81139 -0.65617,1.46755 -1.46756,1.46755 h -1.89089 c -0.81138,0 -1.46755,-0.65616 -1.46755,-1.46755 v 0 c 0,-0.81139 0.65617,-1.47109 1.46755,-1.47109 h 1.89089 c 0.81139,0 1.46756,0.6597 1.46756,1.47109 v 0"
       style="fill:#854adb;fill-opacity:1;fill-rule:nonzero;stroke:none;stroke-width:0.0352778"
       id="path5308" />
    <path
       d="m 80.434046,118.35307 h 17.83997 v -3.81 h -17.83997 z m 18.60197,1.524 h -19.36397 c -0.41981,0 -0.75847,-0.34219 -0.75847,-0.762 v -5.334 c 0,-0.4198 0.33866,-0.75847 0.75847,-0.75847 h 19.36397 c 0.41981,0 0.762,0.33867 0.762,0.75847 v 5.334 c 0,0.41981 -0.34219,0.762 -0.762,0.762"
       style="fill:#ffcf46;fill-opacity:1;fill-rule:nonzero;stroke:none;stroke-width:0.0352778"
       id="path5310" />
    <path
       d="m 57.161296,168.55688 c -9.0417,0 -13.62781,-4.38856 -13.62781,-13.04572 v -24.71562 c 0,-4.61433 1.2312,-8.03627 3.66184,-10.17058 3.1503,-2.76931 7.12258,-2.286 7.28839,-2.26483 0.41627,0.0564 0.71261,0.43744 0.65616,0.85372 -0.0529,0.41628 -0.43744,0.70908 -0.85372,0.65617 -0.0317,-0.004 -3.47839,-0.4057 -6.09953,1.91205 -2.07786,1.83445 -3.13267,4.86481 -3.13267,9.01347 v 24.71562 c 0,7.85989 3.84881,11.52172 12.10734,11.52172 11.23244,0 12.10381,-9.11225 12.10381,-11.90272 v -2.032 c 0,-0.41981 0.34219,-0.762 0.762,-0.762 0.4198,0 0.762,0.34219 0.762,0.762 v 2.032 c 0,3.1503 -0.98425,13.42672 -13.62781,13.42672"
       style="fill:#854adb;fill-opacity:1;fill-rule:nonzero;stroke:none;stroke-width:0.0352778"
       id="path5312" />
  </g>
</svg>
