<?xml version="1.0" encoding="UTF-8" standalone="no"?>
<!-- Created with Inkscape (http://www.inkscape.org/) -->

<svg
   width="75.582642mm"
   height="57.710918mm"
   viewBox="0 0 75.582642 57.710918"
   version="1.1"
   id="svg10119"
   inkscape:version="1.1 (c4e8f9ed74, 2021-05-24)"
   sodipodi:docname="customer-support.svg"
   xmlns:inkscape="http://www.inkscape.org/namespaces/inkscape"
   xmlns:sodipodi="http://sodipodi.sourceforge.net/DTD/sodipodi-0.dtd"
   xmlns="http://www.w3.org/2000/svg"
   xmlns:svg="http://www.w3.org/2000/svg">
  <sodipodi:namedview
     id="namedview10121"
     pagecolor="#ffffff"
     bordercolor="#666666"
     borderopacity="1.0"
     inkscape:pageshadow="2"
     inkscape:pageopacity="0.0"
     inkscape:pagecheckerboard="0"
     inkscape:document-units="mm"
     showgrid="false"
     inkscape:zoom="0.45968013"
     inkscape:cx="-201.22688"
     inkscape:cy="44.596228"
     inkscape:window-width="1920"
     inkscape:window-height="1051"
     inkscape:window-x="1366"
     inkscape:window-y="0"
     inkscape:window-maximized="1"
     inkscape:current-layer="layer1" />
  <defs
     id="defs10116" />
  <g
     inkscape:label="Layer 1"
     inkscape:groupmode="layer"
     id="layer1"
     transform="translate(-54.163335,-137.02844)">
    <path
       d="m 125.96068,165.98444 h -5.99017 c -0.20108,0 -0.39511,-0.0811 -0.53622,-0.22225 -0.14464,-0.14463 -0.22578,-0.33866 -0.22225,-0.53975 l 0.0176,-8.56191 c 0,-0.41981 0.34219,-0.75847 0.75847,-0.75847 h 0.004 c 0.4198,0 0.762,0.34219 0.75847,0.762 l -0.0141,7.79638 h 5.22464 c 0.42333,0 0.762,0.3422 0.762,0.762 0,0.42334 -0.33867,0.762 -0.762,0.762"
       style="fill:#854adb;fill-opacity:1;fill-rule:nonzero;stroke:none;stroke-width:0.0352778"
       id="path5806" />
    <path
       d="m 98.666255,182.49445 h -39.51464 c -2.75167,0 -4.98828,-2.23662 -4.98828,-4.98475 v -2.39184 c 0,-0.4198 0.34219,-0.762 0.762,-0.762 l 43.74092,-0.0988 v 0 c 0.4198,0 0.762,0.3422 0.762,0.762 0,0.41981 -0.33867,0.762 -0.75848,0.762 l -42.98244,0.0952 v 1.63337 c 0,1.90852 1.55222,3.46427 3.46428,3.46427 h 39.51464 c 0.4198,0 0.762,0.33867 0.762,0.75848 0,0.42333 -0.3422,0.762 -0.762,0.762"
       style="fill:#854adb;fill-opacity:1;fill-rule:nonzero;stroke:none;stroke-width:0.0352778"
       id="path5808" />
    <path
       d="m 81.422475,175.87633 v 0.4445 c 0,0.75142 0.61383,1.36525 1.36525,1.36525 h 8.47372 c 0.75142,0 1.36525,-0.61383 1.36525,-1.36525 v -0.4445 z m 9.83897,3.33375 h -8.47372 c -1.59103,0 -2.88572,-1.29469 -2.88572,-2.88925 v -1.20297 c 0,-0.42333 0.33866,-0.762 0.762,-0.762 h 12.72116 c 0.42334,0 0.762,0.33867 0.762,0.762 v 1.20297 c 0,1.59456 -1.29469,2.88925 -2.88572,2.88925"
       style="fill:#854adb;fill-opacity:1;fill-rule:nonzero;stroke:none;stroke-width:0.0352778"
       id="path5810" />
    <path
       d="m 60.149975,175.87633 c -0.41981,0 -0.762,-0.33866 -0.762,-0.75847 v -30.14133 c 0,-2.74814 2.23661,-4.98475 4.98475,-4.98475 h 11.43705 c 0.41981,0 0.762,0.33866 0.762,0.75847 0,0.42333 -0.34219,0.762 -0.762,0.762 h -11.43705 c -1.90853,0 -3.46428,1.55575 -3.46428,3.46428 v 30.14133 c 0,0.41981 -0.33867,0.75847 -0.75847,0.75847"
       style="fill:#854adb;fill-opacity:1;fill-rule:nonzero;stroke:none;stroke-width:0.0352778"
       id="path5812" />
    <path
       d="m 113.8992,157.42253 c -0.4198,0 -0.762,-0.33867 -0.762,-0.75847 v -11.68753 c 0,-1.90853 -1.55222,-3.46428 -3.46075,-3.46428 H 90.788725 c -0.41981,0 -0.75847,-0.33867 -0.75847,-0.75847 0,-0.42334 0.33866,-0.762 0.75847,-0.762 h 18.887725 c 2.74814,0 4.98475,2.23661 4.98475,4.98475 v 11.68753 c 0,0.4198 -0.33866,0.75847 -0.762,0.75847"
       style="fill:#854adb;fill-opacity:1;fill-rule:nonzero;stroke:none;stroke-width:0.0352778"
       id="path5814" />
    <path
       d="m 63.377885,175.87633 c -0.42333,0 -0.762,-0.33866 -0.762,-0.75847 v -30.96331 c 0,-0.4198 0.33867,-0.762 0.762,-0.762 h 12.20259 c 0.4198,0 0.762,0.3422 0.762,0.762 0,0.41981 -0.3422,0.762 -0.762,0.762 h -11.44411 v 30.20131 c 0,0.41981 -0.33867,0.75847 -0.75848,0.75847"
       style="fill:#854adb;fill-opacity:1;fill-rule:nonzero;stroke:none;stroke-width:0.0352778"
       id="path5816" />
    <path
       d="m 110.67481,157.42253 c -0.42333,0 -0.762,-0.33867 -0.762,-0.75847 V 144.91655 H 90.527665 c -0.4198,0 -0.762,-0.34219 -0.762,-0.762 0,-0.4198 0.3422,-0.762 0.762,-0.762 h 20.147145 c 0.41981,0 0.75848,0.3422 0.75848,0.762 v 12.50951 c 0,0.4198 -0.33867,0.75847 -0.75848,0.75847"
       style="fill:#854adb;fill-opacity:1;fill-rule:nonzero;stroke:none;stroke-width:0.0352778"
       id="path5818" />
    <path
       d="M 128.98751,194.73936 H 98.666255 c -0.41981,0 -0.762,-0.34219 -0.762,-0.762 v -37.3133 c 0,-0.42334 0.34219,-0.762 0.762,-0.762 h 2.875145 c 0.42333,0 0.762,0.33866 0.762,0.762 0,0.4198 -0.33867,0.75847 -0.762,0.75847 h -2.113145 v 35.79283 h 28.797255 v -27.66483 l -8.54075,-8.128 h -10.85145 c -0.4198,0 -0.762,-0.33867 -0.762,-0.75847 0,-0.42334 0.3422,-0.762 0.762,-0.762 h 11.15484 c 0.19755,0 0.38453,0.0741 0.52564,0.20813 l 8.99583,8.56192 c 0.15169,0.14464 0.23636,0.3422 0.23636,0.55033 v 28.75492 c 0,0.41981 -0.33867,0.762 -0.75847,0.762"
       style="fill:#854adb;fill-opacity:1;fill-rule:nonzero;stroke:none;stroke-width:0.0352778"
       id="path5820" />
    <path
       d="m 86.223775,138.55244 c -0.83608,0 -1.71802,0.10584 -2.61761,0.32456 -3.2773,0.78669 -4.43441,1.85914 -4.445,1.87325 -0.51505,0.51505 -0.66675,1.54164 -0.31397,2.19075 2.72697,5.01297 6.5405,10.42106 7.95867,10.42106 v 0 c 0.0141,0 0.0282,-0.004 0.0423,-0.004 1.57692,-0.37747 2.8822,-6.68161 3.19264,-12.30489 0.0423,-0.76906 -0.53269,-1.7392 -1.22767,-2.07434 -0.004,-0.004 -0.94191,-0.42686 -2.58939,-0.42686 z m 0.58209,16.33009 h -0.004 c -2.96686,0 -7.86342,-8.58309 -9.29217,-11.21481 -0.67733,-1.24178 -0.4198,-3.00214 0.58209,-4.0005 0.13758,-0.14111 1.4605,-1.38289 5.15761,-2.27189 1.016,-0.24341 2.01789,-0.36689 2.97391,-0.36689 2.02142,0 3.1997,0.55739 3.24909,0.57856 1.2453,0.59972 2.16253,2.15194 2.08844,3.5313 -0.11994,2.14137 -0.87841,12.86934 -4.36033,13.69837 -0.127,0.0317 -0.26106,0.0459 -0.39511,0.0459"
       style="fill:#854adb;fill-opacity:1;fill-rule:nonzero;stroke:none;stroke-width:0.0352778"
       id="path5822" />
    <path
       d="m 95.844025,175.78108 c -0.33161,0 -0.635,-0.21872 -0.73025,-0.55033 -3.75002,-13.04572 -6.69572,-17.69181 -8.20561,-17.69181 -0.004,0 -0.007,0 -0.0106,0 -2.42006,0.0353 -5.75733,6.45231 -8.92881,17.1697 -0.11994,0.40217 -0.54327,0.635 -0.94544,0.51506 -0.40217,-0.11995 -0.635,-0.54328 -0.51506,-0.94545 3.57011,-12.07206 7.05909,-18.21392 10.36814,-18.26331 1.05834,-0.0106 4.28273,-0.0564 9.70139,18.79601 0.11642,0.40216 -0.11994,0.8255 -0.52211,0.94191 -0.0706,0.0176 -0.14111,0.0282 -0.21167,0.0282"
       style="fill:#854adb;fill-opacity:1;fill-rule:nonzero;stroke:none;stroke-width:0.0352778"
       id="path5824" />
    <path
       d="m 94.958555,162.71419 c -2.99861,0 -5.39044,-2.44475 -5.49275,-2.55058 -0.28928,-0.29986 -0.28222,-0.78317 0.0212,-1.07597 0.29986,-0.28928 0.78317,-0.28222 1.07597,0.0176 v 0 c 0.0176,0.0212 2.05317,2.08491 4.39561,2.08491 0.0106,0 0.0176,0 0.0282,0 1.13595,-0.007 2.18723,-0.51858 3.12562,-1.50988 0.28927,-0.30692 0.77258,-0.32103 1.07597,-0.0317 0.30691,0.28927 0.32103,0.76905 0.0317,1.07597 -1.23825,1.31233 -2.66347,1.97908 -4.23334,1.98966 -0.0106,0 -0.0176,0 -0.0282,0"
       style="fill:#854adb;fill-opacity:1;fill-rule:nonzero;stroke:none;stroke-width:0.0352778"
       id="path5826" />
    <path
       d="m 76.180195,165.39531 c -0.1905,0 -0.38453,-0.0106 -0.57503,-0.0317 -2.0073,-0.22225 -3.69358,-1.5875 -5.01297,-4.06048 -0.19756,-0.37394 -0.0564,-0.83255 0.31397,-1.03011 0.37042,-0.19755 0.83256,-0.0564 1.03011,0.31397 1.06539,2.00025 2.35656,3.10092 3.83117,3.2632 2.97744,0.33514 5.95489,-3.06917 5.98311,-3.10445 0.27517,-0.3175 0.75495,-0.35277 1.07597,-0.0776 0.3175,0.27164 0.35278,0.75495 0.0776,1.07245 -0.13406,0.15522 -3.18559,3.65478 -6.72395,3.65478"
       style="fill:#854adb;fill-opacity:1;fill-rule:nonzero;stroke:none;stroke-width:0.0352778"
       id="path5828" />
    <path
       d="m 70.380525,151.85922 c 0.0423,0.97367 0.26459,2.58234 0.52917,3.9617 0.0388,0.19755 -0.007,0.40216 -0.11994,0.5715 -0.11289,0.1658 -0.28928,0.28222 -0.48684,0.3175 -0.1023,0.0212 -2.53294,0.51152 -2.22955,2.18016 0.23989,1.31234 0.60677,1.31234 0.99483,1.31234 0.35631,0 0.81844,-0.0882 1.35467,-0.18698 l 0.43744,-0.0811 c 0.56092,-0.10231 0.92428,-0.27517 1.0795,-0.51153 0.32103,-0.49742 0.0459,-1.62278 -0.27517,-2.92453 -0.127,-0.52211 -0.27163,-1.11125 -0.39511,-1.72861 -0.3175,-1.59103 -0.64558,-2.45181 -0.889,-2.91042 z m -1.31233,9.8672 c -1.81328,0 -2.28953,-1.46403 -2.49061,-2.56117 -0.38806,-2.12372 1.32292,-3.28436 2.7058,-3.75356 -0.92075,-5.16819 -0.15522,-5.38691 0.35984,-5.53155 0.12347,-0.0353 0.25047,-0.0529 0.37747,-0.0529 1.23825,0 2.10961,1.47461 2.74108,4.64256 0.11642,0.58561 0.25048,1.13594 0.381,1.66511 0.42334,1.7145 0.75495,3.06564 0.0741,4.11339 -0.39864,0.61383 -1.0795,1.00189 -2.08845,1.1818 l -0.42333,0.0811 c -0.61031,0.11642 -1.13947,0.2152 -1.63689,0.2152"
       style="fill:#ffcf46;fill-opacity:1;fill-rule:nonzero;stroke:none;stroke-width:0.0352778"
       id="path5830" />
    <path
       d="m 103.89442,155.78917 c -0.96308,0 -1.74977,0.78316 -1.74977,1.74977 0,0.96309 0.78669,1.74625 1.74977,1.74625 h 2.58939 c 0.96309,0 1.74625,-0.78316 1.74625,-1.74625 0,-0.96661 -0.78316,-1.74977 -1.74625,-1.74977 z m 2.58939,5.02002 h -2.58939 c -1.80622,0 -3.27377,-1.46755 -3.27377,-3.27025 0,-1.80622 1.46755,-3.27377 3.27377,-3.27377 h 2.58939 c 1.8027,0 3.27025,1.46755 3.27025,3.27377 0,1.8027 -1.46755,3.27025 -3.27025,3.27025"
       style="fill:#854adb;fill-opacity:1;fill-rule:nonzero;stroke:none;stroke-width:0.0352778"
       id="path5832" />
    <path
       d="m 116.47448,177.17456 h 8.72772 V 168.722 h -8.72772 z m 9.48972,1.524 h -10.25172 c -0.41981,0 -0.762,-0.3422 -0.762,-0.762 V 167.96 c 0,-0.41981 0.34219,-0.762 0.762,-0.762 h 10.25172 c 0.41981,0 0.75848,0.34219 0.75848,0.762 v 9.97656 c 0,0.4198 -0.33867,0.762 -0.75848,0.762"
       style="fill:#ffcf46;fill-opacity:1;fill-rule:nonzero;stroke:none;stroke-width:0.0352778"
       id="path5834" />
    <path
       d="m 103.10773,190.60128 h 8.72772 v -5.37281 h -8.72772 z m 9.48619,1.524 h -10.24819 c -0.41981,0 -0.762,-0.34219 -0.762,-0.762 v -6.89681 c 0,-0.4198 0.34219,-0.762 0.762,-0.762 h 10.24819 c 0.42334,0 0.762,0.3422 0.762,0.762 v 6.89681 c 0,0.41981 -0.33866,0.762 -0.762,0.762"
       style="fill:#854adb;fill-opacity:1;fill-rule:nonzero;stroke:none;stroke-width:0.0352778"
       id="path5836" />
    <path
       d="m 112.59392,165.39531 h -5.12233 c -0.42333,0 -0.762,-0.33867 -0.762,-0.762 0,-0.41981 0.33867,-0.75848 0.762,-0.75848 h 5.12233 c 0.42334,0 0.762,0.33867 0.762,0.75848 0,0.42333 -0.33866,0.762 -0.762,0.762"
       style="fill:#854adb;fill-opacity:1;fill-rule:nonzero;stroke:none;stroke-width:0.0352778"
       id="path5838" />
    <path
       d="m 112.59392,168.722 h -10.24819 c -0.41981,0 -0.762,-0.34219 -0.762,-0.762 0,-0.41981 0.34219,-0.762 0.762,-0.762 h 10.24819 c 0.42334,0 0.762,0.34219 0.762,0.762 0,0.41981 -0.33866,0.762 -0.762,0.762"
       style="fill:#854adb;fill-opacity:1;fill-rule:nonzero;stroke:none;stroke-width:0.0352778"
       id="path5840" />
    <path
       d="m 112.59392,172.0487 h -10.24819 c -0.41981,0 -0.762,-0.3422 -0.762,-0.762 0,-0.41981 0.34219,-0.762 0.762,-0.762 h 10.24819 c 0.42334,0 0.762,0.34219 0.762,0.762 0,0.4198 -0.33866,0.762 -0.762,0.762"
       style="fill:#854adb;fill-opacity:1;fill-rule:nonzero;stroke:none;stroke-width:0.0352778"
       id="path5842" />
    <path
       d="m 112.59392,175.37186 h -10.24819 c -0.41981,0 -0.762,-0.33866 -0.762,-0.762 0,-0.4198 0.34219,-0.75847 0.762,-0.75847 h 10.24819 c 0.42334,0 0.762,0.33867 0.762,0.75847 0,0.42334 -0.33866,0.762 -0.762,0.762"
       style="fill:#854adb;fill-opacity:1;fill-rule:nonzero;stroke:none;stroke-width:0.0352778"
       id="path5844" />
    <path
       d="m 112.59392,178.69856 h -10.24819 c -0.41981,0 -0.762,-0.3422 -0.762,-0.762 0,-0.41981 0.34219,-0.762 0.762,-0.762 h 10.24819 c 0.42334,0 0.762,0.34219 0.762,0.762 0,0.4198 -0.33866,0.762 -0.762,0.762"
       style="fill:#854adb;fill-opacity:1;fill-rule:nonzero;stroke:none;stroke-width:0.0352778"
       id="path5846" />
    <path
       d="m 125.96068,185.22495 h -10.2482 c -0.41981,0 -0.762,-0.33867 -0.762,-0.75848 0,-0.42333 0.34219,-0.762 0.762,-0.762 h 10.2482 c 0.42333,0 0.762,0.33867 0.762,0.762 0,0.41981 -0.33867,0.75848 -0.762,0.75848"
       style="fill:#854adb;fill-opacity:1;fill-rule:nonzero;stroke:none;stroke-width:0.0352778"
       id="path5848" />
    <path
       d="m 125.96068,188.67511 h -10.2482 c -0.41981,0 -0.762,-0.34219 -0.762,-0.762 0,-0.4198 0.34219,-0.75847 0.762,-0.75847 h 10.2482 c 0.42333,0 0.762,0.33867 0.762,0.75847 0,0.41981 -0.33867,0.762 -0.762,0.762"
       style="fill:#854adb;fill-opacity:1;fill-rule:nonzero;stroke:none;stroke-width:0.0352778"
       id="path5850" />
    <path
       d="m 125.96068,182.02525 h -23.61495 c -0.41981,0 -0.762,-0.34219 -0.762,-0.762 0,-0.4198 0.34219,-0.762 0.762,-0.762 h 23.61495 c 0.42333,0 0.762,0.3422 0.762,0.762 0,0.41981 -0.33867,0.762 -0.762,0.762"
       style="fill:#854adb;fill-opacity:1;fill-rule:nonzero;stroke:none;stroke-width:0.0352778"
       id="path5852" />
  </g>
</svg>
